%TF.GenerationSoftware,KiCad,Pcbnew,(6.0.1)*%
%TF.CreationDate,2022-07-14T17:02:31-04:00*%
%TF.ProjectId,AV_Speaker,41565f53-7065-4616-9b65-722e6b696361,rev?*%
%TF.SameCoordinates,Original*%
%TF.FileFunction,Copper,L1,Top*%
%TF.FilePolarity,Positive*%
%FSLAX46Y46*%
G04 Gerber Fmt 4.6, Leading zero omitted, Abs format (unit mm)*
G04 Created by KiCad (PCBNEW (6.0.1)) date 2022-07-14 17:02:31*
%MOMM*%
%LPD*%
G01*
G04 APERTURE LIST*
%TA.AperFunction,ComponentPad*%
%ADD10R,1.700000X1.700000*%
%TD*%
%TA.AperFunction,ComponentPad*%
%ADD11O,1.700000X1.700000*%
%TD*%
%TA.AperFunction,ComponentPad*%
%ADD12C,1.600000*%
%TD*%
%TA.AperFunction,ComponentPad*%
%ADD13O,1.600000X1.600000*%
%TD*%
%TA.AperFunction,ComponentPad*%
%ADD14R,1.600000X2.400000*%
%TD*%
%TA.AperFunction,ComponentPad*%
%ADD15O,1.600000X2.400000*%
%TD*%
%TA.AperFunction,ComponentPad*%
%ADD16R,1.600000X1.600000*%
%TD*%
%TA.AperFunction,ComponentPad*%
%ADD17C,2.340000*%
%TD*%
%TA.AperFunction,ViaPad*%
%ADD18C,0.800000*%
%TD*%
%TA.AperFunction,Conductor*%
%ADD19C,0.250000*%
%TD*%
%TA.AperFunction,Conductor*%
%ADD20C,0.750000*%
%TD*%
G04 APERTURE END LIST*
D10*
%TO.P,J2,1,Pin_1*%
%TO.N,+5V*%
X90805000Y-102113000D03*
D11*
%TO.P,J2,2,Pin_2*%
%TO.N,GND*%
X90805000Y-99573000D03*
%TD*%
D12*
%TO.P,C1,1*%
%TO.N,Net-(C1-Pad1)*%
X110104000Y-83063000D03*
%TO.P,C1,2*%
%TO.N,Net-(C1-Pad2)*%
X115104000Y-83063000D03*
%TD*%
%TO.P,R3,1*%
%TO.N,+5V*%
X96134000Y-103383000D03*
D13*
%TO.P,R3,2*%
%TO.N,Net-(C2-Pad1)*%
X103754000Y-103383000D03*
%TD*%
D14*
%TO.P,U1,1,VDD*%
%TO.N,+5V*%
X96144000Y-97048000D03*
D15*
%TO.P,U1,2,VSS*%
%TO.N,GND*%
X98684000Y-97048000D03*
%TO.P,U1,3,OUT*%
%TO.N,Out*%
X101224000Y-97048000D03*
%TO.P,U1,4,STROBE*%
%TO.N,Strobe*%
X103764000Y-97048000D03*
%TO.P,U1,5,IN*%
%TO.N,Net-(C1-Pad2)*%
X103764000Y-89428000D03*
%TO.P,U1,6,GND*%
%TO.N,Net-(C3-Pad2)*%
X101224000Y-89428000D03*
%TO.P,U1,7,RESET*%
%TO.N,Reset*%
X98684000Y-89428000D03*
%TO.P,U1,8,CKIN*%
%TO.N,Net-(C2-Pad1)*%
X96144000Y-89428000D03*
%TD*%
D12*
%TO.P,C2,1*%
%TO.N,Net-(C2-Pad1)*%
X110104000Y-100843000D03*
%TO.P,C2,2*%
%TO.N,GND*%
X115104000Y-100843000D03*
%TD*%
%TO.P,C4,1*%
%TO.N,GND*%
X115184000Y-90683000D03*
%TO.P,C4,2*%
%TO.N,+5V*%
X110184000Y-90683000D03*
%TD*%
D16*
%TO.P,A1,1,D1/TX*%
%TO.N,unconnected-(A1-Pad1)*%
X124074000Y-103373000D03*
D13*
%TO.P,A1,2,D0/RX*%
%TO.N,unconnected-(A1-Pad2)*%
X126614000Y-103373000D03*
%TO.P,A1,3,~{RESET}*%
%TO.N,unconnected-(A1-Pad3)*%
X129154000Y-103373000D03*
%TO.P,A1,4,GND*%
%TO.N,GND*%
X131694000Y-103373000D03*
%TO.P,A1,5,D2*%
%TO.N,unconnected-(A1-Pad5)*%
X134234000Y-103373000D03*
%TO.P,A1,6,D3*%
%TO.N,unconnected-(A1-Pad6)*%
X136774000Y-103373000D03*
%TO.P,A1,7,D4*%
%TO.N,unconnected-(A1-Pad7)*%
X139314000Y-103373000D03*
%TO.P,A1,8,D5*%
%TO.N,unconnected-(A1-Pad8)*%
X141854000Y-103373000D03*
%TO.P,A1,9,D6*%
%TO.N,LED_DATA*%
X144394000Y-103373000D03*
%TO.P,A1,10,D7*%
%TO.N,unconnected-(A1-Pad10)*%
X146934000Y-103373000D03*
%TO.P,A1,11,D8*%
%TO.N,unconnected-(A1-Pad11)*%
X149474000Y-103373000D03*
%TO.P,A1,12,D9*%
%TO.N,Strobe*%
X152014000Y-103373000D03*
%TO.P,A1,13,D10*%
%TO.N,unconnected-(A1-Pad13)*%
X154554000Y-103373000D03*
%TO.P,A1,14,D11*%
%TO.N,unconnected-(A1-Pad14)*%
X157094000Y-103373000D03*
%TO.P,A1,15,D12*%
%TO.N,unconnected-(A1-Pad15)*%
X159634000Y-103373000D03*
%TO.P,A1,16,D13*%
%TO.N,Reset*%
X159634000Y-88133000D03*
%TO.P,A1,17,3V3*%
%TO.N,unconnected-(A1-Pad17)*%
X157094000Y-88133000D03*
%TO.P,A1,18,AREF*%
%TO.N,unconnected-(A1-Pad18)*%
X154554000Y-88133000D03*
%TO.P,A1,19,A0*%
%TO.N,unconnected-(A1-Pad19)*%
X152014000Y-88133000D03*
%TO.P,A1,20,A1*%
%TO.N,Out*%
X149474000Y-88133000D03*
%TO.P,A1,21,A2*%
%TO.N,unconnected-(A1-Pad21)*%
X146934000Y-88133000D03*
%TO.P,A1,22,A3*%
%TO.N,Sensitivity*%
X144394000Y-88133000D03*
%TO.P,A1,23,A4*%
%TO.N,Brightness*%
X141854000Y-88133000D03*
%TO.P,A1,24,A5*%
%TO.N,unconnected-(A1-Pad24)*%
X139314000Y-88133000D03*
%TO.P,A1,25,A6*%
%TO.N,unconnected-(A1-Pad25)*%
X136774000Y-88133000D03*
%TO.P,A1,26,A7*%
%TO.N,unconnected-(A1-Pad26)*%
X134234000Y-88133000D03*
%TO.P,A1,27,+5V*%
%TO.N,+5V*%
X131694000Y-88133000D03*
%TO.P,A1,28,~{RESET}*%
%TO.N,unconnected-(A1-Pad28)*%
X129154000Y-88133000D03*
%TO.P,A1,29,GND*%
%TO.N,GND*%
X126614000Y-88133000D03*
%TO.P,A1,30,VIN*%
%TO.N,unconnected-(A1-Pad30)*%
X124074000Y-88133000D03*
%TD*%
D17*
%TO.P,RV2,1,1*%
%TO.N,GND*%
X132964000Y-77983000D03*
%TO.P,RV2,2,2*%
%TO.N,Brightness*%
X127964000Y-77983000D03*
%TO.P,RV2,3,3*%
%TO.N,+5V*%
X122964000Y-77983000D03*
%TD*%
D12*
%TO.P,R2,1*%
%TO.N,Audio_IN_L*%
X96134000Y-83063000D03*
D13*
%TO.P,R2,2*%
%TO.N,Net-(C1-Pad1)*%
X103754000Y-83063000D03*
%TD*%
D12*
%TO.P,R1,1*%
%TO.N,Audio_IN_R*%
X96134000Y-77983000D03*
D13*
%TO.P,R1,2*%
%TO.N,Net-(C1-Pad1)*%
X103754000Y-77983000D03*
%TD*%
D10*
%TO.P,J1,1,Pin_1*%
%TO.N,Audio_IN_R*%
X90800000Y-78232000D03*
D11*
%TO.P,J1,2,Pin_2*%
%TO.N,Audio_IN_L*%
X90800000Y-80772000D03*
%TD*%
D12*
%TO.P,C3,1*%
%TO.N,GND*%
X115184000Y-95763000D03*
%TO.P,C3,2*%
%TO.N,Net-(C3-Pad2)*%
X110184000Y-95763000D03*
%TD*%
D10*
%TO.P,J3,1,Pin_1*%
%TO.N,+5V*%
X90805000Y-88265000D03*
D11*
%TO.P,J3,2,Pin_2*%
%TO.N,LED_DATA*%
X90805000Y-90805000D03*
%TO.P,J3,3,Pin_3*%
%TO.N,GND*%
X90805000Y-93345000D03*
%TD*%
D17*
%TO.P,RV1,1,1*%
%TO.N,+5V*%
X158364000Y-77983000D03*
%TO.P,RV1,2,2*%
%TO.N,Sensitivity*%
X153364000Y-77983000D03*
%TO.P,RV1,3,3*%
%TO.N,GND*%
X148364000Y-77983000D03*
%TD*%
D18*
%TO.N,GND*%
X125349000Y-82550000D03*
%TO.N,Reset*%
X149474000Y-84333000D03*
X125344000Y-84333000D03*
%TD*%
D19*
%TO.N,Net-(C1-Pad1)*%
X103754000Y-77983000D02*
X103754000Y-83063000D01*
X103754000Y-83063000D02*
X110104000Y-83063000D01*
%TO.N,Net-(C1-Pad2)*%
X108739000Y-89428000D02*
X115104000Y-83063000D01*
X103764000Y-89428000D02*
X108739000Y-89428000D01*
%TO.N,Net-(C2-Pad1)*%
X107564000Y-103383000D02*
X103754000Y-103383000D01*
X97907000Y-91191000D02*
X96144000Y-89428000D01*
X110104000Y-100843000D02*
X100452000Y-91191000D01*
X110104000Y-100843000D02*
X107564000Y-103383000D01*
X100452000Y-91191000D02*
X97907000Y-91191000D01*
D20*
%TO.N,GND*%
X115184000Y-100763000D02*
X115104000Y-100843000D01*
X115184000Y-95763000D02*
X115184000Y-100763000D01*
X126614000Y-98293000D02*
X131694000Y-103373000D01*
X125349000Y-82550000D02*
X128397000Y-82550000D01*
X126614000Y-88133000D02*
X126614000Y-98293000D01*
X128397000Y-82550000D02*
X132964000Y-77983000D01*
D19*
%TO.N,Net-(C3-Pad2)*%
X110184000Y-95763000D02*
X107559000Y-95763000D01*
X107559000Y-95763000D02*
X101224000Y-89428000D01*
%TO.N,Audio_IN_R*%
X96134000Y-77983000D02*
X91054000Y-77983000D01*
%TO.N,Audio_IN_L*%
X93589000Y-80518000D02*
X96134000Y-83063000D01*
X91059000Y-80518000D02*
X93589000Y-80518000D01*
X91054000Y-80523000D02*
X91059000Y-80518000D01*
%TO.N,Reset*%
X149474000Y-84333000D02*
X125344000Y-84333000D01*
D20*
%TO.N,+5V*%
X129164000Y-85603000D02*
X131694000Y-88133000D01*
X92324000Y-103383000D02*
X96134000Y-103383000D01*
X158364000Y-77983000D02*
X150744000Y-85603000D01*
X122804000Y-85603000D02*
X129164000Y-85603000D01*
X110184000Y-90603000D02*
X115184000Y-85603000D01*
X110184000Y-90683000D02*
X110184000Y-90603000D01*
X150744000Y-85603000D02*
X129164000Y-85603000D01*
X122804000Y-78143000D02*
X122804000Y-85603000D01*
X122964000Y-77983000D02*
X122804000Y-78143000D01*
X91054000Y-102113000D02*
X92324000Y-103383000D01*
X115184000Y-85603000D02*
X122804000Y-85603000D01*
%TD*%
M02*
