%TF.GenerationSoftware,KiCad,Pcbnew,(6.0.1)*%
%TF.CreationDate,2022-07-14T17:02:31-04:00*%
%TF.ProjectId,AV_Speaker,41565f53-7065-4616-9b65-722e6b696361,rev?*%
%TF.SameCoordinates,Original*%
%TF.FileFunction,Copper,L2,Bot*%
%TF.FilePolarity,Positive*%
%FSLAX46Y46*%
G04 Gerber Fmt 4.6, Leading zero omitted, Abs format (unit mm)*
G04 Created by KiCad (PCBNEW (6.0.1)) date 2022-07-14 17:02:31*
%MOMM*%
%LPD*%
G01*
G04 APERTURE LIST*
%TA.AperFunction,ComponentPad*%
%ADD10R,1.700000X1.700000*%
%TD*%
%TA.AperFunction,ComponentPad*%
%ADD11O,1.700000X1.700000*%
%TD*%
%TA.AperFunction,ComponentPad*%
%ADD12C,1.600000*%
%TD*%
%TA.AperFunction,ComponentPad*%
%ADD13O,1.600000X1.600000*%
%TD*%
%TA.AperFunction,ComponentPad*%
%ADD14R,1.600000X2.400000*%
%TD*%
%TA.AperFunction,ComponentPad*%
%ADD15O,1.600000X2.400000*%
%TD*%
%TA.AperFunction,ComponentPad*%
%ADD16R,1.600000X1.600000*%
%TD*%
%TA.AperFunction,ComponentPad*%
%ADD17C,2.340000*%
%TD*%
%TA.AperFunction,ViaPad*%
%ADD18C,0.800000*%
%TD*%
%TA.AperFunction,Conductor*%
%ADD19C,0.250000*%
%TD*%
%TA.AperFunction,Conductor*%
%ADD20C,0.750000*%
%TD*%
G04 APERTURE END LIST*
D10*
%TO.P,J2,1,Pin_1*%
%TO.N,+5V*%
X90805000Y-102113000D03*
D11*
%TO.P,J2,2,Pin_2*%
%TO.N,GND*%
X90805000Y-99573000D03*
%TD*%
D12*
%TO.P,C1,1*%
%TO.N,Net-(C1-Pad1)*%
X110104000Y-83063000D03*
%TO.P,C1,2*%
%TO.N,Net-(C1-Pad2)*%
X115104000Y-83063000D03*
%TD*%
%TO.P,R3,1*%
%TO.N,+5V*%
X96134000Y-103383000D03*
D13*
%TO.P,R3,2*%
%TO.N,Net-(C2-Pad1)*%
X103754000Y-103383000D03*
%TD*%
D14*
%TO.P,U1,1,VDD*%
%TO.N,+5V*%
X96144000Y-97048000D03*
D15*
%TO.P,U1,2,VSS*%
%TO.N,GND*%
X98684000Y-97048000D03*
%TO.P,U1,3,OUT*%
%TO.N,Out*%
X101224000Y-97048000D03*
%TO.P,U1,4,STROBE*%
%TO.N,Strobe*%
X103764000Y-97048000D03*
%TO.P,U1,5,IN*%
%TO.N,Net-(C1-Pad2)*%
X103764000Y-89428000D03*
%TO.P,U1,6,GND*%
%TO.N,Net-(C3-Pad2)*%
X101224000Y-89428000D03*
%TO.P,U1,7,RESET*%
%TO.N,Reset*%
X98684000Y-89428000D03*
%TO.P,U1,8,CKIN*%
%TO.N,Net-(C2-Pad1)*%
X96144000Y-89428000D03*
%TD*%
D12*
%TO.P,C2,1*%
%TO.N,Net-(C2-Pad1)*%
X110104000Y-100843000D03*
%TO.P,C2,2*%
%TO.N,GND*%
X115104000Y-100843000D03*
%TD*%
%TO.P,C4,1*%
%TO.N,GND*%
X115184000Y-90683000D03*
%TO.P,C4,2*%
%TO.N,+5V*%
X110184000Y-90683000D03*
%TD*%
D16*
%TO.P,A1,1,D1/TX*%
%TO.N,unconnected-(A1-Pad1)*%
X124074000Y-103373000D03*
D13*
%TO.P,A1,2,D0/RX*%
%TO.N,unconnected-(A1-Pad2)*%
X126614000Y-103373000D03*
%TO.P,A1,3,~{RESET}*%
%TO.N,unconnected-(A1-Pad3)*%
X129154000Y-103373000D03*
%TO.P,A1,4,GND*%
%TO.N,GND*%
X131694000Y-103373000D03*
%TO.P,A1,5,D2*%
%TO.N,unconnected-(A1-Pad5)*%
X134234000Y-103373000D03*
%TO.P,A1,6,D3*%
%TO.N,unconnected-(A1-Pad6)*%
X136774000Y-103373000D03*
%TO.P,A1,7,D4*%
%TO.N,unconnected-(A1-Pad7)*%
X139314000Y-103373000D03*
%TO.P,A1,8,D5*%
%TO.N,unconnected-(A1-Pad8)*%
X141854000Y-103373000D03*
%TO.P,A1,9,D6*%
%TO.N,LED_DATA*%
X144394000Y-103373000D03*
%TO.P,A1,10,D7*%
%TO.N,unconnected-(A1-Pad10)*%
X146934000Y-103373000D03*
%TO.P,A1,11,D8*%
%TO.N,unconnected-(A1-Pad11)*%
X149474000Y-103373000D03*
%TO.P,A1,12,D9*%
%TO.N,Strobe*%
X152014000Y-103373000D03*
%TO.P,A1,13,D10*%
%TO.N,unconnected-(A1-Pad13)*%
X154554000Y-103373000D03*
%TO.P,A1,14,D11*%
%TO.N,unconnected-(A1-Pad14)*%
X157094000Y-103373000D03*
%TO.P,A1,15,D12*%
%TO.N,unconnected-(A1-Pad15)*%
X159634000Y-103373000D03*
%TO.P,A1,16,D13*%
%TO.N,Reset*%
X159634000Y-88133000D03*
%TO.P,A1,17,3V3*%
%TO.N,unconnected-(A1-Pad17)*%
X157094000Y-88133000D03*
%TO.P,A1,18,AREF*%
%TO.N,unconnected-(A1-Pad18)*%
X154554000Y-88133000D03*
%TO.P,A1,19,A0*%
%TO.N,unconnected-(A1-Pad19)*%
X152014000Y-88133000D03*
%TO.P,A1,20,A1*%
%TO.N,Out*%
X149474000Y-88133000D03*
%TO.P,A1,21,A2*%
%TO.N,unconnected-(A1-Pad21)*%
X146934000Y-88133000D03*
%TO.P,A1,22,A3*%
%TO.N,Sensitivity*%
X144394000Y-88133000D03*
%TO.P,A1,23,A4*%
%TO.N,Brightness*%
X141854000Y-88133000D03*
%TO.P,A1,24,A5*%
%TO.N,unconnected-(A1-Pad24)*%
X139314000Y-88133000D03*
%TO.P,A1,25,A6*%
%TO.N,unconnected-(A1-Pad25)*%
X136774000Y-88133000D03*
%TO.P,A1,26,A7*%
%TO.N,unconnected-(A1-Pad26)*%
X134234000Y-88133000D03*
%TO.P,A1,27,+5V*%
%TO.N,+5V*%
X131694000Y-88133000D03*
%TO.P,A1,28,~{RESET}*%
%TO.N,unconnected-(A1-Pad28)*%
X129154000Y-88133000D03*
%TO.P,A1,29,GND*%
%TO.N,GND*%
X126614000Y-88133000D03*
%TO.P,A1,30,VIN*%
%TO.N,unconnected-(A1-Pad30)*%
X124074000Y-88133000D03*
%TD*%
D17*
%TO.P,RV2,1,1*%
%TO.N,GND*%
X132964000Y-77983000D03*
%TO.P,RV2,2,2*%
%TO.N,Brightness*%
X127964000Y-77983000D03*
%TO.P,RV2,3,3*%
%TO.N,+5V*%
X122964000Y-77983000D03*
%TD*%
D12*
%TO.P,R2,1*%
%TO.N,Audio_IN_L*%
X96134000Y-83063000D03*
D13*
%TO.P,R2,2*%
%TO.N,Net-(C1-Pad1)*%
X103754000Y-83063000D03*
%TD*%
D12*
%TO.P,R1,1*%
%TO.N,Audio_IN_R*%
X96134000Y-77983000D03*
D13*
%TO.P,R1,2*%
%TO.N,Net-(C1-Pad1)*%
X103754000Y-77983000D03*
%TD*%
D10*
%TO.P,J1,1,Pin_1*%
%TO.N,Audio_IN_R*%
X90800000Y-78232000D03*
D11*
%TO.P,J1,2,Pin_2*%
%TO.N,Audio_IN_L*%
X90800000Y-80772000D03*
%TD*%
D12*
%TO.P,C3,1*%
%TO.N,GND*%
X115184000Y-95763000D03*
%TO.P,C3,2*%
%TO.N,Net-(C3-Pad2)*%
X110184000Y-95763000D03*
%TD*%
D10*
%TO.P,J3,1,Pin_1*%
%TO.N,+5V*%
X90805000Y-88265000D03*
D11*
%TO.P,J3,2,Pin_2*%
%TO.N,LED_DATA*%
X90805000Y-90805000D03*
%TO.P,J3,3,Pin_3*%
%TO.N,GND*%
X90805000Y-93345000D03*
%TD*%
D17*
%TO.P,RV1,1,1*%
%TO.N,+5V*%
X158364000Y-77983000D03*
%TO.P,RV1,2,2*%
%TO.N,Sensitivity*%
X153364000Y-77983000D03*
%TO.P,RV1,3,3*%
%TO.N,GND*%
X148364000Y-77983000D03*
%TD*%
D18*
%TO.N,GND*%
X125349000Y-82550000D03*
%TO.N,Reset*%
X149474000Y-84333000D03*
X125344000Y-84333000D03*
%TD*%
D19*
%TO.N,Out*%
X145527000Y-92080000D02*
X149474000Y-88133000D01*
X101224000Y-97035500D02*
X106179500Y-92080000D01*
X101224000Y-97048000D02*
X101224000Y-97035500D01*
X106179500Y-92080000D02*
X145527000Y-92080000D01*
%TO.N,Strobe*%
X107198000Y-97048000D02*
X108453000Y-98303000D01*
X103764000Y-97048000D02*
X107198000Y-97048000D01*
X146944000Y-98303000D02*
X152014000Y-103373000D01*
X108453000Y-98303000D02*
X146944000Y-98303000D01*
%TO.N,Reset*%
X155834000Y-84333000D02*
X149474000Y-84333000D01*
X159634000Y-88133000D02*
X155834000Y-84333000D01*
X103779000Y-84333000D02*
X125344000Y-84333000D01*
X98684000Y-89428000D02*
X103779000Y-84333000D01*
%TO.N,Brightness*%
X127964000Y-77983000D02*
X134949000Y-84968000D01*
X134949000Y-84968000D02*
X141219000Y-84968000D01*
X141854000Y-85603000D02*
X141854000Y-88133000D01*
X141219000Y-84968000D02*
X141854000Y-85603000D01*
D20*
%TO.N,+5V*%
X96144000Y-95011000D02*
X96144000Y-97048000D01*
X97404000Y-93223000D02*
X96583500Y-94043500D01*
X110184000Y-90683000D02*
X106294000Y-90683000D01*
X96583500Y-94043500D02*
X90805000Y-88265000D01*
X96134000Y-95021000D02*
X96134000Y-103383000D01*
X96144000Y-94483000D02*
X96144000Y-95011000D01*
X96144000Y-95011000D02*
X96134000Y-95021000D01*
X96583500Y-94043500D02*
X96144000Y-94483000D01*
X106294000Y-90683000D02*
X103754000Y-93223000D01*
X103754000Y-93223000D02*
X97404000Y-93223000D01*
D19*
%TO.N,LED_DATA*%
X93980000Y-93345000D02*
X91440000Y-90805000D01*
X93980000Y-104140000D02*
X95250000Y-105410000D01*
X95250000Y-105410000D02*
X142357000Y-105410000D01*
X142357000Y-105410000D02*
X144394000Y-103373000D01*
X93980000Y-93345000D02*
X93980000Y-104140000D01*
X91440000Y-90805000D02*
X90805000Y-90805000D01*
%TO.N,Sensitivity*%
X144394000Y-85603000D02*
X144394000Y-88133000D01*
X152014000Y-77983000D02*
X144394000Y-85603000D01*
X153364000Y-77983000D02*
X152014000Y-77983000D01*
%TD*%
%TA.AperFunction,Conductor*%
%TO.N,GND*%
G36*
X122316062Y-76220002D02*
G01*
X122362555Y-76273658D01*
X122372659Y-76343932D01*
X122343165Y-76408512D01*
X122300692Y-76440426D01*
X122147965Y-76510834D01*
X122144056Y-76513397D01*
X121943242Y-76645056D01*
X121943237Y-76645060D01*
X121939329Y-76647622D01*
X121892993Y-76688978D01*
X121823460Y-76751039D01*
X121753202Y-76813746D01*
X121593675Y-77005557D01*
X121464252Y-77218840D01*
X121462443Y-77223154D01*
X121462442Y-77223156D01*
X121374829Y-77432090D01*
X121367775Y-77448911D01*
X121366624Y-77453443D01*
X121366623Y-77453446D01*
X121339467Y-77560373D01*
X121306365Y-77690714D01*
X121281370Y-77938939D01*
X121281594Y-77943606D01*
X121281594Y-77943611D01*
X121287354Y-78063535D01*
X121293339Y-78188131D01*
X121342010Y-78432818D01*
X121426314Y-78667622D01*
X121544398Y-78887386D01*
X121693668Y-79087283D01*
X121870844Y-79262921D01*
X121874606Y-79265679D01*
X121874609Y-79265682D01*
X121986139Y-79347458D01*
X122072036Y-79410440D01*
X122076171Y-79412616D01*
X122076175Y-79412618D01*
X122148447Y-79450642D01*
X122292823Y-79526602D01*
X122375119Y-79555341D01*
X122522550Y-79606826D01*
X122528354Y-79608853D01*
X122532947Y-79609725D01*
X122768867Y-79654516D01*
X122768870Y-79654516D01*
X122773456Y-79655387D01*
X122898099Y-79660284D01*
X123018075Y-79664999D01*
X123018081Y-79664999D01*
X123022743Y-79665182D01*
X123112181Y-79655387D01*
X123266087Y-79638532D01*
X123266092Y-79638531D01*
X123270740Y-79638022D01*
X123277140Y-79636337D01*
X123507476Y-79575694D01*
X123507478Y-79575693D01*
X123511999Y-79574503D01*
X123516296Y-79572657D01*
X123736924Y-79477868D01*
X123736926Y-79477867D01*
X123741218Y-79476023D01*
X123843679Y-79412618D01*
X123949391Y-79347202D01*
X123949395Y-79347199D01*
X123953364Y-79344743D01*
X124102244Y-79218707D01*
X124140209Y-79186567D01*
X124140210Y-79186566D01*
X124143775Y-79183548D01*
X124225316Y-79090569D01*
X124305187Y-78999494D01*
X124305191Y-78999489D01*
X124308269Y-78995979D01*
X124315138Y-78985301D01*
X124416767Y-78827300D01*
X124443231Y-78786157D01*
X124545697Y-78558691D01*
X124579954Y-78437225D01*
X124612146Y-78323082D01*
X124612147Y-78323079D01*
X124613416Y-78318578D01*
X124626414Y-78216402D01*
X124644502Y-78074222D01*
X124644502Y-78074218D01*
X124644900Y-78071092D01*
X124644984Y-78067909D01*
X124646676Y-78003278D01*
X124647207Y-77983000D01*
X124628718Y-77734206D01*
X124573659Y-77490878D01*
X124559164Y-77453605D01*
X124484931Y-77262714D01*
X124484930Y-77262712D01*
X124483238Y-77258361D01*
X124458494Y-77215067D01*
X124419020Y-77146003D01*
X124359442Y-77041763D01*
X124204990Y-76845842D01*
X124023276Y-76674902D01*
X123822751Y-76535793D01*
X123822130Y-76535362D01*
X123822125Y-76535359D01*
X123818292Y-76532700D01*
X123814110Y-76530637D01*
X123814102Y-76530633D01*
X123628299Y-76439006D01*
X123576050Y-76390938D01*
X123558083Y-76322252D01*
X123580102Y-76254757D01*
X123635117Y-76209880D01*
X123684027Y-76200000D01*
X127247941Y-76200000D01*
X127316062Y-76220002D01*
X127362555Y-76273658D01*
X127372659Y-76343932D01*
X127343165Y-76408512D01*
X127300692Y-76440426D01*
X127147965Y-76510834D01*
X127144056Y-76513397D01*
X126943242Y-76645056D01*
X126943237Y-76645060D01*
X126939329Y-76647622D01*
X126892993Y-76688978D01*
X126823460Y-76751039D01*
X126753202Y-76813746D01*
X126593675Y-77005557D01*
X126464252Y-77218840D01*
X126462443Y-77223154D01*
X126462442Y-77223156D01*
X126374829Y-77432090D01*
X126367775Y-77448911D01*
X126366624Y-77453443D01*
X126366623Y-77453446D01*
X126339467Y-77560373D01*
X126306365Y-77690714D01*
X126281370Y-77938939D01*
X126281594Y-77943606D01*
X126281594Y-77943611D01*
X126287354Y-78063535D01*
X126293339Y-78188131D01*
X126342010Y-78432818D01*
X126426314Y-78667622D01*
X126544398Y-78887386D01*
X126693668Y-79087283D01*
X126870844Y-79262921D01*
X126874606Y-79265679D01*
X126874609Y-79265682D01*
X126986139Y-79347458D01*
X127072036Y-79410440D01*
X127076171Y-79412616D01*
X127076175Y-79412618D01*
X127148447Y-79450642D01*
X127292823Y-79526602D01*
X127375119Y-79555341D01*
X127522550Y-79606826D01*
X127528354Y-79608853D01*
X127532947Y-79609725D01*
X127768867Y-79654516D01*
X127768870Y-79654516D01*
X127773456Y-79655387D01*
X127898099Y-79660284D01*
X128018075Y-79664999D01*
X128018081Y-79664999D01*
X128022743Y-79665182D01*
X128112181Y-79655387D01*
X128266087Y-79638532D01*
X128266092Y-79638531D01*
X128270740Y-79638022D01*
X128277140Y-79636337D01*
X128507476Y-79575694D01*
X128507478Y-79575693D01*
X128511999Y-79574503D01*
X128518714Y-79571618D01*
X128536792Y-79563852D01*
X128607276Y-79555341D01*
X128675622Y-79590526D01*
X134445348Y-85360253D01*
X134452888Y-85368539D01*
X134457000Y-85375018D01*
X134462777Y-85380443D01*
X134506651Y-85421643D01*
X134509493Y-85424398D01*
X134529230Y-85444135D01*
X134532427Y-85446615D01*
X134541447Y-85454318D01*
X134573679Y-85484586D01*
X134580625Y-85488405D01*
X134580628Y-85488407D01*
X134591434Y-85494348D01*
X134607953Y-85505199D01*
X134623959Y-85517614D01*
X134631228Y-85520759D01*
X134631232Y-85520762D01*
X134664537Y-85535174D01*
X134675187Y-85540391D01*
X134713940Y-85561695D01*
X134721615Y-85563666D01*
X134721616Y-85563666D01*
X134733562Y-85566733D01*
X134752267Y-85573137D01*
X134770855Y-85581181D01*
X134778678Y-85582420D01*
X134778688Y-85582423D01*
X134814524Y-85588099D01*
X134826144Y-85590505D01*
X134861289Y-85599528D01*
X134868970Y-85601500D01*
X134889224Y-85601500D01*
X134908934Y-85603051D01*
X134928943Y-85606220D01*
X134936835Y-85605474D01*
X134972961Y-85602059D01*
X134984819Y-85601500D01*
X140904406Y-85601500D01*
X140972527Y-85621502D01*
X140993501Y-85638405D01*
X141183595Y-85828499D01*
X141217621Y-85890811D01*
X141220500Y-85917594D01*
X141220500Y-86913606D01*
X141200498Y-86981727D01*
X141166771Y-87016819D01*
X141014211Y-87123643D01*
X141014208Y-87123645D01*
X141009700Y-87126802D01*
X140847802Y-87288700D01*
X140844645Y-87293208D01*
X140844643Y-87293211D01*
X140836610Y-87304684D01*
X140716477Y-87476251D01*
X140714154Y-87481233D01*
X140714151Y-87481238D01*
X140698195Y-87515457D01*
X140651278Y-87568742D01*
X140583001Y-87588203D01*
X140515041Y-87567661D01*
X140469805Y-87515457D01*
X140453849Y-87481238D01*
X140453846Y-87481233D01*
X140451523Y-87476251D01*
X140331390Y-87304684D01*
X140323357Y-87293211D01*
X140323355Y-87293208D01*
X140320198Y-87288700D01*
X140158300Y-87126802D01*
X140153792Y-87123645D01*
X140153789Y-87123643D01*
X140001228Y-87016819D01*
X139970749Y-86995477D01*
X139965767Y-86993154D01*
X139965762Y-86993151D01*
X139768225Y-86901039D01*
X139768224Y-86901039D01*
X139763243Y-86898716D01*
X139757935Y-86897294D01*
X139757933Y-86897293D01*
X139547402Y-86840881D01*
X139547400Y-86840881D01*
X139542087Y-86839457D01*
X139314000Y-86819502D01*
X139085913Y-86839457D01*
X139080600Y-86840881D01*
X139080598Y-86840881D01*
X138870067Y-86897293D01*
X138870065Y-86897294D01*
X138864757Y-86898716D01*
X138859776Y-86901039D01*
X138859775Y-86901039D01*
X138662238Y-86993151D01*
X138662233Y-86993154D01*
X138657251Y-86995477D01*
X138626772Y-87016819D01*
X138474211Y-87123643D01*
X138474208Y-87123645D01*
X138469700Y-87126802D01*
X138307802Y-87288700D01*
X138304645Y-87293208D01*
X138304643Y-87293211D01*
X138296610Y-87304684D01*
X138176477Y-87476251D01*
X138174154Y-87481233D01*
X138174151Y-87481238D01*
X138158195Y-87515457D01*
X138111278Y-87568742D01*
X138043001Y-87588203D01*
X137975041Y-87567661D01*
X137929805Y-87515457D01*
X137913849Y-87481238D01*
X137913846Y-87481233D01*
X137911523Y-87476251D01*
X137791390Y-87304684D01*
X137783357Y-87293211D01*
X137783355Y-87293208D01*
X137780198Y-87288700D01*
X137618300Y-87126802D01*
X137613792Y-87123645D01*
X137613789Y-87123643D01*
X137461228Y-87016819D01*
X137430749Y-86995477D01*
X137425767Y-86993154D01*
X137425762Y-86993151D01*
X137228225Y-86901039D01*
X137228224Y-86901039D01*
X137223243Y-86898716D01*
X137217935Y-86897294D01*
X137217933Y-86897293D01*
X137007402Y-86840881D01*
X137007400Y-86840881D01*
X137002087Y-86839457D01*
X136774000Y-86819502D01*
X136545913Y-86839457D01*
X136540600Y-86840881D01*
X136540598Y-86840881D01*
X136330067Y-86897293D01*
X136330065Y-86897294D01*
X136324757Y-86898716D01*
X136319776Y-86901039D01*
X136319775Y-86901039D01*
X136122238Y-86993151D01*
X136122233Y-86993154D01*
X136117251Y-86995477D01*
X136086772Y-87016819D01*
X135934211Y-87123643D01*
X135934208Y-87123645D01*
X135929700Y-87126802D01*
X135767802Y-87288700D01*
X135764645Y-87293208D01*
X135764643Y-87293211D01*
X135756610Y-87304684D01*
X135636477Y-87476251D01*
X135634154Y-87481233D01*
X135634151Y-87481238D01*
X135618195Y-87515457D01*
X135571278Y-87568742D01*
X135503001Y-87588203D01*
X135435041Y-87567661D01*
X135389805Y-87515457D01*
X135373849Y-87481238D01*
X135373846Y-87481233D01*
X135371523Y-87476251D01*
X135251390Y-87304684D01*
X135243357Y-87293211D01*
X135243355Y-87293208D01*
X135240198Y-87288700D01*
X135078300Y-87126802D01*
X135073792Y-87123645D01*
X135073789Y-87123643D01*
X134921228Y-87016819D01*
X134890749Y-86995477D01*
X134885767Y-86993154D01*
X134885762Y-86993151D01*
X134688225Y-86901039D01*
X134688224Y-86901039D01*
X134683243Y-86898716D01*
X134677935Y-86897294D01*
X134677933Y-86897293D01*
X134467402Y-86840881D01*
X134467400Y-86840881D01*
X134462087Y-86839457D01*
X134234000Y-86819502D01*
X134005913Y-86839457D01*
X134000600Y-86840881D01*
X134000598Y-86840881D01*
X133790067Y-86897293D01*
X133790065Y-86897294D01*
X133784757Y-86898716D01*
X133779776Y-86901039D01*
X133779775Y-86901039D01*
X133582238Y-86993151D01*
X133582233Y-86993154D01*
X133577251Y-86995477D01*
X133546772Y-87016819D01*
X133394211Y-87123643D01*
X133394208Y-87123645D01*
X133389700Y-87126802D01*
X133227802Y-87288700D01*
X133224645Y-87293208D01*
X133224643Y-87293211D01*
X133216610Y-87304684D01*
X133096477Y-87476251D01*
X133094154Y-87481233D01*
X133094151Y-87481238D01*
X133078195Y-87515457D01*
X133031278Y-87568742D01*
X132963001Y-87588203D01*
X132895041Y-87567661D01*
X132849805Y-87515457D01*
X132833849Y-87481238D01*
X132833846Y-87481233D01*
X132831523Y-87476251D01*
X132711390Y-87304684D01*
X132703357Y-87293211D01*
X132703355Y-87293208D01*
X132700198Y-87288700D01*
X132538300Y-87126802D01*
X132533792Y-87123645D01*
X132533789Y-87123643D01*
X132381228Y-87016819D01*
X132350749Y-86995477D01*
X132345767Y-86993154D01*
X132345762Y-86993151D01*
X132148225Y-86901039D01*
X132148224Y-86901039D01*
X132143243Y-86898716D01*
X132137935Y-86897294D01*
X132137933Y-86897293D01*
X131927402Y-86840881D01*
X131927400Y-86840881D01*
X131922087Y-86839457D01*
X131694000Y-86819502D01*
X131465913Y-86839457D01*
X131460600Y-86840881D01*
X131460598Y-86840881D01*
X131250067Y-86897293D01*
X131250065Y-86897294D01*
X131244757Y-86898716D01*
X131239776Y-86901039D01*
X131239775Y-86901039D01*
X131042238Y-86993151D01*
X131042233Y-86993154D01*
X131037251Y-86995477D01*
X131006772Y-87016819D01*
X130854211Y-87123643D01*
X130854208Y-87123645D01*
X130849700Y-87126802D01*
X130687802Y-87288700D01*
X130684645Y-87293208D01*
X130684643Y-87293211D01*
X130676610Y-87304684D01*
X130556477Y-87476251D01*
X130554154Y-87481233D01*
X130554151Y-87481238D01*
X130538195Y-87515457D01*
X130491278Y-87568742D01*
X130423001Y-87588203D01*
X130355041Y-87567661D01*
X130309805Y-87515457D01*
X130293849Y-87481238D01*
X130293846Y-87481233D01*
X130291523Y-87476251D01*
X130171390Y-87304684D01*
X130163357Y-87293211D01*
X130163355Y-87293208D01*
X130160198Y-87288700D01*
X129998300Y-87126802D01*
X129993792Y-87123645D01*
X129993789Y-87123643D01*
X129841228Y-87016819D01*
X129810749Y-86995477D01*
X129805767Y-86993154D01*
X129805762Y-86993151D01*
X129608225Y-86901039D01*
X129608224Y-86901039D01*
X129603243Y-86898716D01*
X129597935Y-86897294D01*
X129597933Y-86897293D01*
X129387402Y-86840881D01*
X129387400Y-86840881D01*
X129382087Y-86839457D01*
X129154000Y-86819502D01*
X128925913Y-86839457D01*
X128920600Y-86840881D01*
X128920598Y-86840881D01*
X128710067Y-86897293D01*
X128710065Y-86897294D01*
X128704757Y-86898716D01*
X128699776Y-86901039D01*
X128699775Y-86901039D01*
X128502238Y-86993151D01*
X128502233Y-86993154D01*
X128497251Y-86995477D01*
X128466772Y-87016819D01*
X128314211Y-87123643D01*
X128314208Y-87123645D01*
X128309700Y-87126802D01*
X128147802Y-87288700D01*
X128144645Y-87293208D01*
X128144643Y-87293211D01*
X128136610Y-87304684D01*
X128016477Y-87476251D01*
X128014154Y-87481233D01*
X128014151Y-87481238D01*
X127997919Y-87516049D01*
X127951002Y-87569334D01*
X127882725Y-87588795D01*
X127814765Y-87568253D01*
X127769529Y-87516049D01*
X127753414Y-87481489D01*
X127747931Y-87471993D01*
X127622972Y-87293533D01*
X127615916Y-87285125D01*
X127461875Y-87131084D01*
X127453467Y-87124028D01*
X127275007Y-86999069D01*
X127265511Y-86993586D01*
X127068053Y-86901510D01*
X127057761Y-86897764D01*
X126885497Y-86851606D01*
X126871401Y-86851942D01*
X126868000Y-86859884D01*
X126868000Y-89400967D01*
X126871973Y-89414498D01*
X126880522Y-89415727D01*
X127057761Y-89368236D01*
X127068053Y-89364490D01*
X127265511Y-89272414D01*
X127275007Y-89266931D01*
X127453467Y-89141972D01*
X127461875Y-89134916D01*
X127615916Y-88980875D01*
X127622972Y-88972467D01*
X127747931Y-88794007D01*
X127753414Y-88784511D01*
X127769529Y-88749951D01*
X127816446Y-88696666D01*
X127884723Y-88677205D01*
X127952683Y-88697747D01*
X127997919Y-88749951D01*
X128014151Y-88784762D01*
X128014154Y-88784767D01*
X128016477Y-88789749D01*
X128023594Y-88799913D01*
X128143302Y-88970873D01*
X128147802Y-88977300D01*
X128309700Y-89139198D01*
X128314208Y-89142355D01*
X128314211Y-89142357D01*
X128339004Y-89159717D01*
X128497251Y-89270523D01*
X128502233Y-89272846D01*
X128502238Y-89272849D01*
X128698765Y-89364490D01*
X128704757Y-89367284D01*
X128710065Y-89368706D01*
X128710067Y-89368707D01*
X128920598Y-89425119D01*
X128920600Y-89425119D01*
X128925913Y-89426543D01*
X129154000Y-89446498D01*
X129382087Y-89426543D01*
X129387400Y-89425119D01*
X129387402Y-89425119D01*
X129597933Y-89368707D01*
X129597935Y-89368706D01*
X129603243Y-89367284D01*
X129609235Y-89364490D01*
X129805762Y-89272849D01*
X129805767Y-89272846D01*
X129810749Y-89270523D01*
X129968996Y-89159717D01*
X129993789Y-89142357D01*
X129993792Y-89142355D01*
X129998300Y-89139198D01*
X130160198Y-88977300D01*
X130164699Y-88970873D01*
X130284406Y-88799913D01*
X130291523Y-88789749D01*
X130293846Y-88784767D01*
X130293849Y-88784762D01*
X130309805Y-88750543D01*
X130356722Y-88697258D01*
X130424999Y-88677797D01*
X130492959Y-88698339D01*
X130538195Y-88750543D01*
X130554151Y-88784762D01*
X130554154Y-88784767D01*
X130556477Y-88789749D01*
X130563594Y-88799913D01*
X130683302Y-88970873D01*
X130687802Y-88977300D01*
X130849700Y-89139198D01*
X130854208Y-89142355D01*
X130854211Y-89142357D01*
X130879004Y-89159717D01*
X131037251Y-89270523D01*
X131042233Y-89272846D01*
X131042238Y-89272849D01*
X131238765Y-89364490D01*
X131244757Y-89367284D01*
X131250065Y-89368706D01*
X131250067Y-89368707D01*
X131460598Y-89425119D01*
X131460600Y-89425119D01*
X131465913Y-89426543D01*
X131694000Y-89446498D01*
X131922087Y-89426543D01*
X131927400Y-89425119D01*
X131927402Y-89425119D01*
X132137933Y-89368707D01*
X132137935Y-89368706D01*
X132143243Y-89367284D01*
X132149235Y-89364490D01*
X132345762Y-89272849D01*
X132345767Y-89272846D01*
X132350749Y-89270523D01*
X132508996Y-89159717D01*
X132533789Y-89142357D01*
X132533792Y-89142355D01*
X132538300Y-89139198D01*
X132700198Y-88977300D01*
X132704699Y-88970873D01*
X132824406Y-88799913D01*
X132831523Y-88789749D01*
X132833846Y-88784767D01*
X132833849Y-88784762D01*
X132849805Y-88750543D01*
X132896722Y-88697258D01*
X132964999Y-88677797D01*
X133032959Y-88698339D01*
X133078195Y-88750543D01*
X133094151Y-88784762D01*
X133094154Y-88784767D01*
X133096477Y-88789749D01*
X133103594Y-88799913D01*
X133223302Y-88970873D01*
X133227802Y-88977300D01*
X133389700Y-89139198D01*
X133394208Y-89142355D01*
X133394211Y-89142357D01*
X133419004Y-89159717D01*
X133577251Y-89270523D01*
X133582233Y-89272846D01*
X133582238Y-89272849D01*
X133778765Y-89364490D01*
X133784757Y-89367284D01*
X133790065Y-89368706D01*
X133790067Y-89368707D01*
X134000598Y-89425119D01*
X134000600Y-89425119D01*
X134005913Y-89426543D01*
X134234000Y-89446498D01*
X134462087Y-89426543D01*
X134467400Y-89425119D01*
X134467402Y-89425119D01*
X134677933Y-89368707D01*
X134677935Y-89368706D01*
X134683243Y-89367284D01*
X134689235Y-89364490D01*
X134885762Y-89272849D01*
X134885767Y-89272846D01*
X134890749Y-89270523D01*
X135048996Y-89159717D01*
X135073789Y-89142357D01*
X135073792Y-89142355D01*
X135078300Y-89139198D01*
X135240198Y-88977300D01*
X135244699Y-88970873D01*
X135364406Y-88799913D01*
X135371523Y-88789749D01*
X135373846Y-88784767D01*
X135373849Y-88784762D01*
X135389805Y-88750543D01*
X135436722Y-88697258D01*
X135504999Y-88677797D01*
X135572959Y-88698339D01*
X135618195Y-88750543D01*
X135634151Y-88784762D01*
X135634154Y-88784767D01*
X135636477Y-88789749D01*
X135643594Y-88799913D01*
X135763302Y-88970873D01*
X135767802Y-88977300D01*
X135929700Y-89139198D01*
X135934208Y-89142355D01*
X135934211Y-89142357D01*
X135959004Y-89159717D01*
X136117251Y-89270523D01*
X136122233Y-89272846D01*
X136122238Y-89272849D01*
X136318765Y-89364490D01*
X136324757Y-89367284D01*
X136330065Y-89368706D01*
X136330067Y-89368707D01*
X136540598Y-89425119D01*
X136540600Y-89425119D01*
X136545913Y-89426543D01*
X136774000Y-89446498D01*
X137002087Y-89426543D01*
X137007400Y-89425119D01*
X137007402Y-89425119D01*
X137217933Y-89368707D01*
X137217935Y-89368706D01*
X137223243Y-89367284D01*
X137229235Y-89364490D01*
X137425762Y-89272849D01*
X137425767Y-89272846D01*
X137430749Y-89270523D01*
X137588996Y-89159717D01*
X137613789Y-89142357D01*
X137613792Y-89142355D01*
X137618300Y-89139198D01*
X137780198Y-88977300D01*
X137784699Y-88970873D01*
X137904406Y-88799913D01*
X137911523Y-88789749D01*
X137913846Y-88784767D01*
X137913849Y-88784762D01*
X137929805Y-88750543D01*
X137976722Y-88697258D01*
X138044999Y-88677797D01*
X138112959Y-88698339D01*
X138158195Y-88750543D01*
X138174151Y-88784762D01*
X138174154Y-88784767D01*
X138176477Y-88789749D01*
X138183594Y-88799913D01*
X138303302Y-88970873D01*
X138307802Y-88977300D01*
X138469700Y-89139198D01*
X138474208Y-89142355D01*
X138474211Y-89142357D01*
X138499004Y-89159717D01*
X138657251Y-89270523D01*
X138662233Y-89272846D01*
X138662238Y-89272849D01*
X138858765Y-89364490D01*
X138864757Y-89367284D01*
X138870065Y-89368706D01*
X138870067Y-89368707D01*
X139080598Y-89425119D01*
X139080600Y-89425119D01*
X139085913Y-89426543D01*
X139314000Y-89446498D01*
X139542087Y-89426543D01*
X139547400Y-89425119D01*
X139547402Y-89425119D01*
X139757933Y-89368707D01*
X139757935Y-89368706D01*
X139763243Y-89367284D01*
X139769235Y-89364490D01*
X139965762Y-89272849D01*
X139965767Y-89272846D01*
X139970749Y-89270523D01*
X140128996Y-89159717D01*
X140153789Y-89142357D01*
X140153792Y-89142355D01*
X140158300Y-89139198D01*
X140320198Y-88977300D01*
X140324699Y-88970873D01*
X140444406Y-88799913D01*
X140451523Y-88789749D01*
X140453846Y-88784767D01*
X140453849Y-88784762D01*
X140469805Y-88750543D01*
X140516722Y-88697258D01*
X140584999Y-88677797D01*
X140652959Y-88698339D01*
X140698195Y-88750543D01*
X140714151Y-88784762D01*
X140714154Y-88784767D01*
X140716477Y-88789749D01*
X140723594Y-88799913D01*
X140843302Y-88970873D01*
X140847802Y-88977300D01*
X141009700Y-89139198D01*
X141014208Y-89142355D01*
X141014211Y-89142357D01*
X141039004Y-89159717D01*
X141197251Y-89270523D01*
X141202233Y-89272846D01*
X141202238Y-89272849D01*
X141398765Y-89364490D01*
X141404757Y-89367284D01*
X141410065Y-89368706D01*
X141410067Y-89368707D01*
X141620598Y-89425119D01*
X141620600Y-89425119D01*
X141625913Y-89426543D01*
X141854000Y-89446498D01*
X142082087Y-89426543D01*
X142087400Y-89425119D01*
X142087402Y-89425119D01*
X142297933Y-89368707D01*
X142297935Y-89368706D01*
X142303243Y-89367284D01*
X142309235Y-89364490D01*
X142505762Y-89272849D01*
X142505767Y-89272846D01*
X142510749Y-89270523D01*
X142668996Y-89159717D01*
X142693789Y-89142357D01*
X142693792Y-89142355D01*
X142698300Y-89139198D01*
X142860198Y-88977300D01*
X142864699Y-88970873D01*
X142984406Y-88799913D01*
X142991523Y-88789749D01*
X142993846Y-88784767D01*
X142993849Y-88784762D01*
X143009805Y-88750543D01*
X143056722Y-88697258D01*
X143124999Y-88677797D01*
X143192959Y-88698339D01*
X143238195Y-88750543D01*
X143254151Y-88784762D01*
X143254154Y-88784767D01*
X143256477Y-88789749D01*
X143263594Y-88799913D01*
X143383302Y-88970873D01*
X143387802Y-88977300D01*
X143549700Y-89139198D01*
X143554208Y-89142355D01*
X143554211Y-89142357D01*
X143579004Y-89159717D01*
X143737251Y-89270523D01*
X143742233Y-89272846D01*
X143742238Y-89272849D01*
X143938765Y-89364490D01*
X143944757Y-89367284D01*
X143950065Y-89368706D01*
X143950067Y-89368707D01*
X144160598Y-89425119D01*
X144160600Y-89425119D01*
X144165913Y-89426543D01*
X144394000Y-89446498D01*
X144622087Y-89426543D01*
X144627400Y-89425119D01*
X144627402Y-89425119D01*
X144837933Y-89368707D01*
X144837935Y-89368706D01*
X144843243Y-89367284D01*
X144849235Y-89364490D01*
X145045762Y-89272849D01*
X145045767Y-89272846D01*
X145050749Y-89270523D01*
X145208996Y-89159717D01*
X145233789Y-89142357D01*
X145233792Y-89142355D01*
X145238300Y-89139198D01*
X145400198Y-88977300D01*
X145404699Y-88970873D01*
X145524406Y-88799913D01*
X145531523Y-88789749D01*
X145533846Y-88784767D01*
X145533849Y-88784762D01*
X145549805Y-88750543D01*
X145596722Y-88697258D01*
X145664999Y-88677797D01*
X145732959Y-88698339D01*
X145778195Y-88750543D01*
X145794151Y-88784762D01*
X145794154Y-88784767D01*
X145796477Y-88789749D01*
X145803594Y-88799913D01*
X145923302Y-88970873D01*
X145927802Y-88977300D01*
X146089700Y-89139198D01*
X146094208Y-89142355D01*
X146094211Y-89142357D01*
X146119004Y-89159717D01*
X146277251Y-89270523D01*
X146282233Y-89272846D01*
X146282238Y-89272849D01*
X146478765Y-89364490D01*
X146484757Y-89367284D01*
X146490065Y-89368706D01*
X146490067Y-89368707D01*
X146700598Y-89425119D01*
X146700600Y-89425119D01*
X146705913Y-89426543D01*
X146934000Y-89446498D01*
X146939475Y-89446019D01*
X146939486Y-89446019D01*
X146951430Y-89444974D01*
X147021035Y-89458962D01*
X147072027Y-89508361D01*
X147088218Y-89577487D01*
X147064466Y-89644393D01*
X147051508Y-89659588D01*
X146172286Y-90538809D01*
X145301500Y-91409595D01*
X145239188Y-91443621D01*
X145212405Y-91446500D01*
X116468973Y-91446500D01*
X116400852Y-91426498D01*
X116354359Y-91372842D01*
X116344255Y-91302568D01*
X116354778Y-91267250D01*
X116415490Y-91137053D01*
X116419236Y-91126761D01*
X116475625Y-90916312D01*
X116477528Y-90905519D01*
X116496517Y-90688475D01*
X116496517Y-90677525D01*
X116477528Y-90460481D01*
X116475625Y-90449688D01*
X116419236Y-90239239D01*
X116415490Y-90228947D01*
X116323414Y-90031489D01*
X116317931Y-90021994D01*
X116281491Y-89969952D01*
X116271012Y-89961576D01*
X116257566Y-89968644D01*
X115273095Y-90953115D01*
X115210783Y-90987141D01*
X115139968Y-90982076D01*
X115094905Y-90953115D01*
X114109713Y-89967923D01*
X114097938Y-89961493D01*
X114085923Y-89970789D01*
X114050069Y-90021994D01*
X114044586Y-90031489D01*
X113952510Y-90228947D01*
X113948764Y-90239239D01*
X113892375Y-90449688D01*
X113890472Y-90460481D01*
X113871483Y-90677525D01*
X113871483Y-90688475D01*
X113890472Y-90905519D01*
X113892375Y-90916312D01*
X113948764Y-91126761D01*
X113952510Y-91137053D01*
X114013222Y-91267250D01*
X114023883Y-91337442D01*
X113994903Y-91402254D01*
X113935483Y-91441111D01*
X113899027Y-91446500D01*
X111469525Y-91446500D01*
X111401404Y-91426498D01*
X111354911Y-91372842D01*
X111344807Y-91302568D01*
X111355330Y-91267251D01*
X111415959Y-91137230D01*
X111415961Y-91137225D01*
X111418284Y-91132243D01*
X111458522Y-90982076D01*
X111476119Y-90916402D01*
X111476119Y-90916400D01*
X111477543Y-90911087D01*
X111497498Y-90683000D01*
X111477543Y-90454913D01*
X111440981Y-90318461D01*
X111419707Y-90239067D01*
X111419706Y-90239065D01*
X111418284Y-90233757D01*
X111376407Y-90143950D01*
X111323849Y-90031238D01*
X111323846Y-90031233D01*
X111321523Y-90026251D01*
X111220788Y-89882387D01*
X111193357Y-89843211D01*
X111193355Y-89843208D01*
X111190198Y-89838700D01*
X111028300Y-89676802D01*
X111023792Y-89673645D01*
X111023789Y-89673643D01*
X110912886Y-89595988D01*
X114462576Y-89595988D01*
X114469644Y-89609434D01*
X115171188Y-90310978D01*
X115185132Y-90318592D01*
X115186965Y-90318461D01*
X115193580Y-90314210D01*
X115899077Y-89608713D01*
X115905507Y-89596938D01*
X115896211Y-89584923D01*
X115845006Y-89549069D01*
X115835511Y-89543586D01*
X115638053Y-89451510D01*
X115627761Y-89447764D01*
X115417312Y-89391375D01*
X115406519Y-89389472D01*
X115189475Y-89370483D01*
X115178525Y-89370483D01*
X114961481Y-89389472D01*
X114950688Y-89391375D01*
X114740239Y-89447764D01*
X114729947Y-89451510D01*
X114532489Y-89543586D01*
X114522994Y-89549069D01*
X114470952Y-89585509D01*
X114462576Y-89595988D01*
X110912886Y-89595988D01*
X110897920Y-89585509D01*
X110840749Y-89545477D01*
X110835767Y-89543154D01*
X110835762Y-89543151D01*
X110638225Y-89451039D01*
X110638224Y-89451039D01*
X110633243Y-89448716D01*
X110627935Y-89447294D01*
X110627933Y-89447293D01*
X110417402Y-89390881D01*
X110417400Y-89390881D01*
X110412087Y-89389457D01*
X110184000Y-89369502D01*
X109955913Y-89389457D01*
X109950600Y-89390881D01*
X109950598Y-89390881D01*
X109740067Y-89447293D01*
X109740065Y-89447294D01*
X109734757Y-89448716D01*
X109729776Y-89451039D01*
X109729775Y-89451039D01*
X109532238Y-89543151D01*
X109532233Y-89543154D01*
X109527251Y-89545477D01*
X109470080Y-89585509D01*
X109344211Y-89673643D01*
X109344208Y-89673645D01*
X109339700Y-89676802D01*
X109253907Y-89762595D01*
X109191595Y-89796621D01*
X109164812Y-89799500D01*
X106373450Y-89799500D01*
X106353739Y-89797949D01*
X106347009Y-89796883D01*
X106340493Y-89795851D01*
X106333906Y-89796196D01*
X106333901Y-89796196D01*
X106274168Y-89799327D01*
X106267574Y-89799500D01*
X106247694Y-89799500D01*
X106244420Y-89799844D01*
X106244421Y-89799844D01*
X106227920Y-89801578D01*
X106221346Y-89802095D01*
X106161627Y-89805225D01*
X106161626Y-89805225D01*
X106155028Y-89805571D01*
X106148646Y-89807281D01*
X106148639Y-89807282D01*
X106142069Y-89809042D01*
X106122635Y-89812644D01*
X106115870Y-89813355D01*
X106115869Y-89813355D01*
X106109298Y-89814046D01*
X106046122Y-89834573D01*
X106039803Y-89836445D01*
X105982013Y-89851929D01*
X105982008Y-89851931D01*
X105975637Y-89853638D01*
X105969756Y-89856634D01*
X105969752Y-89856636D01*
X105963683Y-89859728D01*
X105945421Y-89867292D01*
X105938949Y-89869395D01*
X105938945Y-89869397D01*
X105932669Y-89871436D01*
X105926953Y-89874736D01*
X105926951Y-89874737D01*
X105875135Y-89904653D01*
X105869351Y-89907794D01*
X105810160Y-89937953D01*
X105805029Y-89942108D01*
X105799737Y-89946393D01*
X105783451Y-89957587D01*
X105771831Y-89964296D01*
X105766923Y-89968715D01*
X105766919Y-89968718D01*
X105722464Y-90008745D01*
X105717458Y-90013021D01*
X105702014Y-90025528D01*
X105687969Y-90039573D01*
X105683184Y-90044114D01*
X105633815Y-90088566D01*
X105625925Y-90099426D01*
X105613088Y-90114454D01*
X105108627Y-90618915D01*
X105046315Y-90652941D01*
X104975500Y-90647876D01*
X104918664Y-90605329D01*
X104893853Y-90538809D01*
X104905337Y-90476570D01*
X104995961Y-90282225D01*
X104995961Y-90282224D01*
X104998284Y-90277243D01*
X105041904Y-90114454D01*
X105056119Y-90061402D01*
X105056119Y-90061400D01*
X105057543Y-90056087D01*
X105068140Y-89934958D01*
X105072262Y-89887851D01*
X105072262Y-89887844D01*
X105072500Y-89885127D01*
X105072500Y-88970873D01*
X105057543Y-88799913D01*
X105056119Y-88794598D01*
X104999707Y-88584067D01*
X104999706Y-88584065D01*
X104998284Y-88578757D01*
X104944148Y-88462661D01*
X104903849Y-88376238D01*
X104903846Y-88376233D01*
X104901523Y-88371251D01*
X104770198Y-88183700D01*
X104719498Y-88133000D01*
X122760502Y-88133000D01*
X122780457Y-88361087D01*
X122781881Y-88366400D01*
X122781881Y-88366402D01*
X122807964Y-88463742D01*
X122839716Y-88582243D01*
X122842039Y-88587224D01*
X122842039Y-88587225D01*
X122934151Y-88784762D01*
X122934154Y-88784767D01*
X122936477Y-88789749D01*
X122943594Y-88799913D01*
X123063302Y-88970873D01*
X123067802Y-88977300D01*
X123229700Y-89139198D01*
X123234208Y-89142355D01*
X123234211Y-89142357D01*
X123259004Y-89159717D01*
X123417251Y-89270523D01*
X123422233Y-89272846D01*
X123422238Y-89272849D01*
X123618765Y-89364490D01*
X123624757Y-89367284D01*
X123630065Y-89368706D01*
X123630067Y-89368707D01*
X123840598Y-89425119D01*
X123840600Y-89425119D01*
X123845913Y-89426543D01*
X124074000Y-89446498D01*
X124302087Y-89426543D01*
X124307400Y-89425119D01*
X124307402Y-89425119D01*
X124517933Y-89368707D01*
X124517935Y-89368706D01*
X124523243Y-89367284D01*
X124529235Y-89364490D01*
X124725762Y-89272849D01*
X124725767Y-89272846D01*
X124730749Y-89270523D01*
X124888996Y-89159717D01*
X124913789Y-89142357D01*
X124913792Y-89142355D01*
X124918300Y-89139198D01*
X125080198Y-88977300D01*
X125084699Y-88970873D01*
X125204406Y-88799913D01*
X125211523Y-88789749D01*
X125213846Y-88784767D01*
X125213849Y-88784762D01*
X125230081Y-88749951D01*
X125276998Y-88696666D01*
X125345275Y-88677205D01*
X125413235Y-88697747D01*
X125458471Y-88749951D01*
X125474586Y-88784511D01*
X125480069Y-88794007D01*
X125605028Y-88972467D01*
X125612084Y-88980875D01*
X125766125Y-89134916D01*
X125774533Y-89141972D01*
X125952993Y-89266931D01*
X125962489Y-89272414D01*
X126159947Y-89364490D01*
X126170239Y-89368236D01*
X126342503Y-89414394D01*
X126356599Y-89414058D01*
X126360000Y-89406116D01*
X126360000Y-86865033D01*
X126356027Y-86851502D01*
X126347478Y-86850273D01*
X126170239Y-86897764D01*
X126159947Y-86901510D01*
X125962489Y-86993586D01*
X125952993Y-86999069D01*
X125774533Y-87124028D01*
X125766125Y-87131084D01*
X125612084Y-87285125D01*
X125605028Y-87293533D01*
X125480069Y-87471993D01*
X125474586Y-87481489D01*
X125458471Y-87516049D01*
X125411554Y-87569334D01*
X125343277Y-87588795D01*
X125275317Y-87568253D01*
X125230081Y-87516049D01*
X125213849Y-87481238D01*
X125213846Y-87481233D01*
X125211523Y-87476251D01*
X125091390Y-87304684D01*
X125083357Y-87293211D01*
X125083355Y-87293208D01*
X125080198Y-87288700D01*
X124918300Y-87126802D01*
X124913792Y-87123645D01*
X124913789Y-87123643D01*
X124761228Y-87016819D01*
X124730749Y-86995477D01*
X124725767Y-86993154D01*
X124725762Y-86993151D01*
X124528225Y-86901039D01*
X124528224Y-86901039D01*
X124523243Y-86898716D01*
X124517935Y-86897294D01*
X124517933Y-86897293D01*
X124307402Y-86840881D01*
X124307400Y-86840881D01*
X124302087Y-86839457D01*
X124074000Y-86819502D01*
X123845913Y-86839457D01*
X123840600Y-86840881D01*
X123840598Y-86840881D01*
X123630067Y-86897293D01*
X123630065Y-86897294D01*
X123624757Y-86898716D01*
X123619776Y-86901039D01*
X123619775Y-86901039D01*
X123422238Y-86993151D01*
X123422233Y-86993154D01*
X123417251Y-86995477D01*
X123386772Y-87016819D01*
X123234211Y-87123643D01*
X123234208Y-87123645D01*
X123229700Y-87126802D01*
X123067802Y-87288700D01*
X123064645Y-87293208D01*
X123064643Y-87293211D01*
X123056610Y-87304684D01*
X122936477Y-87476251D01*
X122934154Y-87481233D01*
X122934151Y-87481238D01*
X122842039Y-87678775D01*
X122839716Y-87683757D01*
X122838294Y-87689065D01*
X122838293Y-87689067D01*
X122784948Y-87888151D01*
X122780457Y-87904913D01*
X122760502Y-88133000D01*
X104719498Y-88133000D01*
X104608300Y-88021802D01*
X104603792Y-88018645D01*
X104603789Y-88018643D01*
X104525611Y-87963902D01*
X104420749Y-87890477D01*
X104415767Y-87888154D01*
X104415762Y-87888151D01*
X104218225Y-87796039D01*
X104218224Y-87796039D01*
X104213243Y-87793716D01*
X104207935Y-87792294D01*
X104207933Y-87792293D01*
X103997402Y-87735881D01*
X103997400Y-87735881D01*
X103992087Y-87734457D01*
X103764000Y-87714502D01*
X103535913Y-87734457D01*
X103530600Y-87735881D01*
X103530598Y-87735881D01*
X103320067Y-87792293D01*
X103320065Y-87792294D01*
X103314757Y-87793716D01*
X103309776Y-87796039D01*
X103309775Y-87796039D01*
X103112238Y-87888151D01*
X103112233Y-87888154D01*
X103107251Y-87890477D01*
X103002389Y-87963902D01*
X102924211Y-88018643D01*
X102924208Y-88018645D01*
X102919700Y-88021802D01*
X102757802Y-88183700D01*
X102626477Y-88371251D01*
X102624154Y-88376233D01*
X102624151Y-88376238D01*
X102608195Y-88410457D01*
X102561278Y-88463742D01*
X102493001Y-88483203D01*
X102425041Y-88462661D01*
X102379805Y-88410457D01*
X102363849Y-88376238D01*
X102363846Y-88376233D01*
X102361523Y-88371251D01*
X102230198Y-88183700D01*
X102068300Y-88021802D01*
X102063792Y-88018645D01*
X102063789Y-88018643D01*
X101985611Y-87963902D01*
X101880749Y-87890477D01*
X101875767Y-87888154D01*
X101875762Y-87888151D01*
X101678225Y-87796039D01*
X101678224Y-87796039D01*
X101673243Y-87793716D01*
X101521999Y-87753190D01*
X101461377Y-87716238D01*
X101430355Y-87652377D01*
X101438784Y-87581883D01*
X101465516Y-87542388D01*
X104004500Y-85003405D01*
X104066812Y-84969379D01*
X104093595Y-84966500D01*
X124635800Y-84966500D01*
X124703921Y-84986502D01*
X124723147Y-85002843D01*
X124723420Y-85002540D01*
X124728332Y-85006963D01*
X124732747Y-85011866D01*
X124754329Y-85027546D01*
X124869193Y-85111000D01*
X124887248Y-85124118D01*
X124893276Y-85126802D01*
X124893278Y-85126803D01*
X125051656Y-85197317D01*
X125061712Y-85201794D01*
X125140133Y-85218463D01*
X125242056Y-85240128D01*
X125242061Y-85240128D01*
X125248513Y-85241500D01*
X125439487Y-85241500D01*
X125445939Y-85240128D01*
X125445944Y-85240128D01*
X125547867Y-85218463D01*
X125626288Y-85201794D01*
X125636344Y-85197317D01*
X125794722Y-85126803D01*
X125794724Y-85126802D01*
X125800752Y-85124118D01*
X125818808Y-85111000D01*
X125856157Y-85083864D01*
X125955253Y-85011866D01*
X125992095Y-84970949D01*
X126078621Y-84874852D01*
X126078622Y-84874851D01*
X126083040Y-84869944D01*
X126178527Y-84704556D01*
X126237542Y-84522928D01*
X126238733Y-84511602D01*
X126256814Y-84339565D01*
X126257504Y-84333000D01*
X126243580Y-84200523D01*
X126238232Y-84149635D01*
X126238232Y-84149633D01*
X126237542Y-84143072D01*
X126178527Y-83961444D01*
X126083040Y-83796056D01*
X126068798Y-83780238D01*
X125959675Y-83659045D01*
X125959674Y-83659044D01*
X125955253Y-83654134D01*
X125800752Y-83541882D01*
X125794724Y-83539198D01*
X125794722Y-83539197D01*
X125632319Y-83466891D01*
X125632318Y-83466891D01*
X125626288Y-83464206D01*
X125532887Y-83444353D01*
X125445944Y-83425872D01*
X125445939Y-83425872D01*
X125439487Y-83424500D01*
X125248513Y-83424500D01*
X125242061Y-83425872D01*
X125242056Y-83425872D01*
X125155113Y-83444353D01*
X125061712Y-83464206D01*
X125055682Y-83466891D01*
X125055681Y-83466891D01*
X124893278Y-83539197D01*
X124893276Y-83539198D01*
X124887248Y-83541882D01*
X124732747Y-83654134D01*
X124728332Y-83659037D01*
X124723420Y-83663460D01*
X124722295Y-83662211D01*
X124668986Y-83695051D01*
X124635800Y-83699500D01*
X116448745Y-83699500D01*
X116380624Y-83679498D01*
X116334131Y-83625842D01*
X116324027Y-83555568D01*
X116334552Y-83520247D01*
X116335959Y-83517230D01*
X116335961Y-83517225D01*
X116338284Y-83512243D01*
X116397543Y-83291087D01*
X116417498Y-83063000D01*
X116397543Y-82834913D01*
X116338284Y-82613757D01*
X116335961Y-82608775D01*
X116243849Y-82411238D01*
X116243846Y-82411233D01*
X116241523Y-82406251D01*
X116110198Y-82218700D01*
X115948300Y-82056802D01*
X115943792Y-82053645D01*
X115943789Y-82053643D01*
X115865366Y-81998731D01*
X115760749Y-81925477D01*
X115755767Y-81923154D01*
X115755762Y-81923151D01*
X115558225Y-81831039D01*
X115558224Y-81831039D01*
X115553243Y-81828716D01*
X115547935Y-81827294D01*
X115547933Y-81827293D01*
X115337402Y-81770881D01*
X115337400Y-81770881D01*
X115332087Y-81769457D01*
X115104000Y-81749502D01*
X114875913Y-81769457D01*
X114870600Y-81770881D01*
X114870598Y-81770881D01*
X114660067Y-81827293D01*
X114660065Y-81827294D01*
X114654757Y-81828716D01*
X114649776Y-81831039D01*
X114649775Y-81831039D01*
X114452238Y-81923151D01*
X114452233Y-81923154D01*
X114447251Y-81925477D01*
X114342634Y-81998731D01*
X114264211Y-82053643D01*
X114264208Y-82053645D01*
X114259700Y-82056802D01*
X114097802Y-82218700D01*
X113966477Y-82406251D01*
X113964154Y-82411233D01*
X113964151Y-82411238D01*
X113872039Y-82608775D01*
X113869716Y-82613757D01*
X113810457Y-82834913D01*
X113790502Y-83063000D01*
X113810457Y-83291087D01*
X113869716Y-83512243D01*
X113872039Y-83517225D01*
X113872041Y-83517230D01*
X113873448Y-83520247D01*
X113873669Y-83521704D01*
X113873922Y-83522398D01*
X113873782Y-83522449D01*
X113884111Y-83590438D01*
X113855133Y-83655252D01*
X113795715Y-83694110D01*
X113759255Y-83699500D01*
X111448745Y-83699500D01*
X111380624Y-83679498D01*
X111334131Y-83625842D01*
X111324027Y-83555568D01*
X111334552Y-83520247D01*
X111335959Y-83517230D01*
X111335961Y-83517225D01*
X111338284Y-83512243D01*
X111397543Y-83291087D01*
X111417498Y-83063000D01*
X111397543Y-82834913D01*
X111338284Y-82613757D01*
X111335961Y-82608775D01*
X111243849Y-82411238D01*
X111243846Y-82411233D01*
X111241523Y-82406251D01*
X111110198Y-82218700D01*
X110948300Y-82056802D01*
X110943792Y-82053645D01*
X110943789Y-82053643D01*
X110865366Y-81998731D01*
X110760749Y-81925477D01*
X110755767Y-81923154D01*
X110755762Y-81923151D01*
X110558225Y-81831039D01*
X110558224Y-81831039D01*
X110553243Y-81828716D01*
X110547935Y-81827294D01*
X110547933Y-81827293D01*
X110337402Y-81770881D01*
X110337400Y-81770881D01*
X110332087Y-81769457D01*
X110104000Y-81749502D01*
X109875913Y-81769457D01*
X109870600Y-81770881D01*
X109870598Y-81770881D01*
X109660067Y-81827293D01*
X109660065Y-81827294D01*
X109654757Y-81828716D01*
X109649776Y-81831039D01*
X109649775Y-81831039D01*
X109452238Y-81923151D01*
X109452233Y-81923154D01*
X109447251Y-81925477D01*
X109342634Y-81998731D01*
X109264211Y-82053643D01*
X109264208Y-82053645D01*
X109259700Y-82056802D01*
X109097802Y-82218700D01*
X108966477Y-82406251D01*
X108964154Y-82411233D01*
X108964151Y-82411238D01*
X108872039Y-82608775D01*
X108869716Y-82613757D01*
X108810457Y-82834913D01*
X108790502Y-83063000D01*
X108810457Y-83291087D01*
X108869716Y-83512243D01*
X108872039Y-83517225D01*
X108872041Y-83517230D01*
X108873448Y-83520247D01*
X108873669Y-83521704D01*
X108873922Y-83522398D01*
X108873782Y-83522449D01*
X108884111Y-83590438D01*
X108855133Y-83655252D01*
X108795715Y-83694110D01*
X108759255Y-83699500D01*
X105098745Y-83699500D01*
X105030624Y-83679498D01*
X104984131Y-83625842D01*
X104974027Y-83555568D01*
X104984552Y-83520247D01*
X104985959Y-83517230D01*
X104985961Y-83517225D01*
X104988284Y-83512243D01*
X105047543Y-83291087D01*
X105067498Y-83063000D01*
X105047543Y-82834913D01*
X104988284Y-82613757D01*
X104985961Y-82608775D01*
X104893849Y-82411238D01*
X104893846Y-82411233D01*
X104891523Y-82406251D01*
X104760198Y-82218700D01*
X104598300Y-82056802D01*
X104593792Y-82053645D01*
X104593789Y-82053643D01*
X104515366Y-81998731D01*
X104410749Y-81925477D01*
X104405767Y-81923154D01*
X104405762Y-81923151D01*
X104208225Y-81831039D01*
X104208224Y-81831039D01*
X104203243Y-81828716D01*
X104197935Y-81827294D01*
X104197933Y-81827293D01*
X103987402Y-81770881D01*
X103987400Y-81770881D01*
X103982087Y-81769457D01*
X103754000Y-81749502D01*
X103525913Y-81769457D01*
X103520600Y-81770881D01*
X103520598Y-81770881D01*
X103310067Y-81827293D01*
X103310065Y-81827294D01*
X103304757Y-81828716D01*
X103299776Y-81831039D01*
X103299775Y-81831039D01*
X103102238Y-81923151D01*
X103102233Y-81923154D01*
X103097251Y-81925477D01*
X102992634Y-81998731D01*
X102914211Y-82053643D01*
X102914208Y-82053645D01*
X102909700Y-82056802D01*
X102747802Y-82218700D01*
X102616477Y-82406251D01*
X102614154Y-82411233D01*
X102614151Y-82411238D01*
X102522039Y-82608775D01*
X102519716Y-82613757D01*
X102460457Y-82834913D01*
X102440502Y-83063000D01*
X102460457Y-83291087D01*
X102519716Y-83512243D01*
X102522039Y-83517224D01*
X102522039Y-83517225D01*
X102614151Y-83714762D01*
X102614154Y-83714767D01*
X102616477Y-83719749D01*
X102666471Y-83791148D01*
X102710790Y-83854441D01*
X102747802Y-83907300D01*
X102909700Y-84069198D01*
X102914212Y-84072357D01*
X102914217Y-84072361D01*
X102926209Y-84080759D01*
X102970536Y-84136217D01*
X102977844Y-84206837D01*
X102943031Y-84273065D01*
X99392815Y-87823280D01*
X99330503Y-87857306D01*
X99259687Y-87852241D01*
X99250483Y-87848386D01*
X99133243Y-87793716D01*
X99127935Y-87792294D01*
X99127933Y-87792293D01*
X98917402Y-87735881D01*
X98917400Y-87735881D01*
X98912087Y-87734457D01*
X98684000Y-87714502D01*
X98455913Y-87734457D01*
X98450600Y-87735881D01*
X98450598Y-87735881D01*
X98240067Y-87792293D01*
X98240065Y-87792294D01*
X98234757Y-87793716D01*
X98229776Y-87796039D01*
X98229775Y-87796039D01*
X98032238Y-87888151D01*
X98032233Y-87888154D01*
X98027251Y-87890477D01*
X97922389Y-87963902D01*
X97844211Y-88018643D01*
X97844208Y-88018645D01*
X97839700Y-88021802D01*
X97677802Y-88183700D01*
X97546477Y-88371251D01*
X97544154Y-88376233D01*
X97544151Y-88376238D01*
X97528195Y-88410457D01*
X97481278Y-88463742D01*
X97413001Y-88483203D01*
X97345041Y-88462661D01*
X97299805Y-88410457D01*
X97283849Y-88376238D01*
X97283846Y-88376233D01*
X97281523Y-88371251D01*
X97150198Y-88183700D01*
X96988300Y-88021802D01*
X96983792Y-88018645D01*
X96983789Y-88018643D01*
X96905611Y-87963902D01*
X96800749Y-87890477D01*
X96795767Y-87888154D01*
X96795762Y-87888151D01*
X96598225Y-87796039D01*
X96598224Y-87796039D01*
X96593243Y-87793716D01*
X96587935Y-87792294D01*
X96587933Y-87792293D01*
X96377402Y-87735881D01*
X96377400Y-87735881D01*
X96372087Y-87734457D01*
X96144000Y-87714502D01*
X95915913Y-87734457D01*
X95910600Y-87735881D01*
X95910598Y-87735881D01*
X95700067Y-87792293D01*
X95700065Y-87792294D01*
X95694757Y-87793716D01*
X95689776Y-87796039D01*
X95689775Y-87796039D01*
X95492238Y-87888151D01*
X95492233Y-87888154D01*
X95487251Y-87890477D01*
X95382389Y-87963902D01*
X95304211Y-88018643D01*
X95304208Y-88018645D01*
X95299700Y-88021802D01*
X95137802Y-88183700D01*
X95006477Y-88371251D01*
X95004154Y-88376233D01*
X95004151Y-88376238D01*
X94963852Y-88462661D01*
X94909716Y-88578757D01*
X94908294Y-88584065D01*
X94908293Y-88584067D01*
X94851881Y-88794598D01*
X94850457Y-88799913D01*
X94835500Y-88970873D01*
X94835500Y-89885127D01*
X94835738Y-89887844D01*
X94835738Y-89887851D01*
X94839860Y-89934958D01*
X94850457Y-90056087D01*
X94851881Y-90061400D01*
X94851881Y-90061402D01*
X94866097Y-90114454D01*
X94909716Y-90277243D01*
X94912039Y-90282224D01*
X94912039Y-90282225D01*
X95004151Y-90479762D01*
X95004154Y-90479767D01*
X95006477Y-90484749D01*
X95048377Y-90544588D01*
X95124247Y-90652941D01*
X95137802Y-90672300D01*
X95299700Y-90834198D01*
X95304208Y-90837355D01*
X95304211Y-90837357D01*
X95382389Y-90892098D01*
X95487251Y-90965523D01*
X95492233Y-90967846D01*
X95492238Y-90967849D01*
X95662143Y-91047076D01*
X95694757Y-91062284D01*
X95700065Y-91063706D01*
X95700067Y-91063707D01*
X95910598Y-91120119D01*
X95910600Y-91120119D01*
X95915913Y-91121543D01*
X96144000Y-91141498D01*
X96372087Y-91121543D01*
X96377400Y-91120119D01*
X96377402Y-91120119D01*
X96587933Y-91063707D01*
X96587935Y-91063706D01*
X96593243Y-91062284D01*
X96625857Y-91047076D01*
X96795762Y-90967849D01*
X96795767Y-90967846D01*
X96800749Y-90965523D01*
X96905611Y-90892098D01*
X96983789Y-90837357D01*
X96983792Y-90837355D01*
X96988300Y-90834198D01*
X97150198Y-90672300D01*
X97163754Y-90652941D01*
X97239623Y-90544588D01*
X97281523Y-90484749D01*
X97283846Y-90479767D01*
X97283849Y-90479762D01*
X97299805Y-90445543D01*
X97346722Y-90392258D01*
X97414999Y-90372797D01*
X97482959Y-90393339D01*
X97528195Y-90445543D01*
X97544151Y-90479762D01*
X97544154Y-90479767D01*
X97546477Y-90484749D01*
X97588377Y-90544588D01*
X97664247Y-90652941D01*
X97677802Y-90672300D01*
X97839700Y-90834198D01*
X97844208Y-90837355D01*
X97844211Y-90837357D01*
X97922389Y-90892098D01*
X98027251Y-90965523D01*
X98032233Y-90967846D01*
X98032238Y-90967849D01*
X98202143Y-91047076D01*
X98234757Y-91062284D01*
X98240065Y-91063706D01*
X98240067Y-91063707D01*
X98450598Y-91120119D01*
X98450600Y-91120119D01*
X98455913Y-91121543D01*
X98684000Y-91141498D01*
X98912087Y-91121543D01*
X98917400Y-91120119D01*
X98917402Y-91120119D01*
X99127933Y-91063707D01*
X99127935Y-91063706D01*
X99133243Y-91062284D01*
X99165857Y-91047076D01*
X99335762Y-90967849D01*
X99335767Y-90967846D01*
X99340749Y-90965523D01*
X99445611Y-90892098D01*
X99523789Y-90837357D01*
X99523792Y-90837355D01*
X99528300Y-90834198D01*
X99690198Y-90672300D01*
X99703754Y-90652941D01*
X99779623Y-90544588D01*
X99821523Y-90484749D01*
X99823846Y-90479767D01*
X99823849Y-90479762D01*
X99839805Y-90445543D01*
X99886722Y-90392258D01*
X99954999Y-90372797D01*
X100022959Y-90393339D01*
X100068195Y-90445543D01*
X100084151Y-90479762D01*
X100084154Y-90479767D01*
X100086477Y-90484749D01*
X100128377Y-90544588D01*
X100204247Y-90652941D01*
X100217802Y-90672300D01*
X100379700Y-90834198D01*
X100384208Y-90837355D01*
X100384211Y-90837357D01*
X100462389Y-90892098D01*
X100567251Y-90965523D01*
X100572233Y-90967846D01*
X100572238Y-90967849D01*
X100742143Y-91047076D01*
X100774757Y-91062284D01*
X100780065Y-91063706D01*
X100780067Y-91063707D01*
X100990598Y-91120119D01*
X100990600Y-91120119D01*
X100995913Y-91121543D01*
X101224000Y-91141498D01*
X101452087Y-91121543D01*
X101457400Y-91120119D01*
X101457402Y-91120119D01*
X101667933Y-91063707D01*
X101667935Y-91063706D01*
X101673243Y-91062284D01*
X101705857Y-91047076D01*
X101875762Y-90967849D01*
X101875767Y-90967846D01*
X101880749Y-90965523D01*
X101985611Y-90892098D01*
X102063789Y-90837357D01*
X102063792Y-90837355D01*
X102068300Y-90834198D01*
X102230198Y-90672300D01*
X102243754Y-90652941D01*
X102319623Y-90544588D01*
X102361523Y-90484749D01*
X102363846Y-90479767D01*
X102363849Y-90479762D01*
X102379805Y-90445543D01*
X102426722Y-90392258D01*
X102494999Y-90372797D01*
X102562959Y-90393339D01*
X102608195Y-90445543D01*
X102624151Y-90479762D01*
X102624154Y-90479767D01*
X102626477Y-90484749D01*
X102668377Y-90544588D01*
X102744247Y-90652941D01*
X102757802Y-90672300D01*
X102919700Y-90834198D01*
X102924208Y-90837355D01*
X102924211Y-90837357D01*
X103002389Y-90892098D01*
X103107251Y-90965523D01*
X103112233Y-90967846D01*
X103112238Y-90967849D01*
X103282143Y-91047076D01*
X103314757Y-91062284D01*
X103320065Y-91063706D01*
X103320067Y-91063707D01*
X103530598Y-91120119D01*
X103530600Y-91120119D01*
X103535913Y-91121543D01*
X103764000Y-91141498D01*
X103992087Y-91121543D01*
X103997400Y-91120119D01*
X103997402Y-91120119D01*
X104207933Y-91063707D01*
X104207935Y-91063706D01*
X104213243Y-91062284D01*
X104373285Y-90987656D01*
X104412570Y-90969337D01*
X104482762Y-90958676D01*
X104547575Y-90987656D01*
X104586431Y-91047076D01*
X104586994Y-91118070D01*
X104554915Y-91172627D01*
X103424947Y-92302595D01*
X103362635Y-92336621D01*
X103335852Y-92339500D01*
X97483450Y-92339500D01*
X97463739Y-92337949D01*
X97457009Y-92336883D01*
X97450493Y-92335851D01*
X97443905Y-92336196D01*
X97443901Y-92336196D01*
X97384162Y-92339327D01*
X97377568Y-92339500D01*
X97357694Y-92339500D01*
X97354421Y-92339844D01*
X97337929Y-92341577D01*
X97331354Y-92342094D01*
X97271624Y-92345224D01*
X97271620Y-92345225D01*
X97265029Y-92345570D01*
X97252071Y-92349042D01*
X97232628Y-92352645D01*
X97219298Y-92354046D01*
X97156106Y-92374578D01*
X97149804Y-92376444D01*
X97130215Y-92381693D01*
X97085637Y-92393638D01*
X97079758Y-92396634D01*
X97079749Y-92396637D01*
X97073683Y-92399728D01*
X97055421Y-92407292D01*
X97048957Y-92409392D01*
X97048949Y-92409395D01*
X97042669Y-92411436D01*
X97036950Y-92414738D01*
X97036945Y-92414740D01*
X96985133Y-92444654D01*
X96979363Y-92447787D01*
X96920161Y-92477953D01*
X96915029Y-92482109D01*
X96909741Y-92486391D01*
X96893448Y-92497589D01*
X96881831Y-92504296D01*
X96876925Y-92508713D01*
X96876920Y-92508717D01*
X96832462Y-92548747D01*
X96827446Y-92553031D01*
X96822076Y-92557380D01*
X96812014Y-92565528D01*
X96797969Y-92579573D01*
X96793184Y-92584114D01*
X96764354Y-92610073D01*
X96743815Y-92628566D01*
X96735925Y-92639426D01*
X96723088Y-92654454D01*
X96672595Y-92704947D01*
X96610283Y-92738973D01*
X96539468Y-92733908D01*
X96494405Y-92704947D01*
X92200405Y-88410947D01*
X92166379Y-88348635D01*
X92163500Y-88321852D01*
X92163500Y-87366866D01*
X92156745Y-87304684D01*
X92105615Y-87168295D01*
X92018261Y-87051739D01*
X91901705Y-86964385D01*
X91765316Y-86913255D01*
X91703134Y-86906500D01*
X89906866Y-86906500D01*
X89844684Y-86913255D01*
X89708295Y-86964385D01*
X89591739Y-87051739D01*
X89504385Y-87168295D01*
X89453255Y-87304684D01*
X89446500Y-87366866D01*
X89446500Y-89163134D01*
X89453255Y-89225316D01*
X89504385Y-89361705D01*
X89591739Y-89478261D01*
X89708295Y-89565615D01*
X89716704Y-89568767D01*
X89716705Y-89568768D01*
X89825451Y-89609535D01*
X89882216Y-89652176D01*
X89906916Y-89718738D01*
X89891709Y-89788087D01*
X89872316Y-89814568D01*
X89807507Y-89882387D01*
X89745629Y-89947138D01*
X89742715Y-89951410D01*
X89742714Y-89951411D01*
X89702100Y-90010949D01*
X89619743Y-90131680D01*
X89574673Y-90228775D01*
X89532982Y-90318592D01*
X89525688Y-90334305D01*
X89465989Y-90549570D01*
X89442251Y-90771695D01*
X89442548Y-90776848D01*
X89442548Y-90776851D01*
X89452711Y-90953115D01*
X89455110Y-90994715D01*
X89456247Y-90999761D01*
X89456248Y-90999767D01*
X89470658Y-91063707D01*
X89504222Y-91212639D01*
X89588266Y-91419616D01*
X89704987Y-91610088D01*
X89851250Y-91778938D01*
X90023126Y-91921632D01*
X90094022Y-91963060D01*
X90096955Y-91964774D01*
X90145679Y-92016412D01*
X90158750Y-92086195D01*
X90132019Y-92151967D01*
X90091562Y-92185327D01*
X90083457Y-92189546D01*
X90074738Y-92195036D01*
X89904433Y-92322905D01*
X89896726Y-92329748D01*
X89749590Y-92483717D01*
X89743104Y-92491727D01*
X89623098Y-92667649D01*
X89618000Y-92676623D01*
X89528338Y-92869783D01*
X89524775Y-92879470D01*
X89469389Y-93079183D01*
X89470912Y-93087607D01*
X89483292Y-93091000D01*
X92123344Y-93091000D01*
X92136875Y-93087027D01*
X92138180Y-93077947D01*
X92096214Y-92910875D01*
X92092894Y-92901124D01*
X92007972Y-92705814D01*
X92003105Y-92696739D01*
X91887426Y-92517926D01*
X91881136Y-92509757D01*
X91764606Y-92381693D01*
X91751434Y-92354610D01*
X91742627Y-92352694D01*
X91724920Y-92340988D01*
X91563139Y-92213222D01*
X91554556Y-92207520D01*
X91517602Y-92187120D01*
X91467631Y-92136687D01*
X91452859Y-92067245D01*
X91477975Y-92000839D01*
X91505326Y-91974233D01*
X91539892Y-91949577D01*
X91606965Y-91926303D01*
X91675974Y-91942985D01*
X91702156Y-91963060D01*
X91892107Y-92153011D01*
X91909955Y-92185697D01*
X91923327Y-92189273D01*
X91946894Y-92207798D01*
X93309595Y-93570499D01*
X93343621Y-93632811D01*
X93346500Y-93659594D01*
X93346500Y-104061233D01*
X93345973Y-104072416D01*
X93344298Y-104079909D01*
X93344547Y-104087835D01*
X93344547Y-104087836D01*
X93346438Y-104147986D01*
X93346500Y-104151945D01*
X93346500Y-104179856D01*
X93346997Y-104183790D01*
X93346997Y-104183791D01*
X93347005Y-104183856D01*
X93347938Y-104195693D01*
X93349327Y-104239889D01*
X93354978Y-104259339D01*
X93358987Y-104278700D01*
X93361526Y-104298797D01*
X93364445Y-104306168D01*
X93364445Y-104306170D01*
X93377804Y-104339912D01*
X93381649Y-104351142D01*
X93393982Y-104393593D01*
X93398015Y-104400412D01*
X93398017Y-104400417D01*
X93404293Y-104411028D01*
X93412988Y-104428776D01*
X93420448Y-104447617D01*
X93425110Y-104454033D01*
X93425110Y-104454034D01*
X93446436Y-104483387D01*
X93452952Y-104493307D01*
X93470425Y-104522851D01*
X93475458Y-104531362D01*
X93489779Y-104545683D01*
X93502619Y-104560716D01*
X93514528Y-104577107D01*
X93520634Y-104582158D01*
X93548605Y-104605298D01*
X93557384Y-104613288D01*
X94746343Y-105802247D01*
X94753887Y-105810537D01*
X94758000Y-105817018D01*
X94763777Y-105822443D01*
X94807667Y-105863658D01*
X94810509Y-105866413D01*
X94830230Y-105886134D01*
X94833425Y-105888612D01*
X94842447Y-105896318D01*
X94874679Y-105926586D01*
X94881628Y-105930406D01*
X94892432Y-105936346D01*
X94908956Y-105947199D01*
X94924959Y-105959613D01*
X94965543Y-105977176D01*
X94976173Y-105982383D01*
X95014940Y-106003695D01*
X95022617Y-106005666D01*
X95022622Y-106005668D01*
X95034558Y-106008732D01*
X95053266Y-106015137D01*
X95071855Y-106023181D01*
X95079683Y-106024421D01*
X95079690Y-106024423D01*
X95115524Y-106030099D01*
X95127144Y-106032505D01*
X95158959Y-106040673D01*
X95169970Y-106043500D01*
X95190224Y-106043500D01*
X95209934Y-106045051D01*
X95229943Y-106048220D01*
X95237835Y-106047474D01*
X95256580Y-106045702D01*
X95273962Y-106044059D01*
X95285819Y-106043500D01*
X142278233Y-106043500D01*
X142289416Y-106044027D01*
X142296909Y-106045702D01*
X142304835Y-106045453D01*
X142304836Y-106045453D01*
X142364986Y-106043562D01*
X142368945Y-106043500D01*
X142396856Y-106043500D01*
X142400791Y-106043003D01*
X142400856Y-106042995D01*
X142412693Y-106042062D01*
X142444951Y-106041048D01*
X142448970Y-106040922D01*
X142456889Y-106040673D01*
X142476343Y-106035021D01*
X142495700Y-106031013D01*
X142507930Y-106029468D01*
X142507931Y-106029468D01*
X142515797Y-106028474D01*
X142523168Y-106025555D01*
X142523170Y-106025555D01*
X142556912Y-106012196D01*
X142568142Y-106008351D01*
X142602983Y-105998229D01*
X142602984Y-105998229D01*
X142610593Y-105996018D01*
X142617412Y-105991985D01*
X142617417Y-105991983D01*
X142628028Y-105985707D01*
X142645776Y-105977012D01*
X142664617Y-105969552D01*
X142684987Y-105954753D01*
X142700387Y-105943564D01*
X142710307Y-105937048D01*
X142741535Y-105918580D01*
X142741538Y-105918578D01*
X142748362Y-105914542D01*
X142762683Y-105900221D01*
X142777717Y-105887380D01*
X142779432Y-105886134D01*
X142794107Y-105875472D01*
X142822298Y-105841395D01*
X142830288Y-105832616D01*
X143980752Y-104682152D01*
X144043064Y-104648126D01*
X144102459Y-104649541D01*
X144160591Y-104665118D01*
X144160602Y-104665120D01*
X144165913Y-104666543D01*
X144394000Y-104686498D01*
X144622087Y-104666543D01*
X144627400Y-104665119D01*
X144627402Y-104665119D01*
X144837933Y-104608707D01*
X144837935Y-104608706D01*
X144843243Y-104607284D01*
X144848225Y-104604961D01*
X145045762Y-104512849D01*
X145045767Y-104512846D01*
X145050749Y-104510523D01*
X145192842Y-104411028D01*
X145233789Y-104382357D01*
X145233792Y-104382355D01*
X145238300Y-104379198D01*
X145400198Y-104217300D01*
X145415324Y-104195699D01*
X145503298Y-104070058D01*
X145531523Y-104029749D01*
X145533846Y-104024767D01*
X145533849Y-104024762D01*
X145549805Y-103990543D01*
X145596722Y-103937258D01*
X145664999Y-103917797D01*
X145732959Y-103938339D01*
X145778195Y-103990543D01*
X145794151Y-104024762D01*
X145794154Y-104024767D01*
X145796477Y-104029749D01*
X145824702Y-104070058D01*
X145912677Y-104195699D01*
X145927802Y-104217300D01*
X146089700Y-104379198D01*
X146094208Y-104382355D01*
X146094211Y-104382357D01*
X146135158Y-104411028D01*
X146277251Y-104510523D01*
X146282233Y-104512846D01*
X146282238Y-104512849D01*
X146479775Y-104604961D01*
X146484757Y-104607284D01*
X146490065Y-104608706D01*
X146490067Y-104608707D01*
X146700598Y-104665119D01*
X146700600Y-104665119D01*
X146705913Y-104666543D01*
X146934000Y-104686498D01*
X147162087Y-104666543D01*
X147167400Y-104665119D01*
X147167402Y-104665119D01*
X147377933Y-104608707D01*
X147377935Y-104608706D01*
X147383243Y-104607284D01*
X147388225Y-104604961D01*
X147585762Y-104512849D01*
X147585767Y-104512846D01*
X147590749Y-104510523D01*
X147732842Y-104411028D01*
X147773789Y-104382357D01*
X147773792Y-104382355D01*
X147778300Y-104379198D01*
X147940198Y-104217300D01*
X147955324Y-104195699D01*
X148043298Y-104070058D01*
X148071523Y-104029749D01*
X148073846Y-104024767D01*
X148073849Y-104024762D01*
X148089805Y-103990543D01*
X148136722Y-103937258D01*
X148204999Y-103917797D01*
X148272959Y-103938339D01*
X148318195Y-103990543D01*
X148334151Y-104024762D01*
X148334154Y-104024767D01*
X148336477Y-104029749D01*
X148364702Y-104070058D01*
X148452677Y-104195699D01*
X148467802Y-104217300D01*
X148629700Y-104379198D01*
X148634208Y-104382355D01*
X148634211Y-104382357D01*
X148675158Y-104411028D01*
X148817251Y-104510523D01*
X148822233Y-104512846D01*
X148822238Y-104512849D01*
X149019775Y-104604961D01*
X149024757Y-104607284D01*
X149030065Y-104608706D01*
X149030067Y-104608707D01*
X149240598Y-104665119D01*
X149240600Y-104665119D01*
X149245913Y-104666543D01*
X149474000Y-104686498D01*
X149702087Y-104666543D01*
X149707400Y-104665119D01*
X149707402Y-104665119D01*
X149917933Y-104608707D01*
X149917935Y-104608706D01*
X149923243Y-104607284D01*
X149928225Y-104604961D01*
X150125762Y-104512849D01*
X150125767Y-104512846D01*
X150130749Y-104510523D01*
X150272842Y-104411028D01*
X150313789Y-104382357D01*
X150313792Y-104382355D01*
X150318300Y-104379198D01*
X150480198Y-104217300D01*
X150495324Y-104195699D01*
X150583298Y-104070058D01*
X150611523Y-104029749D01*
X150613846Y-104024767D01*
X150613849Y-104024762D01*
X150629805Y-103990543D01*
X150676722Y-103937258D01*
X150744999Y-103917797D01*
X150812959Y-103938339D01*
X150858195Y-103990543D01*
X150874151Y-104024762D01*
X150874154Y-104024767D01*
X150876477Y-104029749D01*
X150904702Y-104070058D01*
X150992677Y-104195699D01*
X151007802Y-104217300D01*
X151169700Y-104379198D01*
X151174208Y-104382355D01*
X151174211Y-104382357D01*
X151215158Y-104411028D01*
X151357251Y-104510523D01*
X151362233Y-104512846D01*
X151362238Y-104512849D01*
X151559775Y-104604961D01*
X151564757Y-104607284D01*
X151570065Y-104608706D01*
X151570067Y-104608707D01*
X151780598Y-104665119D01*
X151780600Y-104665119D01*
X151785913Y-104666543D01*
X152014000Y-104686498D01*
X152242087Y-104666543D01*
X152247400Y-104665119D01*
X152247402Y-104665119D01*
X152457933Y-104608707D01*
X152457935Y-104608706D01*
X152463243Y-104607284D01*
X152468225Y-104604961D01*
X152665762Y-104512849D01*
X152665767Y-104512846D01*
X152670749Y-104510523D01*
X152812842Y-104411028D01*
X152853789Y-104382357D01*
X152853792Y-104382355D01*
X152858300Y-104379198D01*
X153020198Y-104217300D01*
X153035324Y-104195699D01*
X153123298Y-104070058D01*
X153151523Y-104029749D01*
X153153846Y-104024767D01*
X153153849Y-104024762D01*
X153169805Y-103990543D01*
X153216722Y-103937258D01*
X153284999Y-103917797D01*
X153352959Y-103938339D01*
X153398195Y-103990543D01*
X153414151Y-104024762D01*
X153414154Y-104024767D01*
X153416477Y-104029749D01*
X153444702Y-104070058D01*
X153532677Y-104195699D01*
X153547802Y-104217300D01*
X153709700Y-104379198D01*
X153714208Y-104382355D01*
X153714211Y-104382357D01*
X153755158Y-104411028D01*
X153897251Y-104510523D01*
X153902233Y-104512846D01*
X153902238Y-104512849D01*
X154099775Y-104604961D01*
X154104757Y-104607284D01*
X154110065Y-104608706D01*
X154110067Y-104608707D01*
X154320598Y-104665119D01*
X154320600Y-104665119D01*
X154325913Y-104666543D01*
X154554000Y-104686498D01*
X154782087Y-104666543D01*
X154787400Y-104665119D01*
X154787402Y-104665119D01*
X154997933Y-104608707D01*
X154997935Y-104608706D01*
X155003243Y-104607284D01*
X155008225Y-104604961D01*
X155205762Y-104512849D01*
X155205767Y-104512846D01*
X155210749Y-104510523D01*
X155352842Y-104411028D01*
X155393789Y-104382357D01*
X155393792Y-104382355D01*
X155398300Y-104379198D01*
X155560198Y-104217300D01*
X155575324Y-104195699D01*
X155663298Y-104070058D01*
X155691523Y-104029749D01*
X155693846Y-104024767D01*
X155693849Y-104024762D01*
X155709805Y-103990543D01*
X155756722Y-103937258D01*
X155824999Y-103917797D01*
X155892959Y-103938339D01*
X155938195Y-103990543D01*
X155954151Y-104024762D01*
X155954154Y-104024767D01*
X155956477Y-104029749D01*
X155984702Y-104070058D01*
X156072677Y-104195699D01*
X156087802Y-104217300D01*
X156249700Y-104379198D01*
X156254208Y-104382355D01*
X156254211Y-104382357D01*
X156295158Y-104411028D01*
X156437251Y-104510523D01*
X156442233Y-104512846D01*
X156442238Y-104512849D01*
X156639775Y-104604961D01*
X156644757Y-104607284D01*
X156650065Y-104608706D01*
X156650067Y-104608707D01*
X156860598Y-104665119D01*
X156860600Y-104665119D01*
X156865913Y-104666543D01*
X157094000Y-104686498D01*
X157322087Y-104666543D01*
X157327400Y-104665119D01*
X157327402Y-104665119D01*
X157537933Y-104608707D01*
X157537935Y-104608706D01*
X157543243Y-104607284D01*
X157548225Y-104604961D01*
X157745762Y-104512849D01*
X157745767Y-104512846D01*
X157750749Y-104510523D01*
X157892842Y-104411028D01*
X157933789Y-104382357D01*
X157933792Y-104382355D01*
X157938300Y-104379198D01*
X158100198Y-104217300D01*
X158115324Y-104195699D01*
X158203298Y-104070058D01*
X158231523Y-104029749D01*
X158233846Y-104024767D01*
X158233849Y-104024762D01*
X158249805Y-103990543D01*
X158296722Y-103937258D01*
X158364999Y-103917797D01*
X158432959Y-103938339D01*
X158478195Y-103990543D01*
X158494151Y-104024762D01*
X158494154Y-104024767D01*
X158496477Y-104029749D01*
X158524702Y-104070058D01*
X158612677Y-104195699D01*
X158627802Y-104217300D01*
X158789700Y-104379198D01*
X158794208Y-104382355D01*
X158794211Y-104382357D01*
X158835158Y-104411028D01*
X158977251Y-104510523D01*
X158982233Y-104512846D01*
X158982238Y-104512849D01*
X159179775Y-104604961D01*
X159184757Y-104607284D01*
X159190065Y-104608706D01*
X159190067Y-104608707D01*
X159400598Y-104665119D01*
X159400600Y-104665119D01*
X159405913Y-104666543D01*
X159634000Y-104686498D01*
X159862087Y-104666543D01*
X159867400Y-104665119D01*
X159867402Y-104665119D01*
X160077933Y-104608707D01*
X160077935Y-104608706D01*
X160083243Y-104607284D01*
X160088225Y-104604961D01*
X160285762Y-104512849D01*
X160285767Y-104512846D01*
X160290749Y-104510523D01*
X160432842Y-104411028D01*
X160473789Y-104382357D01*
X160473792Y-104382355D01*
X160478300Y-104379198D01*
X160640198Y-104217300D01*
X160655324Y-104195699D01*
X160743298Y-104070058D01*
X160771523Y-104029749D01*
X160773846Y-104024767D01*
X160773849Y-104024762D01*
X160865961Y-103827225D01*
X160865961Y-103827224D01*
X160868284Y-103822243D01*
X160895376Y-103721137D01*
X160926119Y-103606402D01*
X160926119Y-103606400D01*
X160927543Y-103601087D01*
X160947498Y-103373000D01*
X160927543Y-103144913D01*
X160908359Y-103073316D01*
X160869707Y-102929067D01*
X160869706Y-102929065D01*
X160868284Y-102923757D01*
X160778512Y-102731238D01*
X160773849Y-102721238D01*
X160773846Y-102721233D01*
X160771523Y-102716251D01*
X160645641Y-102536473D01*
X160643357Y-102533211D01*
X160643355Y-102533208D01*
X160640198Y-102528700D01*
X160478300Y-102366802D01*
X160473792Y-102363645D01*
X160473789Y-102363643D01*
X160305030Y-102245477D01*
X160290749Y-102235477D01*
X160285767Y-102233154D01*
X160285762Y-102233151D01*
X160088225Y-102141039D01*
X160088224Y-102141039D01*
X160083243Y-102138716D01*
X160077935Y-102137294D01*
X160077933Y-102137293D01*
X159867402Y-102080881D01*
X159867400Y-102080881D01*
X159862087Y-102079457D01*
X159634000Y-102059502D01*
X159405913Y-102079457D01*
X159400600Y-102080881D01*
X159400598Y-102080881D01*
X159190067Y-102137293D01*
X159190065Y-102137294D01*
X159184757Y-102138716D01*
X159179776Y-102141039D01*
X159179775Y-102141039D01*
X158982238Y-102233151D01*
X158982233Y-102233154D01*
X158977251Y-102235477D01*
X158962970Y-102245477D01*
X158794211Y-102363643D01*
X158794208Y-102363645D01*
X158789700Y-102366802D01*
X158627802Y-102528700D01*
X158624645Y-102533208D01*
X158624643Y-102533211D01*
X158622359Y-102536473D01*
X158496477Y-102716251D01*
X158494154Y-102721233D01*
X158494151Y-102721238D01*
X158478195Y-102755457D01*
X158431278Y-102808742D01*
X158363001Y-102828203D01*
X158295041Y-102807661D01*
X158249805Y-102755457D01*
X158233849Y-102721238D01*
X158233846Y-102721233D01*
X158231523Y-102716251D01*
X158105641Y-102536473D01*
X158103357Y-102533211D01*
X158103355Y-102533208D01*
X158100198Y-102528700D01*
X157938300Y-102366802D01*
X157933792Y-102363645D01*
X157933789Y-102363643D01*
X157765030Y-102245477D01*
X157750749Y-102235477D01*
X157745767Y-102233154D01*
X157745762Y-102233151D01*
X157548225Y-102141039D01*
X157548224Y-102141039D01*
X157543243Y-102138716D01*
X157537935Y-102137294D01*
X157537933Y-102137293D01*
X157327402Y-102080881D01*
X157327400Y-102080881D01*
X157322087Y-102079457D01*
X157094000Y-102059502D01*
X156865913Y-102079457D01*
X156860600Y-102080881D01*
X156860598Y-102080881D01*
X156650067Y-102137293D01*
X156650065Y-102137294D01*
X156644757Y-102138716D01*
X156639776Y-102141039D01*
X156639775Y-102141039D01*
X156442238Y-102233151D01*
X156442233Y-102233154D01*
X156437251Y-102235477D01*
X156422970Y-102245477D01*
X156254211Y-102363643D01*
X156254208Y-102363645D01*
X156249700Y-102366802D01*
X156087802Y-102528700D01*
X156084645Y-102533208D01*
X156084643Y-102533211D01*
X156082359Y-102536473D01*
X155956477Y-102716251D01*
X155954154Y-102721233D01*
X155954151Y-102721238D01*
X155938195Y-102755457D01*
X155891278Y-102808742D01*
X155823001Y-102828203D01*
X155755041Y-102807661D01*
X155709805Y-102755457D01*
X155693849Y-102721238D01*
X155693846Y-102721233D01*
X155691523Y-102716251D01*
X155565641Y-102536473D01*
X155563357Y-102533211D01*
X155563355Y-102533208D01*
X155560198Y-102528700D01*
X155398300Y-102366802D01*
X155393792Y-102363645D01*
X155393789Y-102363643D01*
X155225030Y-102245477D01*
X155210749Y-102235477D01*
X155205767Y-102233154D01*
X155205762Y-102233151D01*
X155008225Y-102141039D01*
X155008224Y-102141039D01*
X155003243Y-102138716D01*
X154997935Y-102137294D01*
X154997933Y-102137293D01*
X154787402Y-102080881D01*
X154787400Y-102080881D01*
X154782087Y-102079457D01*
X154554000Y-102059502D01*
X154325913Y-102079457D01*
X154320600Y-102080881D01*
X154320598Y-102080881D01*
X154110067Y-102137293D01*
X154110065Y-102137294D01*
X154104757Y-102138716D01*
X154099776Y-102141039D01*
X154099775Y-102141039D01*
X153902238Y-102233151D01*
X153902233Y-102233154D01*
X153897251Y-102235477D01*
X153882970Y-102245477D01*
X153714211Y-102363643D01*
X153714208Y-102363645D01*
X153709700Y-102366802D01*
X153547802Y-102528700D01*
X153544645Y-102533208D01*
X153544643Y-102533211D01*
X153542359Y-102536473D01*
X153416477Y-102716251D01*
X153414154Y-102721233D01*
X153414151Y-102721238D01*
X153398195Y-102755457D01*
X153351278Y-102808742D01*
X153283001Y-102828203D01*
X153215041Y-102807661D01*
X153169805Y-102755457D01*
X153153849Y-102721238D01*
X153153846Y-102721233D01*
X153151523Y-102716251D01*
X153025641Y-102536473D01*
X153023357Y-102533211D01*
X153023355Y-102533208D01*
X153020198Y-102528700D01*
X152858300Y-102366802D01*
X152853792Y-102363645D01*
X152853789Y-102363643D01*
X152685030Y-102245477D01*
X152670749Y-102235477D01*
X152665767Y-102233154D01*
X152665762Y-102233151D01*
X152468225Y-102141039D01*
X152468224Y-102141039D01*
X152463243Y-102138716D01*
X152457935Y-102137294D01*
X152457933Y-102137293D01*
X152247402Y-102080881D01*
X152247400Y-102080881D01*
X152242087Y-102079457D01*
X152014000Y-102059502D01*
X151785913Y-102079457D01*
X151780602Y-102080880D01*
X151780591Y-102080882D01*
X151722459Y-102096459D01*
X151651483Y-102094770D01*
X151600752Y-102063848D01*
X149540116Y-100003211D01*
X147447652Y-97910747D01*
X147440112Y-97902461D01*
X147436000Y-97895982D01*
X147386348Y-97849356D01*
X147383507Y-97846602D01*
X147363770Y-97826865D01*
X147360573Y-97824385D01*
X147351551Y-97816680D01*
X147325100Y-97791841D01*
X147319321Y-97786414D01*
X147312375Y-97782595D01*
X147312372Y-97782593D01*
X147301566Y-97776652D01*
X147285047Y-97765801D01*
X147284583Y-97765441D01*
X147269041Y-97753386D01*
X147261772Y-97750241D01*
X147261768Y-97750238D01*
X147228463Y-97735826D01*
X147217813Y-97730609D01*
X147179060Y-97709305D01*
X147159437Y-97704267D01*
X147140734Y-97697863D01*
X147129420Y-97692967D01*
X147129419Y-97692967D01*
X147122145Y-97689819D01*
X147114322Y-97688580D01*
X147114312Y-97688577D01*
X147078476Y-97682901D01*
X147066856Y-97680495D01*
X147031711Y-97671472D01*
X147031710Y-97671472D01*
X147024030Y-97669500D01*
X147003776Y-97669500D01*
X146984065Y-97667949D01*
X146971886Y-97666020D01*
X146964057Y-97664780D01*
X146956165Y-97665526D01*
X146920039Y-97668941D01*
X146908181Y-97669500D01*
X108767594Y-97669500D01*
X108699473Y-97649498D01*
X108678503Y-97632599D01*
X107701641Y-96655736D01*
X107694112Y-96647462D01*
X107690000Y-96640982D01*
X107640348Y-96594356D01*
X107637507Y-96591602D01*
X107617770Y-96571865D01*
X107614573Y-96569385D01*
X107605551Y-96561680D01*
X107579100Y-96536841D01*
X107573321Y-96531414D01*
X107566375Y-96527595D01*
X107566372Y-96527593D01*
X107555566Y-96521652D01*
X107539047Y-96510801D01*
X107538583Y-96510441D01*
X107523041Y-96498386D01*
X107515772Y-96495241D01*
X107515768Y-96495238D01*
X107482463Y-96480826D01*
X107471813Y-96475609D01*
X107433060Y-96454305D01*
X107413437Y-96449267D01*
X107394734Y-96442863D01*
X107383420Y-96437967D01*
X107383419Y-96437967D01*
X107376145Y-96434819D01*
X107368322Y-96433580D01*
X107368312Y-96433577D01*
X107332476Y-96427901D01*
X107320856Y-96425495D01*
X107285711Y-96416472D01*
X107285710Y-96416472D01*
X107278030Y-96414500D01*
X107257776Y-96414500D01*
X107238065Y-96412949D01*
X107225886Y-96411020D01*
X107218057Y-96409780D01*
X107210165Y-96410526D01*
X107174039Y-96413941D01*
X107162181Y-96414500D01*
X105152776Y-96414500D01*
X105084655Y-96394498D01*
X105038162Y-96340842D01*
X105031069Y-96321111D01*
X104999708Y-96204071D01*
X104999708Y-96204070D01*
X104998284Y-96198757D01*
X104903925Y-95996402D01*
X104903849Y-95996238D01*
X104903846Y-95996233D01*
X104901523Y-95991251D01*
X104770198Y-95803700D01*
X104729498Y-95763000D01*
X108870502Y-95763000D01*
X108890457Y-95991087D01*
X108891881Y-95996400D01*
X108891881Y-95996402D01*
X108944767Y-96193772D01*
X108949716Y-96212243D01*
X108952039Y-96217224D01*
X108952039Y-96217225D01*
X109044151Y-96414762D01*
X109044154Y-96414767D01*
X109046477Y-96419749D01*
X109114488Y-96516879D01*
X109166300Y-96590873D01*
X109177802Y-96607300D01*
X109339700Y-96769198D01*
X109344208Y-96772355D01*
X109344211Y-96772357D01*
X109422389Y-96827098D01*
X109527251Y-96900523D01*
X109532233Y-96902846D01*
X109532238Y-96902849D01*
X109728765Y-96994490D01*
X109734757Y-96997284D01*
X109740065Y-96998706D01*
X109740067Y-96998707D01*
X109950598Y-97055119D01*
X109950600Y-97055119D01*
X109955913Y-97056543D01*
X110184000Y-97076498D01*
X110412087Y-97056543D01*
X110417400Y-97055119D01*
X110417402Y-97055119D01*
X110627933Y-96998707D01*
X110627935Y-96998706D01*
X110633243Y-96997284D01*
X110639235Y-96994490D01*
X110835762Y-96902849D01*
X110835767Y-96902846D01*
X110840749Y-96900523D01*
X110914243Y-96849062D01*
X114462493Y-96849062D01*
X114471789Y-96861077D01*
X114522994Y-96896931D01*
X114532489Y-96902414D01*
X114729947Y-96994490D01*
X114740239Y-96998236D01*
X114950688Y-97054625D01*
X114961481Y-97056528D01*
X115178525Y-97075517D01*
X115189475Y-97075517D01*
X115406519Y-97056528D01*
X115417312Y-97054625D01*
X115627761Y-96998236D01*
X115638053Y-96994490D01*
X115835511Y-96902414D01*
X115845006Y-96896931D01*
X115897048Y-96860491D01*
X115905424Y-96850012D01*
X115898356Y-96836566D01*
X115196812Y-96135022D01*
X115182868Y-96127408D01*
X115181035Y-96127539D01*
X115174420Y-96131790D01*
X114468923Y-96837287D01*
X114462493Y-96849062D01*
X110914243Y-96849062D01*
X110945611Y-96827098D01*
X111023789Y-96772357D01*
X111023792Y-96772355D01*
X111028300Y-96769198D01*
X111190198Y-96607300D01*
X111201701Y-96590873D01*
X111253512Y-96516879D01*
X111321523Y-96419749D01*
X111323846Y-96414767D01*
X111323849Y-96414762D01*
X111415961Y-96217225D01*
X111415961Y-96217224D01*
X111418284Y-96212243D01*
X111423234Y-96193772D01*
X111476119Y-95996402D01*
X111476119Y-95996400D01*
X111477543Y-95991087D01*
X111497019Y-95768475D01*
X113871483Y-95768475D01*
X113890472Y-95985519D01*
X113892375Y-95996312D01*
X113948764Y-96206761D01*
X113952510Y-96217053D01*
X114044586Y-96414511D01*
X114050069Y-96424006D01*
X114086509Y-96476048D01*
X114096988Y-96484424D01*
X114110434Y-96477356D01*
X114811978Y-95775812D01*
X114818356Y-95764132D01*
X115548408Y-95764132D01*
X115548539Y-95765965D01*
X115552790Y-95772580D01*
X116258287Y-96478077D01*
X116270062Y-96484507D01*
X116282077Y-96475211D01*
X116317931Y-96424006D01*
X116323414Y-96414511D01*
X116415490Y-96217053D01*
X116419236Y-96206761D01*
X116475625Y-95996312D01*
X116477528Y-95985519D01*
X116496517Y-95768475D01*
X116496517Y-95757525D01*
X116477528Y-95540481D01*
X116475625Y-95529688D01*
X116419236Y-95319239D01*
X116415490Y-95308947D01*
X116323414Y-95111489D01*
X116317931Y-95101994D01*
X116281491Y-95049952D01*
X116271012Y-95041576D01*
X116257566Y-95048644D01*
X115556022Y-95750188D01*
X115548408Y-95764132D01*
X114818356Y-95764132D01*
X114819592Y-95761868D01*
X114819461Y-95760035D01*
X114815210Y-95753420D01*
X114109713Y-95047923D01*
X114097938Y-95041493D01*
X114085923Y-95050789D01*
X114050069Y-95101994D01*
X114044586Y-95111489D01*
X113952510Y-95308947D01*
X113948764Y-95319239D01*
X113892375Y-95529688D01*
X113890472Y-95540481D01*
X113871483Y-95757525D01*
X113871483Y-95768475D01*
X111497019Y-95768475D01*
X111497498Y-95763000D01*
X111477543Y-95534913D01*
X111471841Y-95513634D01*
X111419707Y-95319067D01*
X111419706Y-95319065D01*
X111418284Y-95313757D01*
X111364885Y-95199242D01*
X111323849Y-95111238D01*
X111323846Y-95111233D01*
X111321523Y-95106251D01*
X111226888Y-94971098D01*
X111193357Y-94923211D01*
X111193355Y-94923208D01*
X111190198Y-94918700D01*
X111028300Y-94756802D01*
X111023792Y-94753645D01*
X111023789Y-94753643D01*
X110912886Y-94675988D01*
X114462576Y-94675988D01*
X114469644Y-94689434D01*
X115171188Y-95390978D01*
X115185132Y-95398592D01*
X115186965Y-95398461D01*
X115193580Y-95394210D01*
X115899077Y-94688713D01*
X115905507Y-94676938D01*
X115896211Y-94664923D01*
X115845006Y-94629069D01*
X115835511Y-94623586D01*
X115638053Y-94531510D01*
X115627761Y-94527764D01*
X115417312Y-94471375D01*
X115406519Y-94469472D01*
X115189475Y-94450483D01*
X115178525Y-94450483D01*
X114961481Y-94469472D01*
X114950688Y-94471375D01*
X114740239Y-94527764D01*
X114729947Y-94531510D01*
X114532489Y-94623586D01*
X114522994Y-94629069D01*
X114470952Y-94665509D01*
X114462576Y-94675988D01*
X110912886Y-94675988D01*
X110897920Y-94665509D01*
X110840749Y-94625477D01*
X110835767Y-94623154D01*
X110835762Y-94623151D01*
X110638225Y-94531039D01*
X110638224Y-94531039D01*
X110633243Y-94528716D01*
X110627935Y-94527294D01*
X110627933Y-94527293D01*
X110417402Y-94470881D01*
X110417400Y-94470881D01*
X110412087Y-94469457D01*
X110184000Y-94449502D01*
X109955913Y-94469457D01*
X109950600Y-94470881D01*
X109950598Y-94470881D01*
X109740067Y-94527293D01*
X109740065Y-94527294D01*
X109734757Y-94528716D01*
X109729776Y-94531039D01*
X109729775Y-94531039D01*
X109532238Y-94623151D01*
X109532233Y-94623154D01*
X109527251Y-94625477D01*
X109470080Y-94665509D01*
X109344211Y-94753643D01*
X109344208Y-94753645D01*
X109339700Y-94756802D01*
X109177802Y-94918700D01*
X109174645Y-94923208D01*
X109174643Y-94923211D01*
X109141112Y-94971098D01*
X109046477Y-95106251D01*
X109044154Y-95111233D01*
X109044151Y-95111238D01*
X109003115Y-95199242D01*
X108949716Y-95313757D01*
X108948294Y-95319065D01*
X108948293Y-95319067D01*
X108896159Y-95513634D01*
X108890457Y-95534913D01*
X108870502Y-95763000D01*
X104729498Y-95763000D01*
X104608300Y-95641802D01*
X104603792Y-95638645D01*
X104603789Y-95638643D01*
X104448185Y-95529688D01*
X104420749Y-95510477D01*
X104415767Y-95508154D01*
X104415762Y-95508151D01*
X104218225Y-95416039D01*
X104218224Y-95416039D01*
X104213243Y-95413716D01*
X104207935Y-95412294D01*
X104207933Y-95412293D01*
X104128384Y-95390978D01*
X104052140Y-95370548D01*
X103991518Y-95333597D01*
X103960497Y-95269737D01*
X103968925Y-95199242D01*
X103995657Y-95159747D01*
X106404999Y-92750405D01*
X106467311Y-92716379D01*
X106494094Y-92713500D01*
X145448233Y-92713500D01*
X145459416Y-92714027D01*
X145466909Y-92715702D01*
X145474835Y-92715453D01*
X145474836Y-92715453D01*
X145534986Y-92713562D01*
X145538945Y-92713500D01*
X145566856Y-92713500D01*
X145570791Y-92713003D01*
X145570856Y-92712995D01*
X145582693Y-92712062D01*
X145614951Y-92711048D01*
X145618970Y-92710922D01*
X145626889Y-92710673D01*
X145646343Y-92705021D01*
X145665700Y-92701013D01*
X145677930Y-92699468D01*
X145677931Y-92699468D01*
X145685797Y-92698474D01*
X145693168Y-92695555D01*
X145693170Y-92695555D01*
X145726912Y-92682196D01*
X145738142Y-92678351D01*
X145772983Y-92668229D01*
X145772984Y-92668229D01*
X145780593Y-92666018D01*
X145787412Y-92661985D01*
X145787417Y-92661983D01*
X145798028Y-92655707D01*
X145815776Y-92647012D01*
X145834617Y-92639552D01*
X145870387Y-92613564D01*
X145880307Y-92607048D01*
X145911535Y-92588580D01*
X145911538Y-92588578D01*
X145918362Y-92584542D01*
X145932683Y-92570221D01*
X145947717Y-92557380D01*
X145953703Y-92553031D01*
X145964107Y-92545472D01*
X145992298Y-92511395D01*
X146000288Y-92502616D01*
X149060752Y-89442152D01*
X149123064Y-89408126D01*
X149182459Y-89409541D01*
X149240591Y-89425118D01*
X149240602Y-89425120D01*
X149245913Y-89426543D01*
X149474000Y-89446498D01*
X149702087Y-89426543D01*
X149707400Y-89425119D01*
X149707402Y-89425119D01*
X149917933Y-89368707D01*
X149917935Y-89368706D01*
X149923243Y-89367284D01*
X149929235Y-89364490D01*
X150125762Y-89272849D01*
X150125767Y-89272846D01*
X150130749Y-89270523D01*
X150288996Y-89159717D01*
X150313789Y-89142357D01*
X150313792Y-89142355D01*
X150318300Y-89139198D01*
X150480198Y-88977300D01*
X150484699Y-88970873D01*
X150604406Y-88799913D01*
X150611523Y-88789749D01*
X150613846Y-88784767D01*
X150613849Y-88784762D01*
X150629805Y-88750543D01*
X150676722Y-88697258D01*
X150744999Y-88677797D01*
X150812959Y-88698339D01*
X150858195Y-88750543D01*
X150874151Y-88784762D01*
X150874154Y-88784767D01*
X150876477Y-88789749D01*
X150883594Y-88799913D01*
X151003302Y-88970873D01*
X151007802Y-88977300D01*
X151169700Y-89139198D01*
X151174208Y-89142355D01*
X151174211Y-89142357D01*
X151199004Y-89159717D01*
X151357251Y-89270523D01*
X151362233Y-89272846D01*
X151362238Y-89272849D01*
X151558765Y-89364490D01*
X151564757Y-89367284D01*
X151570065Y-89368706D01*
X151570067Y-89368707D01*
X151780598Y-89425119D01*
X151780600Y-89425119D01*
X151785913Y-89426543D01*
X152014000Y-89446498D01*
X152242087Y-89426543D01*
X152247400Y-89425119D01*
X152247402Y-89425119D01*
X152457933Y-89368707D01*
X152457935Y-89368706D01*
X152463243Y-89367284D01*
X152469235Y-89364490D01*
X152665762Y-89272849D01*
X152665767Y-89272846D01*
X152670749Y-89270523D01*
X152828996Y-89159717D01*
X152853789Y-89142357D01*
X152853792Y-89142355D01*
X152858300Y-89139198D01*
X153020198Y-88977300D01*
X153024699Y-88970873D01*
X153144406Y-88799913D01*
X153151523Y-88789749D01*
X153153846Y-88784767D01*
X153153849Y-88784762D01*
X153169805Y-88750543D01*
X153216722Y-88697258D01*
X153284999Y-88677797D01*
X153352959Y-88698339D01*
X153398195Y-88750543D01*
X153414151Y-88784762D01*
X153414154Y-88784767D01*
X153416477Y-88789749D01*
X153423594Y-88799913D01*
X153543302Y-88970873D01*
X153547802Y-88977300D01*
X153709700Y-89139198D01*
X153714208Y-89142355D01*
X153714211Y-89142357D01*
X153739004Y-89159717D01*
X153897251Y-89270523D01*
X153902233Y-89272846D01*
X153902238Y-89272849D01*
X154098765Y-89364490D01*
X154104757Y-89367284D01*
X154110065Y-89368706D01*
X154110067Y-89368707D01*
X154320598Y-89425119D01*
X154320600Y-89425119D01*
X154325913Y-89426543D01*
X154554000Y-89446498D01*
X154782087Y-89426543D01*
X154787400Y-89425119D01*
X154787402Y-89425119D01*
X154997933Y-89368707D01*
X154997935Y-89368706D01*
X155003243Y-89367284D01*
X155009235Y-89364490D01*
X155205762Y-89272849D01*
X155205767Y-89272846D01*
X155210749Y-89270523D01*
X155368996Y-89159717D01*
X155393789Y-89142357D01*
X155393792Y-89142355D01*
X155398300Y-89139198D01*
X155560198Y-88977300D01*
X155564699Y-88970873D01*
X155684406Y-88799913D01*
X155691523Y-88789749D01*
X155693846Y-88784767D01*
X155693849Y-88784762D01*
X155709805Y-88750543D01*
X155756722Y-88697258D01*
X155824999Y-88677797D01*
X155892959Y-88698339D01*
X155938195Y-88750543D01*
X155954151Y-88784762D01*
X155954154Y-88784767D01*
X155956477Y-88789749D01*
X155963594Y-88799913D01*
X156083302Y-88970873D01*
X156087802Y-88977300D01*
X156249700Y-89139198D01*
X156254208Y-89142355D01*
X156254211Y-89142357D01*
X156279004Y-89159717D01*
X156437251Y-89270523D01*
X156442233Y-89272846D01*
X156442238Y-89272849D01*
X156638765Y-89364490D01*
X156644757Y-89367284D01*
X156650065Y-89368706D01*
X156650067Y-89368707D01*
X156860598Y-89425119D01*
X156860600Y-89425119D01*
X156865913Y-89426543D01*
X157094000Y-89446498D01*
X157322087Y-89426543D01*
X157327400Y-89425119D01*
X157327402Y-89425119D01*
X157537933Y-89368707D01*
X157537935Y-89368706D01*
X157543243Y-89367284D01*
X157549235Y-89364490D01*
X157745762Y-89272849D01*
X157745767Y-89272846D01*
X157750749Y-89270523D01*
X157908996Y-89159717D01*
X157933789Y-89142357D01*
X157933792Y-89142355D01*
X157938300Y-89139198D01*
X158100198Y-88977300D01*
X158104699Y-88970873D01*
X158224406Y-88799913D01*
X158231523Y-88789749D01*
X158233846Y-88784767D01*
X158233849Y-88784762D01*
X158249805Y-88750543D01*
X158296722Y-88697258D01*
X158364999Y-88677797D01*
X158432959Y-88698339D01*
X158478195Y-88750543D01*
X158494151Y-88784762D01*
X158494154Y-88784767D01*
X158496477Y-88789749D01*
X158503594Y-88799913D01*
X158623302Y-88970873D01*
X158627802Y-88977300D01*
X158789700Y-89139198D01*
X158794208Y-89142355D01*
X158794211Y-89142357D01*
X158819004Y-89159717D01*
X158977251Y-89270523D01*
X158982233Y-89272846D01*
X158982238Y-89272849D01*
X159178765Y-89364490D01*
X159184757Y-89367284D01*
X159190065Y-89368706D01*
X159190067Y-89368707D01*
X159400598Y-89425119D01*
X159400600Y-89425119D01*
X159405913Y-89426543D01*
X159634000Y-89446498D01*
X159862087Y-89426543D01*
X159867400Y-89425119D01*
X159867402Y-89425119D01*
X160077933Y-89368707D01*
X160077935Y-89368706D01*
X160083243Y-89367284D01*
X160089235Y-89364490D01*
X160285762Y-89272849D01*
X160285767Y-89272846D01*
X160290749Y-89270523D01*
X160448996Y-89159717D01*
X160473789Y-89142357D01*
X160473792Y-89142355D01*
X160478300Y-89139198D01*
X160640198Y-88977300D01*
X160644699Y-88970873D01*
X160764406Y-88799913D01*
X160771523Y-88789749D01*
X160773846Y-88784767D01*
X160773849Y-88784762D01*
X160865961Y-88587225D01*
X160865961Y-88587224D01*
X160868284Y-88582243D01*
X160900037Y-88463742D01*
X160926119Y-88366402D01*
X160926119Y-88366400D01*
X160927543Y-88361087D01*
X160947498Y-88133000D01*
X160927543Y-87904913D01*
X160923052Y-87888151D01*
X160869707Y-87689067D01*
X160869706Y-87689065D01*
X160868284Y-87683757D01*
X160865961Y-87678775D01*
X160773849Y-87481238D01*
X160773846Y-87481233D01*
X160771523Y-87476251D01*
X160651390Y-87304684D01*
X160643357Y-87293211D01*
X160643355Y-87293208D01*
X160640198Y-87288700D01*
X160478300Y-87126802D01*
X160473792Y-87123645D01*
X160473789Y-87123643D01*
X160321228Y-87016819D01*
X160290749Y-86995477D01*
X160285767Y-86993154D01*
X160285762Y-86993151D01*
X160088225Y-86901039D01*
X160088224Y-86901039D01*
X160083243Y-86898716D01*
X160077935Y-86897294D01*
X160077933Y-86897293D01*
X159867402Y-86840881D01*
X159867400Y-86840881D01*
X159862087Y-86839457D01*
X159634000Y-86819502D01*
X159405913Y-86839457D01*
X159400602Y-86840880D01*
X159400591Y-86840882D01*
X159342459Y-86856459D01*
X159271483Y-86854770D01*
X159220752Y-86823848D01*
X157800003Y-85403098D01*
X156337652Y-83940747D01*
X156330112Y-83932461D01*
X156326000Y-83925982D01*
X156310256Y-83911197D01*
X156276349Y-83879357D01*
X156273507Y-83876602D01*
X156253770Y-83856865D01*
X156250573Y-83854385D01*
X156241551Y-83846680D01*
X156215100Y-83821841D01*
X156209321Y-83816414D01*
X156202375Y-83812595D01*
X156202372Y-83812593D01*
X156191566Y-83806652D01*
X156175047Y-83795801D01*
X156169048Y-83791148D01*
X156159041Y-83783386D01*
X156151772Y-83780241D01*
X156151768Y-83780238D01*
X156118463Y-83765826D01*
X156107813Y-83760609D01*
X156069060Y-83739305D01*
X156049437Y-83734267D01*
X156030734Y-83727863D01*
X156019420Y-83722967D01*
X156019419Y-83722967D01*
X156012145Y-83719819D01*
X156004322Y-83718580D01*
X156004312Y-83718577D01*
X155968476Y-83712901D01*
X155956856Y-83710495D01*
X155921711Y-83701472D01*
X155921710Y-83701472D01*
X155914030Y-83699500D01*
X155893776Y-83699500D01*
X155874065Y-83697949D01*
X155861886Y-83696020D01*
X155854057Y-83694780D01*
X155846165Y-83695526D01*
X155810039Y-83698941D01*
X155798181Y-83699500D01*
X150182200Y-83699500D01*
X150114079Y-83679498D01*
X150094853Y-83663157D01*
X150094580Y-83663460D01*
X150089668Y-83659037D01*
X150085253Y-83654134D01*
X149930752Y-83541882D01*
X149924724Y-83539198D01*
X149924722Y-83539197D01*
X149762319Y-83466891D01*
X149762318Y-83466891D01*
X149756288Y-83464206D01*
X149662887Y-83444353D01*
X149575944Y-83425872D01*
X149575939Y-83425872D01*
X149569487Y-83424500D01*
X149378513Y-83424500D01*
X149372061Y-83425872D01*
X149372056Y-83425872D01*
X149285113Y-83444353D01*
X149191712Y-83464206D01*
X149185682Y-83466891D01*
X149185681Y-83466891D01*
X149023278Y-83539197D01*
X149023276Y-83539198D01*
X149017248Y-83541882D01*
X148862747Y-83654134D01*
X148858326Y-83659044D01*
X148858325Y-83659045D01*
X148749203Y-83780238D01*
X148734960Y-83796056D01*
X148639473Y-83961444D01*
X148580458Y-84143072D01*
X148579768Y-84149633D01*
X148579768Y-84149635D01*
X148574420Y-84200523D01*
X148560496Y-84333000D01*
X148561186Y-84339565D01*
X148579268Y-84511602D01*
X148580458Y-84522928D01*
X148639473Y-84704556D01*
X148734960Y-84869944D01*
X148739378Y-84874851D01*
X148739379Y-84874852D01*
X148825905Y-84970949D01*
X148862747Y-85011866D01*
X148961843Y-85083864D01*
X148999193Y-85111000D01*
X149017248Y-85124118D01*
X149023276Y-85126802D01*
X149023278Y-85126803D01*
X149181656Y-85197317D01*
X149191712Y-85201794D01*
X149270133Y-85218463D01*
X149372056Y-85240128D01*
X149372061Y-85240128D01*
X149378513Y-85241500D01*
X149569487Y-85241500D01*
X149575939Y-85240128D01*
X149575944Y-85240128D01*
X149677867Y-85218463D01*
X149756288Y-85201794D01*
X149766344Y-85197317D01*
X149924722Y-85126803D01*
X149924724Y-85126802D01*
X149930752Y-85124118D01*
X149948808Y-85111000D01*
X150063671Y-85027546D01*
X150085253Y-85011866D01*
X150089668Y-85006963D01*
X150094580Y-85002540D01*
X150095705Y-85003789D01*
X150149014Y-84970949D01*
X150182200Y-84966500D01*
X155519406Y-84966500D01*
X155587527Y-84986502D01*
X155608501Y-85003405D01*
X157211507Y-86606411D01*
X157245533Y-86668723D01*
X157240468Y-86739538D01*
X157197921Y-86796374D01*
X157131401Y-86821185D01*
X157111430Y-86821026D01*
X157099486Y-86819981D01*
X157099475Y-86819981D01*
X157094000Y-86819502D01*
X156865913Y-86839457D01*
X156860600Y-86840881D01*
X156860598Y-86840881D01*
X156650067Y-86897293D01*
X156650065Y-86897294D01*
X156644757Y-86898716D01*
X156639776Y-86901039D01*
X156639775Y-86901039D01*
X156442238Y-86993151D01*
X156442233Y-86993154D01*
X156437251Y-86995477D01*
X156406772Y-87016819D01*
X156254211Y-87123643D01*
X156254208Y-87123645D01*
X156249700Y-87126802D01*
X156087802Y-87288700D01*
X156084645Y-87293208D01*
X156084643Y-87293211D01*
X156076610Y-87304684D01*
X155956477Y-87476251D01*
X155954154Y-87481233D01*
X155954151Y-87481238D01*
X155938195Y-87515457D01*
X155891278Y-87568742D01*
X155823001Y-87588203D01*
X155755041Y-87567661D01*
X155709805Y-87515457D01*
X155693849Y-87481238D01*
X155693846Y-87481233D01*
X155691523Y-87476251D01*
X155571390Y-87304684D01*
X155563357Y-87293211D01*
X155563355Y-87293208D01*
X155560198Y-87288700D01*
X155398300Y-87126802D01*
X155393792Y-87123645D01*
X155393789Y-87123643D01*
X155241228Y-87016819D01*
X155210749Y-86995477D01*
X155205767Y-86993154D01*
X155205762Y-86993151D01*
X155008225Y-86901039D01*
X155008224Y-86901039D01*
X155003243Y-86898716D01*
X154997935Y-86897294D01*
X154997933Y-86897293D01*
X154787402Y-86840881D01*
X154787400Y-86840881D01*
X154782087Y-86839457D01*
X154554000Y-86819502D01*
X154325913Y-86839457D01*
X154320600Y-86840881D01*
X154320598Y-86840881D01*
X154110067Y-86897293D01*
X154110065Y-86897294D01*
X154104757Y-86898716D01*
X154099776Y-86901039D01*
X154099775Y-86901039D01*
X153902238Y-86993151D01*
X153902233Y-86993154D01*
X153897251Y-86995477D01*
X153866772Y-87016819D01*
X153714211Y-87123643D01*
X153714208Y-87123645D01*
X153709700Y-87126802D01*
X153547802Y-87288700D01*
X153544645Y-87293208D01*
X153544643Y-87293211D01*
X153536610Y-87304684D01*
X153416477Y-87476251D01*
X153414154Y-87481233D01*
X153414151Y-87481238D01*
X153398195Y-87515457D01*
X153351278Y-87568742D01*
X153283001Y-87588203D01*
X153215041Y-87567661D01*
X153169805Y-87515457D01*
X153153849Y-87481238D01*
X153153846Y-87481233D01*
X153151523Y-87476251D01*
X153031390Y-87304684D01*
X153023357Y-87293211D01*
X153023355Y-87293208D01*
X153020198Y-87288700D01*
X152858300Y-87126802D01*
X152853792Y-87123645D01*
X152853789Y-87123643D01*
X152701228Y-87016819D01*
X152670749Y-86995477D01*
X152665767Y-86993154D01*
X152665762Y-86993151D01*
X152468225Y-86901039D01*
X152468224Y-86901039D01*
X152463243Y-86898716D01*
X152457935Y-86897294D01*
X152457933Y-86897293D01*
X152247402Y-86840881D01*
X152247400Y-86840881D01*
X152242087Y-86839457D01*
X152014000Y-86819502D01*
X151785913Y-86839457D01*
X151780600Y-86840881D01*
X151780598Y-86840881D01*
X151570067Y-86897293D01*
X151570065Y-86897294D01*
X151564757Y-86898716D01*
X151559776Y-86901039D01*
X151559775Y-86901039D01*
X151362238Y-86993151D01*
X151362233Y-86993154D01*
X151357251Y-86995477D01*
X151326772Y-87016819D01*
X151174211Y-87123643D01*
X151174208Y-87123645D01*
X151169700Y-87126802D01*
X151007802Y-87288700D01*
X151004645Y-87293208D01*
X151004643Y-87293211D01*
X150996610Y-87304684D01*
X150876477Y-87476251D01*
X150874154Y-87481233D01*
X150874151Y-87481238D01*
X150858195Y-87515457D01*
X150811278Y-87568742D01*
X150743001Y-87588203D01*
X150675041Y-87567661D01*
X150629805Y-87515457D01*
X150613849Y-87481238D01*
X150613846Y-87481233D01*
X150611523Y-87476251D01*
X150491390Y-87304684D01*
X150483357Y-87293211D01*
X150483355Y-87293208D01*
X150480198Y-87288700D01*
X150318300Y-87126802D01*
X150313792Y-87123645D01*
X150313789Y-87123643D01*
X150161228Y-87016819D01*
X150130749Y-86995477D01*
X150125767Y-86993154D01*
X150125762Y-86993151D01*
X149928225Y-86901039D01*
X149928224Y-86901039D01*
X149923243Y-86898716D01*
X149917935Y-86897294D01*
X149917933Y-86897293D01*
X149707402Y-86840881D01*
X149707400Y-86840881D01*
X149702087Y-86839457D01*
X149474000Y-86819502D01*
X149245913Y-86839457D01*
X149240600Y-86840881D01*
X149240598Y-86840881D01*
X149030067Y-86897293D01*
X149030065Y-86897294D01*
X149024757Y-86898716D01*
X149019776Y-86901039D01*
X149019775Y-86901039D01*
X148822238Y-86993151D01*
X148822233Y-86993154D01*
X148817251Y-86995477D01*
X148786772Y-87016819D01*
X148634211Y-87123643D01*
X148634208Y-87123645D01*
X148629700Y-87126802D01*
X148467802Y-87288700D01*
X148464645Y-87293208D01*
X148464643Y-87293211D01*
X148456610Y-87304684D01*
X148336477Y-87476251D01*
X148334154Y-87481233D01*
X148334151Y-87481238D01*
X148318195Y-87515457D01*
X148271278Y-87568742D01*
X148203001Y-87588203D01*
X148135041Y-87567661D01*
X148089805Y-87515457D01*
X148073849Y-87481238D01*
X148073846Y-87481233D01*
X148071523Y-87476251D01*
X147951390Y-87304684D01*
X147943357Y-87293211D01*
X147943355Y-87293208D01*
X147940198Y-87288700D01*
X147778300Y-87126802D01*
X147773792Y-87123645D01*
X147773789Y-87123643D01*
X147621228Y-87016819D01*
X147590749Y-86995477D01*
X147585767Y-86993154D01*
X147585762Y-86993151D01*
X147388225Y-86901039D01*
X147388224Y-86901039D01*
X147383243Y-86898716D01*
X147377935Y-86897294D01*
X147377933Y-86897293D01*
X147167402Y-86840881D01*
X147167400Y-86840881D01*
X147162087Y-86839457D01*
X146934000Y-86819502D01*
X146705913Y-86839457D01*
X146700600Y-86840881D01*
X146700598Y-86840881D01*
X146490067Y-86897293D01*
X146490065Y-86897294D01*
X146484757Y-86898716D01*
X146479776Y-86901039D01*
X146479775Y-86901039D01*
X146282238Y-86993151D01*
X146282233Y-86993154D01*
X146277251Y-86995477D01*
X146246772Y-87016819D01*
X146094211Y-87123643D01*
X146094208Y-87123645D01*
X146089700Y-87126802D01*
X145927802Y-87288700D01*
X145924645Y-87293208D01*
X145924643Y-87293211D01*
X145916610Y-87304684D01*
X145796477Y-87476251D01*
X145794154Y-87481233D01*
X145794151Y-87481238D01*
X145778195Y-87515457D01*
X145731278Y-87568742D01*
X145663001Y-87588203D01*
X145595041Y-87567661D01*
X145549805Y-87515457D01*
X145533849Y-87481238D01*
X145533846Y-87481233D01*
X145531523Y-87476251D01*
X145411390Y-87304684D01*
X145403357Y-87293211D01*
X145403355Y-87293208D01*
X145400198Y-87288700D01*
X145238300Y-87126802D01*
X145233792Y-87123645D01*
X145233789Y-87123643D01*
X145081229Y-87016819D01*
X145036901Y-86961362D01*
X145027500Y-86913606D01*
X145027500Y-85917594D01*
X145047502Y-85849473D01*
X145064405Y-85828499D01*
X151867582Y-79025322D01*
X151929894Y-78991296D01*
X152000709Y-78996361D01*
X152057634Y-79039027D01*
X152093668Y-79087283D01*
X152270844Y-79262921D01*
X152274606Y-79265679D01*
X152274609Y-79265682D01*
X152386139Y-79347458D01*
X152472036Y-79410440D01*
X152476171Y-79412616D01*
X152476175Y-79412618D01*
X152548447Y-79450642D01*
X152692823Y-79526602D01*
X152775119Y-79555341D01*
X152922550Y-79606826D01*
X152928354Y-79608853D01*
X152932947Y-79609725D01*
X153168867Y-79654516D01*
X153168870Y-79654516D01*
X153173456Y-79655387D01*
X153298099Y-79660284D01*
X153418075Y-79664999D01*
X153418081Y-79664999D01*
X153422743Y-79665182D01*
X153512181Y-79655387D01*
X153666087Y-79638532D01*
X153666092Y-79638531D01*
X153670740Y-79638022D01*
X153677140Y-79636337D01*
X153907476Y-79575694D01*
X153907478Y-79575693D01*
X153911999Y-79574503D01*
X153916296Y-79572657D01*
X154136924Y-79477868D01*
X154136926Y-79477867D01*
X154141218Y-79476023D01*
X154243679Y-79412618D01*
X154349391Y-79347202D01*
X154349395Y-79347199D01*
X154353364Y-79344743D01*
X154502244Y-79218707D01*
X154540209Y-79186567D01*
X154540210Y-79186566D01*
X154543775Y-79183548D01*
X154625316Y-79090569D01*
X154705187Y-78999494D01*
X154705191Y-78999489D01*
X154708269Y-78995979D01*
X154715138Y-78985301D01*
X154816767Y-78827300D01*
X154843231Y-78786157D01*
X154945697Y-78558691D01*
X154979954Y-78437225D01*
X155012146Y-78323082D01*
X155012147Y-78323079D01*
X155013416Y-78318578D01*
X155026414Y-78216402D01*
X155044502Y-78074222D01*
X155044502Y-78074218D01*
X155044900Y-78071092D01*
X155044984Y-78067909D01*
X155046676Y-78003278D01*
X155047207Y-77983000D01*
X155028718Y-77734206D01*
X154973659Y-77490878D01*
X154959164Y-77453605D01*
X154884931Y-77262714D01*
X154884930Y-77262712D01*
X154883238Y-77258361D01*
X154858494Y-77215067D01*
X154819020Y-77146003D01*
X154759442Y-77041763D01*
X154604990Y-76845842D01*
X154423276Y-76674902D01*
X154222751Y-76535793D01*
X154222130Y-76535362D01*
X154222125Y-76535359D01*
X154218292Y-76532700D01*
X154214110Y-76530637D01*
X154214102Y-76530633D01*
X154028299Y-76439006D01*
X153976050Y-76390938D01*
X153958083Y-76322252D01*
X153980102Y-76254757D01*
X154035117Y-76209880D01*
X154084027Y-76200000D01*
X157647941Y-76200000D01*
X157716062Y-76220002D01*
X157762555Y-76273658D01*
X157772659Y-76343932D01*
X157743165Y-76408512D01*
X157700692Y-76440426D01*
X157547965Y-76510834D01*
X157544056Y-76513397D01*
X157343242Y-76645056D01*
X157343237Y-76645060D01*
X157339329Y-76647622D01*
X157292993Y-76688978D01*
X157223460Y-76751039D01*
X157153202Y-76813746D01*
X156993675Y-77005557D01*
X156864252Y-77218840D01*
X156862443Y-77223154D01*
X156862442Y-77223156D01*
X156774829Y-77432090D01*
X156767775Y-77448911D01*
X156766624Y-77453443D01*
X156766623Y-77453446D01*
X156739467Y-77560373D01*
X156706365Y-77690714D01*
X156681370Y-77938939D01*
X156681594Y-77943606D01*
X156681594Y-77943611D01*
X156687354Y-78063535D01*
X156693339Y-78188131D01*
X156742010Y-78432818D01*
X156826314Y-78667622D01*
X156944398Y-78887386D01*
X157093668Y-79087283D01*
X157270844Y-79262921D01*
X157274606Y-79265679D01*
X157274609Y-79265682D01*
X157386139Y-79347458D01*
X157472036Y-79410440D01*
X157476171Y-79412616D01*
X157476175Y-79412618D01*
X157548447Y-79450642D01*
X157692823Y-79526602D01*
X157775119Y-79555341D01*
X157922550Y-79606826D01*
X157928354Y-79608853D01*
X157932947Y-79609725D01*
X158168867Y-79654516D01*
X158168870Y-79654516D01*
X158173456Y-79655387D01*
X158298099Y-79660284D01*
X158418075Y-79664999D01*
X158418081Y-79664999D01*
X158422743Y-79665182D01*
X158512181Y-79655387D01*
X158666087Y-79638532D01*
X158666092Y-79638531D01*
X158670740Y-79638022D01*
X158677140Y-79636337D01*
X158907476Y-79575694D01*
X158907478Y-79575693D01*
X158911999Y-79574503D01*
X158916296Y-79572657D01*
X159136924Y-79477868D01*
X159136926Y-79477867D01*
X159141218Y-79476023D01*
X159243679Y-79412618D01*
X159349391Y-79347202D01*
X159349395Y-79347199D01*
X159353364Y-79344743D01*
X159502244Y-79218707D01*
X159540209Y-79186567D01*
X159540210Y-79186566D01*
X159543775Y-79183548D01*
X159625316Y-79090569D01*
X159705187Y-78999494D01*
X159705191Y-78999489D01*
X159708269Y-78995979D01*
X159715138Y-78985301D01*
X159816767Y-78827300D01*
X159843231Y-78786157D01*
X159864023Y-78740000D01*
X163486526Y-78740000D01*
X163506391Y-78992403D01*
X163507545Y-78997210D01*
X163507546Y-78997216D01*
X163545179Y-79153968D01*
X163565495Y-79238591D01*
X163567388Y-79243162D01*
X163567389Y-79243164D01*
X163637404Y-79412194D01*
X163662384Y-79472502D01*
X163794672Y-79688376D01*
X163959102Y-79880898D01*
X164151624Y-80045328D01*
X164367498Y-80177616D01*
X164372068Y-80179509D01*
X164372072Y-80179511D01*
X164596836Y-80272611D01*
X164601409Y-80274505D01*
X164686032Y-80294821D01*
X164842784Y-80332454D01*
X164842790Y-80332455D01*
X164847597Y-80333609D01*
X164947416Y-80341465D01*
X165034345Y-80348307D01*
X165034352Y-80348307D01*
X165036801Y-80348500D01*
X165163199Y-80348500D01*
X165165648Y-80348307D01*
X165165655Y-80348307D01*
X165252584Y-80341465D01*
X165352403Y-80333609D01*
X165357210Y-80332455D01*
X165357216Y-80332454D01*
X165513968Y-80294821D01*
X165598591Y-80274505D01*
X165603164Y-80272611D01*
X165827928Y-80179511D01*
X165827932Y-80179509D01*
X165832502Y-80177616D01*
X166048376Y-80045328D01*
X166240898Y-79880898D01*
X166405328Y-79688376D01*
X166537616Y-79472502D01*
X166562597Y-79412194D01*
X166632611Y-79243164D01*
X166632612Y-79243162D01*
X166634505Y-79238591D01*
X166654821Y-79153968D01*
X166692454Y-78997216D01*
X166692455Y-78997210D01*
X166693609Y-78992403D01*
X166713474Y-78740000D01*
X166693609Y-78487597D01*
X166679359Y-78428238D01*
X166635660Y-78246221D01*
X166634505Y-78241409D01*
X166621945Y-78211087D01*
X166539511Y-78012072D01*
X166539509Y-78012068D01*
X166537616Y-78007498D01*
X166405328Y-77791624D01*
X166240898Y-77599102D01*
X166048376Y-77434672D01*
X165832502Y-77302384D01*
X165827932Y-77300491D01*
X165827928Y-77300489D01*
X165603164Y-77207389D01*
X165603162Y-77207388D01*
X165598591Y-77205495D01*
X165513968Y-77185179D01*
X165357216Y-77147546D01*
X165357210Y-77147545D01*
X165352403Y-77146391D01*
X165252584Y-77138535D01*
X165165655Y-77131693D01*
X165165648Y-77131693D01*
X165163199Y-77131500D01*
X165036801Y-77131500D01*
X165034352Y-77131693D01*
X165034345Y-77131693D01*
X164947416Y-77138535D01*
X164847597Y-77146391D01*
X164842790Y-77147545D01*
X164842784Y-77147546D01*
X164686032Y-77185179D01*
X164601409Y-77205495D01*
X164596838Y-77207388D01*
X164596836Y-77207389D01*
X164372072Y-77300489D01*
X164372068Y-77300491D01*
X164367498Y-77302384D01*
X164151624Y-77434672D01*
X163959102Y-77599102D01*
X163794672Y-77791624D01*
X163662384Y-78007498D01*
X163660491Y-78012068D01*
X163660489Y-78012072D01*
X163578055Y-78211087D01*
X163565495Y-78241409D01*
X163564340Y-78246221D01*
X163520642Y-78428238D01*
X163506391Y-78487597D01*
X163486526Y-78740000D01*
X159864023Y-78740000D01*
X159945697Y-78558691D01*
X159979954Y-78437225D01*
X160012146Y-78323082D01*
X160012147Y-78323079D01*
X160013416Y-78318578D01*
X160026414Y-78216402D01*
X160044502Y-78074222D01*
X160044502Y-78074218D01*
X160044900Y-78071092D01*
X160044984Y-78067909D01*
X160046676Y-78003278D01*
X160047207Y-77983000D01*
X160028718Y-77734206D01*
X159973659Y-77490878D01*
X159959164Y-77453605D01*
X159884931Y-77262714D01*
X159884930Y-77262712D01*
X159883238Y-77258361D01*
X159858494Y-77215067D01*
X159819020Y-77146003D01*
X159759442Y-77041763D01*
X159604990Y-76845842D01*
X159423276Y-76674902D01*
X159222751Y-76535793D01*
X159222130Y-76535362D01*
X159222125Y-76535359D01*
X159218292Y-76532700D01*
X159214110Y-76530637D01*
X159214102Y-76530633D01*
X159028299Y-76439006D01*
X158976050Y-76390938D01*
X158958083Y-76322252D01*
X158980102Y-76254757D01*
X159035117Y-76209880D01*
X159084027Y-76200000D01*
X167514000Y-76200000D01*
X167582121Y-76220002D01*
X167628614Y-76273658D01*
X167640000Y-76326000D01*
X167640000Y-107824000D01*
X167619998Y-107892121D01*
X167566342Y-107938614D01*
X167514000Y-107950000D01*
X87878000Y-107950000D01*
X87809879Y-107929998D01*
X87763386Y-107876342D01*
X87752000Y-107824000D01*
X87752000Y-103011134D01*
X89446500Y-103011134D01*
X89453255Y-103073316D01*
X89504385Y-103209705D01*
X89591739Y-103326261D01*
X89708295Y-103413615D01*
X89844684Y-103464745D01*
X89906866Y-103471500D01*
X91703134Y-103471500D01*
X91765316Y-103464745D01*
X91901705Y-103413615D01*
X92018261Y-103326261D01*
X92105615Y-103209705D01*
X92156745Y-103073316D01*
X92163500Y-103011134D01*
X92163500Y-101214866D01*
X92156745Y-101152684D01*
X92105615Y-101016295D01*
X92018261Y-100899739D01*
X91901705Y-100812385D01*
X91782687Y-100767767D01*
X91725923Y-100725125D01*
X91701223Y-100658564D01*
X91716430Y-100589215D01*
X91737977Y-100560535D01*
X91839052Y-100459812D01*
X91845730Y-100451965D01*
X91970003Y-100279020D01*
X91975313Y-100270183D01*
X92069670Y-100079267D01*
X92073469Y-100069672D01*
X92135377Y-99865910D01*
X92137555Y-99855837D01*
X92138986Y-99844962D01*
X92136775Y-99830778D01*
X92123617Y-99827000D01*
X89488225Y-99827000D01*
X89474694Y-99830973D01*
X89473257Y-99840966D01*
X89503565Y-99975446D01*
X89506645Y-99985275D01*
X89586770Y-100182603D01*
X89591413Y-100191794D01*
X89702694Y-100373388D01*
X89708777Y-100381699D01*
X89848213Y-100542667D01*
X89855577Y-100549879D01*
X89860522Y-100553985D01*
X89900156Y-100612889D01*
X89901653Y-100683870D01*
X89864537Y-100744392D01*
X89824264Y-100768910D01*
X89716705Y-100809232D01*
X89716704Y-100809233D01*
X89708295Y-100812385D01*
X89591739Y-100899739D01*
X89504385Y-101016295D01*
X89453255Y-101152684D01*
X89446500Y-101214866D01*
X89446500Y-103011134D01*
X87752000Y-103011134D01*
X87752000Y-99307183D01*
X89469389Y-99307183D01*
X89470912Y-99315607D01*
X89483292Y-99319000D01*
X90532885Y-99319000D01*
X90548124Y-99314525D01*
X90549329Y-99313135D01*
X90551000Y-99305452D01*
X90551000Y-99300885D01*
X91059000Y-99300885D01*
X91063475Y-99316124D01*
X91064865Y-99317329D01*
X91072548Y-99319000D01*
X92123344Y-99319000D01*
X92136875Y-99315027D01*
X92138180Y-99305947D01*
X92096214Y-99138875D01*
X92092894Y-99129124D01*
X92007972Y-98933814D01*
X92003105Y-98924739D01*
X91887426Y-98745926D01*
X91881136Y-98737757D01*
X91737806Y-98580240D01*
X91730273Y-98573215D01*
X91563139Y-98441222D01*
X91554552Y-98435517D01*
X91368117Y-98332599D01*
X91358705Y-98328369D01*
X91157959Y-98257280D01*
X91147988Y-98254646D01*
X91076837Y-98241972D01*
X91063540Y-98243432D01*
X91059000Y-98257989D01*
X91059000Y-99300885D01*
X90551000Y-99300885D01*
X90551000Y-98256102D01*
X90547082Y-98242758D01*
X90532806Y-98240771D01*
X90494324Y-98246660D01*
X90484288Y-98249051D01*
X90281868Y-98315212D01*
X90272359Y-98319209D01*
X90083463Y-98417542D01*
X90074738Y-98423036D01*
X89904433Y-98550905D01*
X89896726Y-98557748D01*
X89749590Y-98711717D01*
X89743104Y-98719727D01*
X89623098Y-98895649D01*
X89618000Y-98904623D01*
X89528338Y-99097783D01*
X89524775Y-99107470D01*
X89469389Y-99307183D01*
X87752000Y-99307183D01*
X87752000Y-93612966D01*
X89473257Y-93612966D01*
X89503565Y-93747446D01*
X89506645Y-93757275D01*
X89586770Y-93954603D01*
X89591413Y-93963794D01*
X89702694Y-94145388D01*
X89708777Y-94153699D01*
X89848213Y-94314667D01*
X89855580Y-94321883D01*
X90019434Y-94457916D01*
X90027881Y-94463831D01*
X90211756Y-94571279D01*
X90221042Y-94575729D01*
X90420001Y-94651703D01*
X90429899Y-94654579D01*
X90533250Y-94675606D01*
X90547299Y-94674410D01*
X90551000Y-94664065D01*
X90551000Y-94663517D01*
X91059000Y-94663517D01*
X91063064Y-94677359D01*
X91076478Y-94679393D01*
X91083184Y-94678534D01*
X91093262Y-94676392D01*
X91297255Y-94615191D01*
X91306842Y-94611433D01*
X91498095Y-94517739D01*
X91506945Y-94512464D01*
X91680328Y-94388792D01*
X91688200Y-94382139D01*
X91839052Y-94231812D01*
X91845730Y-94223965D01*
X91970003Y-94051020D01*
X91975313Y-94042183D01*
X92069670Y-93851267D01*
X92073469Y-93841672D01*
X92135377Y-93637910D01*
X92137555Y-93627837D01*
X92138986Y-93616962D01*
X92136775Y-93602778D01*
X92123617Y-93599000D01*
X91077115Y-93599000D01*
X91061876Y-93603475D01*
X91060671Y-93604865D01*
X91059000Y-93612548D01*
X91059000Y-94663517D01*
X90551000Y-94663517D01*
X90551000Y-93617115D01*
X90546525Y-93601876D01*
X90545135Y-93600671D01*
X90537452Y-93599000D01*
X89488225Y-93599000D01*
X89474694Y-93602973D01*
X89473257Y-93612966D01*
X87752000Y-93612966D01*
X87752000Y-83063000D01*
X94820502Y-83063000D01*
X94840457Y-83291087D01*
X94899716Y-83512243D01*
X94902039Y-83517224D01*
X94902039Y-83517225D01*
X94994151Y-83714762D01*
X94994154Y-83714767D01*
X94996477Y-83719749D01*
X95046471Y-83791148D01*
X95090790Y-83854441D01*
X95127802Y-83907300D01*
X95289700Y-84069198D01*
X95294208Y-84072355D01*
X95294211Y-84072357D01*
X95372389Y-84127098D01*
X95477251Y-84200523D01*
X95482233Y-84202846D01*
X95482238Y-84202849D01*
X95679775Y-84294961D01*
X95684757Y-84297284D01*
X95690065Y-84298706D01*
X95690067Y-84298707D01*
X95900598Y-84355119D01*
X95900600Y-84355119D01*
X95905913Y-84356543D01*
X96134000Y-84376498D01*
X96362087Y-84356543D01*
X96367400Y-84355119D01*
X96367402Y-84355119D01*
X96577933Y-84298707D01*
X96577935Y-84298706D01*
X96583243Y-84297284D01*
X96588225Y-84294961D01*
X96785762Y-84202849D01*
X96785767Y-84202846D01*
X96790749Y-84200523D01*
X96895611Y-84127098D01*
X96973789Y-84072357D01*
X96973792Y-84072355D01*
X96978300Y-84069198D01*
X97140198Y-83907300D01*
X97177211Y-83854441D01*
X97221529Y-83791148D01*
X97271523Y-83719749D01*
X97273846Y-83714767D01*
X97273849Y-83714762D01*
X97365961Y-83517225D01*
X97365961Y-83517224D01*
X97368284Y-83512243D01*
X97427543Y-83291087D01*
X97447498Y-83063000D01*
X97427543Y-82834913D01*
X97368284Y-82613757D01*
X97365961Y-82608775D01*
X97273849Y-82411238D01*
X97273846Y-82411233D01*
X97271523Y-82406251D01*
X97140198Y-82218700D01*
X96978300Y-82056802D01*
X96973792Y-82053645D01*
X96973789Y-82053643D01*
X96895366Y-81998731D01*
X96790749Y-81925477D01*
X96785767Y-81923154D01*
X96785762Y-81923151D01*
X96588225Y-81831039D01*
X96588224Y-81831039D01*
X96583243Y-81828716D01*
X96577935Y-81827294D01*
X96577933Y-81827293D01*
X96367402Y-81770881D01*
X96367400Y-81770881D01*
X96362087Y-81769457D01*
X96134000Y-81749502D01*
X95905913Y-81769457D01*
X95900600Y-81770881D01*
X95900598Y-81770881D01*
X95690067Y-81827293D01*
X95690065Y-81827294D01*
X95684757Y-81828716D01*
X95679776Y-81831039D01*
X95679775Y-81831039D01*
X95482238Y-81923151D01*
X95482233Y-81923154D01*
X95477251Y-81925477D01*
X95372634Y-81998731D01*
X95294211Y-82053643D01*
X95294208Y-82053645D01*
X95289700Y-82056802D01*
X95127802Y-82218700D01*
X94996477Y-82406251D01*
X94994154Y-82411233D01*
X94994151Y-82411238D01*
X94902039Y-82608775D01*
X94899716Y-82613757D01*
X94840457Y-82834913D01*
X94820502Y-83063000D01*
X87752000Y-83063000D01*
X87752000Y-80738695D01*
X89437251Y-80738695D01*
X89437548Y-80743848D01*
X89437548Y-80743851D01*
X89443011Y-80838590D01*
X89450110Y-80961715D01*
X89451247Y-80966761D01*
X89451248Y-80966767D01*
X89471119Y-81054939D01*
X89499222Y-81179639D01*
X89583266Y-81386616D01*
X89699987Y-81577088D01*
X89846250Y-81745938D01*
X90018126Y-81888632D01*
X90211000Y-82001338D01*
X90419692Y-82081030D01*
X90424760Y-82082061D01*
X90424763Y-82082062D01*
X90532017Y-82103883D01*
X90638597Y-82125567D01*
X90643772Y-82125757D01*
X90643774Y-82125757D01*
X90856673Y-82133564D01*
X90856677Y-82133564D01*
X90861837Y-82133753D01*
X90866957Y-82133097D01*
X90866959Y-82133097D01*
X91078288Y-82106025D01*
X91078289Y-82106025D01*
X91083416Y-82105368D01*
X91088366Y-82103883D01*
X91292429Y-82042661D01*
X91292434Y-82042659D01*
X91297384Y-82041174D01*
X91497994Y-81942896D01*
X91679860Y-81813173D01*
X91838096Y-81655489D01*
X91897594Y-81572689D01*
X91965435Y-81478277D01*
X91968453Y-81474077D01*
X92067430Y-81273811D01*
X92132370Y-81060069D01*
X92161529Y-80838590D01*
X92163156Y-80772000D01*
X92144852Y-80549361D01*
X92090431Y-80332702D01*
X92001354Y-80127840D01*
X91880014Y-79940277D01*
X91876532Y-79936450D01*
X91732798Y-79778488D01*
X91701746Y-79714642D01*
X91710141Y-79644143D01*
X91755317Y-79589375D01*
X91781761Y-79575706D01*
X91888297Y-79535767D01*
X91896705Y-79532615D01*
X92013261Y-79445261D01*
X92100615Y-79328705D01*
X92151745Y-79192316D01*
X92158500Y-79130134D01*
X92158500Y-77983000D01*
X94820502Y-77983000D01*
X94840457Y-78211087D01*
X94841881Y-78216400D01*
X94841881Y-78216402D01*
X94878159Y-78351790D01*
X94899716Y-78432243D01*
X94902039Y-78437224D01*
X94902039Y-78437225D01*
X94994151Y-78634762D01*
X94994154Y-78634767D01*
X94996477Y-78639749D01*
X95127802Y-78827300D01*
X95289700Y-78989198D01*
X95294208Y-78992355D01*
X95294211Y-78992357D01*
X95304404Y-78999494D01*
X95477251Y-79120523D01*
X95482233Y-79122846D01*
X95482238Y-79122849D01*
X95679775Y-79214961D01*
X95684757Y-79217284D01*
X95690065Y-79218706D01*
X95690067Y-79218707D01*
X95900598Y-79275119D01*
X95900600Y-79275119D01*
X95905913Y-79276543D01*
X96134000Y-79296498D01*
X96362087Y-79276543D01*
X96367400Y-79275119D01*
X96367402Y-79275119D01*
X96577933Y-79218707D01*
X96577935Y-79218706D01*
X96583243Y-79217284D01*
X96588225Y-79214961D01*
X96785762Y-79122849D01*
X96785767Y-79122846D01*
X96790749Y-79120523D01*
X96963596Y-78999494D01*
X96973789Y-78992357D01*
X96973792Y-78992355D01*
X96978300Y-78989198D01*
X97140198Y-78827300D01*
X97271523Y-78639749D01*
X97273846Y-78634767D01*
X97273849Y-78634762D01*
X97365961Y-78437225D01*
X97365961Y-78437224D01*
X97368284Y-78432243D01*
X97389842Y-78351790D01*
X97426119Y-78216402D01*
X97426119Y-78216400D01*
X97427543Y-78211087D01*
X97447498Y-77983000D01*
X102440502Y-77983000D01*
X102460457Y-78211087D01*
X102461881Y-78216400D01*
X102461881Y-78216402D01*
X102498159Y-78351790D01*
X102519716Y-78432243D01*
X102522039Y-78437224D01*
X102522039Y-78437225D01*
X102614151Y-78634762D01*
X102614154Y-78634767D01*
X102616477Y-78639749D01*
X102747802Y-78827300D01*
X102909700Y-78989198D01*
X102914208Y-78992355D01*
X102914211Y-78992357D01*
X102924404Y-78999494D01*
X103097251Y-79120523D01*
X103102233Y-79122846D01*
X103102238Y-79122849D01*
X103299775Y-79214961D01*
X103304757Y-79217284D01*
X103310065Y-79218706D01*
X103310067Y-79218707D01*
X103520598Y-79275119D01*
X103520600Y-79275119D01*
X103525913Y-79276543D01*
X103754000Y-79296498D01*
X103982087Y-79276543D01*
X103987400Y-79275119D01*
X103987402Y-79275119D01*
X104197933Y-79218707D01*
X104197935Y-79218706D01*
X104203243Y-79217284D01*
X104208225Y-79214961D01*
X104405762Y-79122849D01*
X104405767Y-79122846D01*
X104410749Y-79120523D01*
X104583596Y-78999494D01*
X104593789Y-78992357D01*
X104593792Y-78992355D01*
X104598300Y-78989198D01*
X104760198Y-78827300D01*
X104821326Y-78740000D01*
X107606526Y-78740000D01*
X107626391Y-78992403D01*
X107627545Y-78997210D01*
X107627546Y-78997216D01*
X107665179Y-79153968D01*
X107685495Y-79238591D01*
X107687388Y-79243162D01*
X107687389Y-79243164D01*
X107757404Y-79412194D01*
X107782384Y-79472502D01*
X107914672Y-79688376D01*
X108079102Y-79880898D01*
X108271624Y-80045328D01*
X108487498Y-80177616D01*
X108492068Y-80179509D01*
X108492072Y-80179511D01*
X108716836Y-80272611D01*
X108721409Y-80274505D01*
X108806032Y-80294821D01*
X108962784Y-80332454D01*
X108962790Y-80332455D01*
X108967597Y-80333609D01*
X109067416Y-80341465D01*
X109154345Y-80348307D01*
X109154352Y-80348307D01*
X109156801Y-80348500D01*
X109283199Y-80348500D01*
X109285648Y-80348307D01*
X109285655Y-80348307D01*
X109372584Y-80341465D01*
X109472403Y-80333609D01*
X109477210Y-80332455D01*
X109477216Y-80332454D01*
X109633968Y-80294821D01*
X109718591Y-80274505D01*
X109723164Y-80272611D01*
X109947928Y-80179511D01*
X109947932Y-80179509D01*
X109952502Y-80177616D01*
X110168376Y-80045328D01*
X110360898Y-79880898D01*
X110525328Y-79688376D01*
X110657616Y-79472502D01*
X110682597Y-79412194D01*
X110752611Y-79243164D01*
X110752612Y-79243162D01*
X110754505Y-79238591D01*
X110774821Y-79153968D01*
X110812454Y-78997216D01*
X110812455Y-78997210D01*
X110813609Y-78992403D01*
X110833474Y-78740000D01*
X110813609Y-78487597D01*
X110799359Y-78428238D01*
X110755660Y-78246221D01*
X110754505Y-78241409D01*
X110741945Y-78211087D01*
X110659511Y-78012072D01*
X110659509Y-78012068D01*
X110657616Y-78007498D01*
X110525328Y-77791624D01*
X110360898Y-77599102D01*
X110168376Y-77434672D01*
X109952502Y-77302384D01*
X109947932Y-77300491D01*
X109947928Y-77300489D01*
X109723164Y-77207389D01*
X109723162Y-77207388D01*
X109718591Y-77205495D01*
X109633968Y-77185179D01*
X109477216Y-77147546D01*
X109477210Y-77147545D01*
X109472403Y-77146391D01*
X109372584Y-77138535D01*
X109285655Y-77131693D01*
X109285648Y-77131693D01*
X109283199Y-77131500D01*
X109156801Y-77131500D01*
X109154352Y-77131693D01*
X109154345Y-77131693D01*
X109067416Y-77138535D01*
X108967597Y-77146391D01*
X108962790Y-77147545D01*
X108962784Y-77147546D01*
X108806032Y-77185179D01*
X108721409Y-77205495D01*
X108716838Y-77207388D01*
X108716836Y-77207389D01*
X108492072Y-77300489D01*
X108492068Y-77300491D01*
X108487498Y-77302384D01*
X108271624Y-77434672D01*
X108079102Y-77599102D01*
X107914672Y-77791624D01*
X107782384Y-78007498D01*
X107780491Y-78012068D01*
X107780489Y-78012072D01*
X107698055Y-78211087D01*
X107685495Y-78241409D01*
X107684340Y-78246221D01*
X107640642Y-78428238D01*
X107626391Y-78487597D01*
X107606526Y-78740000D01*
X104821326Y-78740000D01*
X104891523Y-78639749D01*
X104893846Y-78634767D01*
X104893849Y-78634762D01*
X104985961Y-78437225D01*
X104985961Y-78437224D01*
X104988284Y-78432243D01*
X105009842Y-78351790D01*
X105046119Y-78216402D01*
X105046119Y-78216400D01*
X105047543Y-78211087D01*
X105067498Y-77983000D01*
X105047543Y-77754913D01*
X105030341Y-77690714D01*
X104989707Y-77539067D01*
X104989706Y-77539065D01*
X104988284Y-77533757D01*
X104978544Y-77512870D01*
X104893849Y-77331238D01*
X104893846Y-77331233D01*
X104891523Y-77326251D01*
X104808295Y-77207389D01*
X104763357Y-77143211D01*
X104763355Y-77143208D01*
X104760198Y-77138700D01*
X104598300Y-76976802D01*
X104593792Y-76973645D01*
X104593789Y-76973643D01*
X104515611Y-76918902D01*
X104410749Y-76845477D01*
X104405767Y-76843154D01*
X104405762Y-76843151D01*
X104208225Y-76751039D01*
X104208224Y-76751039D01*
X104203243Y-76748716D01*
X104197935Y-76747294D01*
X104197933Y-76747293D01*
X103987402Y-76690881D01*
X103987400Y-76690881D01*
X103982087Y-76689457D01*
X103754000Y-76669502D01*
X103525913Y-76689457D01*
X103520600Y-76690881D01*
X103520598Y-76690881D01*
X103310067Y-76747293D01*
X103310065Y-76747294D01*
X103304757Y-76748716D01*
X103299776Y-76751039D01*
X103299775Y-76751039D01*
X103102238Y-76843151D01*
X103102233Y-76843154D01*
X103097251Y-76845477D01*
X102992389Y-76918902D01*
X102914211Y-76973643D01*
X102914208Y-76973645D01*
X102909700Y-76976802D01*
X102747802Y-77138700D01*
X102744645Y-77143208D01*
X102744643Y-77143211D01*
X102699705Y-77207389D01*
X102616477Y-77326251D01*
X102614154Y-77331233D01*
X102614151Y-77331238D01*
X102529456Y-77512870D01*
X102519716Y-77533757D01*
X102518294Y-77539065D01*
X102518293Y-77539067D01*
X102477659Y-77690714D01*
X102460457Y-77754913D01*
X102440502Y-77983000D01*
X97447498Y-77983000D01*
X97427543Y-77754913D01*
X97410341Y-77690714D01*
X97369707Y-77539067D01*
X97369706Y-77539065D01*
X97368284Y-77533757D01*
X97358544Y-77512870D01*
X97273849Y-77331238D01*
X97273846Y-77331233D01*
X97271523Y-77326251D01*
X97188295Y-77207389D01*
X97143357Y-77143211D01*
X97143355Y-77143208D01*
X97140198Y-77138700D01*
X96978300Y-76976802D01*
X96973792Y-76973645D01*
X96973789Y-76973643D01*
X96895611Y-76918902D01*
X96790749Y-76845477D01*
X96785767Y-76843154D01*
X96785762Y-76843151D01*
X96588225Y-76751039D01*
X96588224Y-76751039D01*
X96583243Y-76748716D01*
X96577935Y-76747294D01*
X96577933Y-76747293D01*
X96367402Y-76690881D01*
X96367400Y-76690881D01*
X96362087Y-76689457D01*
X96134000Y-76669502D01*
X95905913Y-76689457D01*
X95900600Y-76690881D01*
X95900598Y-76690881D01*
X95690067Y-76747293D01*
X95690065Y-76747294D01*
X95684757Y-76748716D01*
X95679776Y-76751039D01*
X95679775Y-76751039D01*
X95482238Y-76843151D01*
X95482233Y-76843154D01*
X95477251Y-76845477D01*
X95372389Y-76918902D01*
X95294211Y-76973643D01*
X95294208Y-76973645D01*
X95289700Y-76976802D01*
X95127802Y-77138700D01*
X95124645Y-77143208D01*
X95124643Y-77143211D01*
X95079705Y-77207389D01*
X94996477Y-77326251D01*
X94994154Y-77331233D01*
X94994151Y-77331238D01*
X94909456Y-77512870D01*
X94899716Y-77533757D01*
X94898294Y-77539065D01*
X94898293Y-77539067D01*
X94857659Y-77690714D01*
X94840457Y-77754913D01*
X94820502Y-77983000D01*
X92158500Y-77983000D01*
X92158500Y-77333866D01*
X92151745Y-77271684D01*
X92100615Y-77135295D01*
X92013261Y-77018739D01*
X91896705Y-76931385D01*
X91760316Y-76880255D01*
X91698134Y-76873500D01*
X89901866Y-76873500D01*
X89839684Y-76880255D01*
X89703295Y-76931385D01*
X89586739Y-77018739D01*
X89499385Y-77135295D01*
X89448255Y-77271684D01*
X89441500Y-77333866D01*
X89441500Y-79130134D01*
X89448255Y-79192316D01*
X89499385Y-79328705D01*
X89586739Y-79445261D01*
X89703295Y-79532615D01*
X89711704Y-79535767D01*
X89711705Y-79535768D01*
X89820451Y-79576535D01*
X89877216Y-79619176D01*
X89901916Y-79685738D01*
X89886709Y-79755087D01*
X89867316Y-79781568D01*
X89740629Y-79914138D01*
X89614743Y-80098680D01*
X89520688Y-80301305D01*
X89460989Y-80516570D01*
X89437251Y-80738695D01*
X87752000Y-80738695D01*
X87752000Y-76326000D01*
X87772002Y-76257879D01*
X87825658Y-76211386D01*
X87878000Y-76200000D01*
X122247941Y-76200000D01*
X122316062Y-76220002D01*
G37*
%TD.AperFunction*%
%TA.AperFunction,Conductor*%
G36*
X103021026Y-94126502D02*
G01*
X103067519Y-94180158D01*
X103077623Y-94250432D01*
X103048129Y-94315012D01*
X103042000Y-94321595D01*
X101924291Y-95439304D01*
X101861979Y-95473330D01*
X101791164Y-95468265D01*
X101781947Y-95464404D01*
X101678230Y-95416041D01*
X101678225Y-95416039D01*
X101673243Y-95413716D01*
X101667935Y-95412294D01*
X101667933Y-95412293D01*
X101457402Y-95355881D01*
X101457400Y-95355881D01*
X101452087Y-95354457D01*
X101224000Y-95334502D01*
X100995913Y-95354457D01*
X100990600Y-95355881D01*
X100990598Y-95355881D01*
X100780067Y-95412293D01*
X100780065Y-95412294D01*
X100774757Y-95413716D01*
X100769776Y-95416039D01*
X100769775Y-95416039D01*
X100572238Y-95508151D01*
X100572233Y-95508154D01*
X100567251Y-95510477D01*
X100539815Y-95529688D01*
X100384211Y-95638643D01*
X100384208Y-95638645D01*
X100379700Y-95641802D01*
X100217802Y-95803700D01*
X100086477Y-95991251D01*
X100084154Y-95996233D01*
X100084151Y-95996238D01*
X100067919Y-96031049D01*
X100021002Y-96084334D01*
X99952725Y-96103795D01*
X99884765Y-96083253D01*
X99839529Y-96031049D01*
X99823414Y-95996489D01*
X99817931Y-95986993D01*
X99692972Y-95808533D01*
X99685916Y-95800125D01*
X99531875Y-95646084D01*
X99523467Y-95639028D01*
X99345007Y-95514069D01*
X99335511Y-95508586D01*
X99138053Y-95416510D01*
X99127761Y-95412764D01*
X98955497Y-95366606D01*
X98941401Y-95366942D01*
X98938000Y-95374884D01*
X98938000Y-98715967D01*
X98941973Y-98729498D01*
X98950522Y-98730727D01*
X99127761Y-98683236D01*
X99138053Y-98679490D01*
X99335511Y-98587414D01*
X99345007Y-98581931D01*
X99523467Y-98456972D01*
X99531875Y-98449916D01*
X99685916Y-98295875D01*
X99692972Y-98287467D01*
X99817931Y-98109007D01*
X99823414Y-98099511D01*
X99839529Y-98064951D01*
X99886446Y-98011666D01*
X99954723Y-97992205D01*
X100022683Y-98012747D01*
X100067919Y-98064951D01*
X100084151Y-98099762D01*
X100084154Y-98099767D01*
X100086477Y-98104749D01*
X100089634Y-98109257D01*
X100210037Y-98281210D01*
X100217802Y-98292300D01*
X100379700Y-98454198D01*
X100384208Y-98457355D01*
X100384211Y-98457357D01*
X100425542Y-98486297D01*
X100567251Y-98585523D01*
X100572233Y-98587846D01*
X100572238Y-98587849D01*
X100768765Y-98679490D01*
X100774757Y-98682284D01*
X100780065Y-98683706D01*
X100780067Y-98683707D01*
X100990598Y-98740119D01*
X100990600Y-98740119D01*
X100995913Y-98741543D01*
X101224000Y-98761498D01*
X101452087Y-98741543D01*
X101457400Y-98740119D01*
X101457402Y-98740119D01*
X101667933Y-98683707D01*
X101667935Y-98683706D01*
X101673243Y-98682284D01*
X101679235Y-98679490D01*
X101875762Y-98587849D01*
X101875767Y-98587846D01*
X101880749Y-98585523D01*
X102022458Y-98486297D01*
X102063789Y-98457357D01*
X102063792Y-98457355D01*
X102068300Y-98454198D01*
X102230198Y-98292300D01*
X102237964Y-98281210D01*
X102358366Y-98109257D01*
X102361523Y-98104749D01*
X102363846Y-98099767D01*
X102363849Y-98099762D01*
X102379805Y-98065543D01*
X102426722Y-98012258D01*
X102494999Y-97992797D01*
X102562959Y-98013339D01*
X102608195Y-98065543D01*
X102624151Y-98099762D01*
X102624154Y-98099767D01*
X102626477Y-98104749D01*
X102629634Y-98109257D01*
X102750037Y-98281210D01*
X102757802Y-98292300D01*
X102919700Y-98454198D01*
X102924208Y-98457355D01*
X102924211Y-98457357D01*
X102965542Y-98486297D01*
X103107251Y-98585523D01*
X103112233Y-98587846D01*
X103112238Y-98587849D01*
X103308765Y-98679490D01*
X103314757Y-98682284D01*
X103320065Y-98683706D01*
X103320067Y-98683707D01*
X103530598Y-98740119D01*
X103530600Y-98740119D01*
X103535913Y-98741543D01*
X103764000Y-98761498D01*
X103992087Y-98741543D01*
X103997400Y-98740119D01*
X103997402Y-98740119D01*
X104207933Y-98683707D01*
X104207935Y-98683706D01*
X104213243Y-98682284D01*
X104219235Y-98679490D01*
X104415762Y-98587849D01*
X104415767Y-98587846D01*
X104420749Y-98585523D01*
X104562458Y-98486297D01*
X104603789Y-98457357D01*
X104603792Y-98457355D01*
X104608300Y-98454198D01*
X104770198Y-98292300D01*
X104777964Y-98281210D01*
X104898366Y-98109257D01*
X104901523Y-98104749D01*
X104903846Y-98099767D01*
X104903849Y-98099762D01*
X104995959Y-97902228D01*
X104998284Y-97897243D01*
X105031069Y-97774889D01*
X105068021Y-97714266D01*
X105131881Y-97683245D01*
X105152776Y-97681500D01*
X106883406Y-97681500D01*
X106951527Y-97701502D01*
X106972497Y-97718401D01*
X107949359Y-98695264D01*
X107956888Y-98703538D01*
X107961000Y-98710018D01*
X107966777Y-98715443D01*
X108010651Y-98756643D01*
X108013493Y-98759398D01*
X108033230Y-98779135D01*
X108036427Y-98781615D01*
X108045447Y-98789318D01*
X108077679Y-98819586D01*
X108084625Y-98823405D01*
X108084628Y-98823407D01*
X108095434Y-98829348D01*
X108111953Y-98840199D01*
X108127959Y-98852614D01*
X108135228Y-98855759D01*
X108135232Y-98855762D01*
X108168537Y-98870174D01*
X108179187Y-98875391D01*
X108217940Y-98896695D01*
X108225615Y-98898666D01*
X108225616Y-98898666D01*
X108237562Y-98901733D01*
X108256267Y-98908137D01*
X108274855Y-98916181D01*
X108282678Y-98917420D01*
X108282688Y-98917423D01*
X108318524Y-98923099D01*
X108330144Y-98925505D01*
X108362508Y-98933814D01*
X108372970Y-98936500D01*
X108393224Y-98936500D01*
X108412934Y-98938051D01*
X108432943Y-98941220D01*
X108440835Y-98940474D01*
X108476961Y-98937059D01*
X108488819Y-98936500D01*
X146629406Y-98936500D01*
X146697527Y-98956502D01*
X146718501Y-98973405D01*
X149591506Y-101846411D01*
X149625532Y-101908723D01*
X149620467Y-101979539D01*
X149577920Y-102036374D01*
X149511400Y-102061185D01*
X149491428Y-102061026D01*
X149479485Y-102059981D01*
X149479475Y-102059981D01*
X149474000Y-102059502D01*
X149245913Y-102079457D01*
X149240600Y-102080881D01*
X149240598Y-102080881D01*
X149030067Y-102137293D01*
X149030065Y-102137294D01*
X149024757Y-102138716D01*
X149019776Y-102141039D01*
X149019775Y-102141039D01*
X148822238Y-102233151D01*
X148822233Y-102233154D01*
X148817251Y-102235477D01*
X148802970Y-102245477D01*
X148634211Y-102363643D01*
X148634208Y-102363645D01*
X148629700Y-102366802D01*
X148467802Y-102528700D01*
X148464645Y-102533208D01*
X148464643Y-102533211D01*
X148462359Y-102536473D01*
X148336477Y-102716251D01*
X148334154Y-102721233D01*
X148334151Y-102721238D01*
X148318195Y-102755457D01*
X148271278Y-102808742D01*
X148203001Y-102828203D01*
X148135041Y-102807661D01*
X148089805Y-102755457D01*
X148073849Y-102721238D01*
X148073846Y-102721233D01*
X148071523Y-102716251D01*
X147945641Y-102536473D01*
X147943357Y-102533211D01*
X147943355Y-102533208D01*
X147940198Y-102528700D01*
X147778300Y-102366802D01*
X147773792Y-102363645D01*
X147773789Y-102363643D01*
X147605030Y-102245477D01*
X147590749Y-102235477D01*
X147585767Y-102233154D01*
X147585762Y-102233151D01*
X147388225Y-102141039D01*
X147388224Y-102141039D01*
X147383243Y-102138716D01*
X147377935Y-102137294D01*
X147377933Y-102137293D01*
X147167402Y-102080881D01*
X147167400Y-102080881D01*
X147162087Y-102079457D01*
X146934000Y-102059502D01*
X146705913Y-102079457D01*
X146700600Y-102080881D01*
X146700598Y-102080881D01*
X146490067Y-102137293D01*
X146490065Y-102137294D01*
X146484757Y-102138716D01*
X146479776Y-102141039D01*
X146479775Y-102141039D01*
X146282238Y-102233151D01*
X146282233Y-102233154D01*
X146277251Y-102235477D01*
X146262970Y-102245477D01*
X146094211Y-102363643D01*
X146094208Y-102363645D01*
X146089700Y-102366802D01*
X145927802Y-102528700D01*
X145924645Y-102533208D01*
X145924643Y-102533211D01*
X145922359Y-102536473D01*
X145796477Y-102716251D01*
X145794154Y-102721233D01*
X145794151Y-102721238D01*
X145778195Y-102755457D01*
X145731278Y-102808742D01*
X145663001Y-102828203D01*
X145595041Y-102807661D01*
X145549805Y-102755457D01*
X145533849Y-102721238D01*
X145533846Y-102721233D01*
X145531523Y-102716251D01*
X145405641Y-102536473D01*
X145403357Y-102533211D01*
X145403355Y-102533208D01*
X145400198Y-102528700D01*
X145238300Y-102366802D01*
X145233792Y-102363645D01*
X145233789Y-102363643D01*
X145065030Y-102245477D01*
X145050749Y-102235477D01*
X145045767Y-102233154D01*
X145045762Y-102233151D01*
X144848225Y-102141039D01*
X144848224Y-102141039D01*
X144843243Y-102138716D01*
X144837935Y-102137294D01*
X144837933Y-102137293D01*
X144627402Y-102080881D01*
X144627400Y-102080881D01*
X144622087Y-102079457D01*
X144394000Y-102059502D01*
X144165913Y-102079457D01*
X144160600Y-102080881D01*
X144160598Y-102080881D01*
X143950067Y-102137293D01*
X143950065Y-102137294D01*
X143944757Y-102138716D01*
X143939776Y-102141039D01*
X143939775Y-102141039D01*
X143742238Y-102233151D01*
X143742233Y-102233154D01*
X143737251Y-102235477D01*
X143722970Y-102245477D01*
X143554211Y-102363643D01*
X143554208Y-102363645D01*
X143549700Y-102366802D01*
X143387802Y-102528700D01*
X143384645Y-102533208D01*
X143384643Y-102533211D01*
X143382359Y-102536473D01*
X143256477Y-102716251D01*
X143254154Y-102721233D01*
X143254151Y-102721238D01*
X143238195Y-102755457D01*
X143191278Y-102808742D01*
X143123001Y-102828203D01*
X143055041Y-102807661D01*
X143009805Y-102755457D01*
X142993849Y-102721238D01*
X142993846Y-102721233D01*
X142991523Y-102716251D01*
X142865641Y-102536473D01*
X142863357Y-102533211D01*
X142863355Y-102533208D01*
X142860198Y-102528700D01*
X142698300Y-102366802D01*
X142693792Y-102363645D01*
X142693789Y-102363643D01*
X142525030Y-102245477D01*
X142510749Y-102235477D01*
X142505767Y-102233154D01*
X142505762Y-102233151D01*
X142308225Y-102141039D01*
X142308224Y-102141039D01*
X142303243Y-102138716D01*
X142297935Y-102137294D01*
X142297933Y-102137293D01*
X142087402Y-102080881D01*
X142087400Y-102080881D01*
X142082087Y-102079457D01*
X141854000Y-102059502D01*
X141625913Y-102079457D01*
X141620600Y-102080881D01*
X141620598Y-102080881D01*
X141410067Y-102137293D01*
X141410065Y-102137294D01*
X141404757Y-102138716D01*
X141399776Y-102141039D01*
X141399775Y-102141039D01*
X141202238Y-102233151D01*
X141202233Y-102233154D01*
X141197251Y-102235477D01*
X141182970Y-102245477D01*
X141014211Y-102363643D01*
X141014208Y-102363645D01*
X141009700Y-102366802D01*
X140847802Y-102528700D01*
X140844645Y-102533208D01*
X140844643Y-102533211D01*
X140842359Y-102536473D01*
X140716477Y-102716251D01*
X140714154Y-102721233D01*
X140714151Y-102721238D01*
X140698195Y-102755457D01*
X140651278Y-102808742D01*
X140583001Y-102828203D01*
X140515041Y-102807661D01*
X140469805Y-102755457D01*
X140453849Y-102721238D01*
X140453846Y-102721233D01*
X140451523Y-102716251D01*
X140325641Y-102536473D01*
X140323357Y-102533211D01*
X140323355Y-102533208D01*
X140320198Y-102528700D01*
X140158300Y-102366802D01*
X140153792Y-102363645D01*
X140153789Y-102363643D01*
X139985030Y-102245477D01*
X139970749Y-102235477D01*
X139965767Y-102233154D01*
X139965762Y-102233151D01*
X139768225Y-102141039D01*
X139768224Y-102141039D01*
X139763243Y-102138716D01*
X139757935Y-102137294D01*
X139757933Y-102137293D01*
X139547402Y-102080881D01*
X139547400Y-102080881D01*
X139542087Y-102079457D01*
X139314000Y-102059502D01*
X139085913Y-102079457D01*
X139080600Y-102080881D01*
X139080598Y-102080881D01*
X138870067Y-102137293D01*
X138870065Y-102137294D01*
X138864757Y-102138716D01*
X138859776Y-102141039D01*
X138859775Y-102141039D01*
X138662238Y-102233151D01*
X138662233Y-102233154D01*
X138657251Y-102235477D01*
X138642970Y-102245477D01*
X138474211Y-102363643D01*
X138474208Y-102363645D01*
X138469700Y-102366802D01*
X138307802Y-102528700D01*
X138304645Y-102533208D01*
X138304643Y-102533211D01*
X138302359Y-102536473D01*
X138176477Y-102716251D01*
X138174154Y-102721233D01*
X138174151Y-102721238D01*
X138158195Y-102755457D01*
X138111278Y-102808742D01*
X138043001Y-102828203D01*
X137975041Y-102807661D01*
X137929805Y-102755457D01*
X137913849Y-102721238D01*
X137913846Y-102721233D01*
X137911523Y-102716251D01*
X137785641Y-102536473D01*
X137783357Y-102533211D01*
X137783355Y-102533208D01*
X137780198Y-102528700D01*
X137618300Y-102366802D01*
X137613792Y-102363645D01*
X137613789Y-102363643D01*
X137445030Y-102245477D01*
X137430749Y-102235477D01*
X137425767Y-102233154D01*
X137425762Y-102233151D01*
X137228225Y-102141039D01*
X137228224Y-102141039D01*
X137223243Y-102138716D01*
X137217935Y-102137294D01*
X137217933Y-102137293D01*
X137007402Y-102080881D01*
X137007400Y-102080881D01*
X137002087Y-102079457D01*
X136774000Y-102059502D01*
X136545913Y-102079457D01*
X136540600Y-102080881D01*
X136540598Y-102080881D01*
X136330067Y-102137293D01*
X136330065Y-102137294D01*
X136324757Y-102138716D01*
X136319776Y-102141039D01*
X136319775Y-102141039D01*
X136122238Y-102233151D01*
X136122233Y-102233154D01*
X136117251Y-102235477D01*
X136102970Y-102245477D01*
X135934211Y-102363643D01*
X135934208Y-102363645D01*
X135929700Y-102366802D01*
X135767802Y-102528700D01*
X135764645Y-102533208D01*
X135764643Y-102533211D01*
X135762359Y-102536473D01*
X135636477Y-102716251D01*
X135634154Y-102721233D01*
X135634151Y-102721238D01*
X135618195Y-102755457D01*
X135571278Y-102808742D01*
X135503001Y-102828203D01*
X135435041Y-102807661D01*
X135389805Y-102755457D01*
X135373849Y-102721238D01*
X135373846Y-102721233D01*
X135371523Y-102716251D01*
X135245641Y-102536473D01*
X135243357Y-102533211D01*
X135243355Y-102533208D01*
X135240198Y-102528700D01*
X135078300Y-102366802D01*
X135073792Y-102363645D01*
X135073789Y-102363643D01*
X134905030Y-102245477D01*
X134890749Y-102235477D01*
X134885767Y-102233154D01*
X134885762Y-102233151D01*
X134688225Y-102141039D01*
X134688224Y-102141039D01*
X134683243Y-102138716D01*
X134677935Y-102137294D01*
X134677933Y-102137293D01*
X134467402Y-102080881D01*
X134467400Y-102080881D01*
X134462087Y-102079457D01*
X134234000Y-102059502D01*
X134005913Y-102079457D01*
X134000600Y-102080881D01*
X134000598Y-102080881D01*
X133790067Y-102137293D01*
X133790065Y-102137294D01*
X133784757Y-102138716D01*
X133779776Y-102141039D01*
X133779775Y-102141039D01*
X133582238Y-102233151D01*
X133582233Y-102233154D01*
X133577251Y-102235477D01*
X133562970Y-102245477D01*
X133394211Y-102363643D01*
X133394208Y-102363645D01*
X133389700Y-102366802D01*
X133227802Y-102528700D01*
X133224645Y-102533208D01*
X133224643Y-102533211D01*
X133222359Y-102536473D01*
X133096477Y-102716251D01*
X133094154Y-102721233D01*
X133094151Y-102721238D01*
X133077919Y-102756049D01*
X133031002Y-102809334D01*
X132962725Y-102828795D01*
X132894765Y-102808253D01*
X132849529Y-102756049D01*
X132833414Y-102721489D01*
X132827931Y-102711993D01*
X132702972Y-102533533D01*
X132695916Y-102525125D01*
X132541875Y-102371084D01*
X132533467Y-102364028D01*
X132355007Y-102239069D01*
X132345511Y-102233586D01*
X132148053Y-102141510D01*
X132137761Y-102137764D01*
X131965497Y-102091606D01*
X131951401Y-102091942D01*
X131948000Y-102099884D01*
X131948000Y-103501000D01*
X131927998Y-103569121D01*
X131874342Y-103615614D01*
X131822000Y-103627000D01*
X131566000Y-103627000D01*
X131497879Y-103606998D01*
X131451386Y-103553342D01*
X131440000Y-103501000D01*
X131440000Y-102105033D01*
X131436027Y-102091502D01*
X131427478Y-102090273D01*
X131250239Y-102137764D01*
X131239947Y-102141510D01*
X131042489Y-102233586D01*
X131032993Y-102239069D01*
X130854533Y-102364028D01*
X130846125Y-102371084D01*
X130692084Y-102525125D01*
X130685028Y-102533533D01*
X130560069Y-102711993D01*
X130554586Y-102721489D01*
X130538471Y-102756049D01*
X130491554Y-102809334D01*
X130423277Y-102828795D01*
X130355317Y-102808253D01*
X130310081Y-102756049D01*
X130293849Y-102721238D01*
X130293846Y-102721233D01*
X130291523Y-102716251D01*
X130165641Y-102536473D01*
X130163357Y-102533211D01*
X130163355Y-102533208D01*
X130160198Y-102528700D01*
X129998300Y-102366802D01*
X129993792Y-102363645D01*
X129993789Y-102363643D01*
X129825030Y-102245477D01*
X129810749Y-102235477D01*
X129805767Y-102233154D01*
X129805762Y-102233151D01*
X129608225Y-102141039D01*
X129608224Y-102141039D01*
X129603243Y-102138716D01*
X129597935Y-102137294D01*
X129597933Y-102137293D01*
X129387402Y-102080881D01*
X129387400Y-102080881D01*
X129382087Y-102079457D01*
X129154000Y-102059502D01*
X128925913Y-102079457D01*
X128920600Y-102080881D01*
X128920598Y-102080881D01*
X128710067Y-102137293D01*
X128710065Y-102137294D01*
X128704757Y-102138716D01*
X128699776Y-102141039D01*
X128699775Y-102141039D01*
X128502238Y-102233151D01*
X128502233Y-102233154D01*
X128497251Y-102235477D01*
X128482970Y-102245477D01*
X128314211Y-102363643D01*
X128314208Y-102363645D01*
X128309700Y-102366802D01*
X128147802Y-102528700D01*
X128144645Y-102533208D01*
X128144643Y-102533211D01*
X128142359Y-102536473D01*
X128016477Y-102716251D01*
X128014154Y-102721233D01*
X128014151Y-102721238D01*
X127998195Y-102755457D01*
X127951278Y-102808742D01*
X127883001Y-102828203D01*
X127815041Y-102807661D01*
X127769805Y-102755457D01*
X127753849Y-102721238D01*
X127753846Y-102721233D01*
X127751523Y-102716251D01*
X127625641Y-102536473D01*
X127623357Y-102533211D01*
X127623355Y-102533208D01*
X127620198Y-102528700D01*
X127458300Y-102366802D01*
X127453792Y-102363645D01*
X127453789Y-102363643D01*
X127285030Y-102245477D01*
X127270749Y-102235477D01*
X127265767Y-102233154D01*
X127265762Y-102233151D01*
X127068225Y-102141039D01*
X127068224Y-102141039D01*
X127063243Y-102138716D01*
X127057935Y-102137294D01*
X127057933Y-102137293D01*
X126847402Y-102080881D01*
X126847400Y-102080881D01*
X126842087Y-102079457D01*
X126614000Y-102059502D01*
X126385913Y-102079457D01*
X126380600Y-102080881D01*
X126380598Y-102080881D01*
X126170067Y-102137293D01*
X126170065Y-102137294D01*
X126164757Y-102138716D01*
X126159776Y-102141039D01*
X126159775Y-102141039D01*
X125962238Y-102233151D01*
X125962233Y-102233154D01*
X125957251Y-102235477D01*
X125942970Y-102245477D01*
X125774211Y-102363643D01*
X125774208Y-102363645D01*
X125769700Y-102366802D01*
X125607802Y-102528700D01*
X125604643Y-102533211D01*
X125601108Y-102537424D01*
X125599974Y-102536473D01*
X125549929Y-102576471D01*
X125479310Y-102583776D01*
X125415951Y-102551742D01*
X125379970Y-102490538D01*
X125376918Y-102473483D01*
X125375745Y-102462684D01*
X125324615Y-102326295D01*
X125237261Y-102209739D01*
X125120705Y-102122385D01*
X124984316Y-102071255D01*
X124922134Y-102064500D01*
X123225866Y-102064500D01*
X123163684Y-102071255D01*
X123027295Y-102122385D01*
X122910739Y-102209739D01*
X122823385Y-102326295D01*
X122772255Y-102462684D01*
X122765500Y-102524866D01*
X122765500Y-104221134D01*
X122772255Y-104283316D01*
X122823385Y-104419705D01*
X122910739Y-104536261D01*
X122917919Y-104541642D01*
X122928636Y-104549674D01*
X122971151Y-104606533D01*
X122976177Y-104677351D01*
X122942117Y-104739645D01*
X122879786Y-104773635D01*
X122853071Y-104776500D01*
X104430154Y-104776500D01*
X104362033Y-104756498D01*
X104315540Y-104702842D01*
X104305436Y-104632568D01*
X104334930Y-104567988D01*
X104376905Y-104536305D01*
X104405758Y-104522851D01*
X104405764Y-104522847D01*
X104410749Y-104520523D01*
X104554732Y-104419705D01*
X104593789Y-104392357D01*
X104593792Y-104392355D01*
X104598300Y-104389198D01*
X104760198Y-104227300D01*
X104764472Y-104221197D01*
X104857852Y-104087836D01*
X104891523Y-104039749D01*
X104893846Y-104034767D01*
X104893849Y-104034762D01*
X104985961Y-103837225D01*
X104985961Y-103837224D01*
X104988284Y-103832243D01*
X104992387Y-103816933D01*
X105046119Y-103616402D01*
X105046119Y-103616400D01*
X105047543Y-103611087D01*
X105067498Y-103383000D01*
X105047543Y-103154913D01*
X105046119Y-103149598D01*
X104989707Y-102939067D01*
X104989706Y-102939065D01*
X104988284Y-102933757D01*
X104905142Y-102755457D01*
X104893849Y-102731238D01*
X104893846Y-102731233D01*
X104891523Y-102726251D01*
X104760198Y-102538700D01*
X104598300Y-102376802D01*
X104593792Y-102373645D01*
X104593789Y-102373643D01*
X104515611Y-102318902D01*
X104410749Y-102245477D01*
X104405767Y-102243154D01*
X104405762Y-102243151D01*
X104208225Y-102151039D01*
X104208224Y-102151039D01*
X104203243Y-102148716D01*
X104197935Y-102147294D01*
X104197933Y-102147293D01*
X103987402Y-102090881D01*
X103987400Y-102090881D01*
X103982087Y-102089457D01*
X103754000Y-102069502D01*
X103525913Y-102089457D01*
X103520600Y-102090881D01*
X103520598Y-102090881D01*
X103310067Y-102147293D01*
X103310065Y-102147294D01*
X103304757Y-102148716D01*
X103299776Y-102151039D01*
X103299775Y-102151039D01*
X103102238Y-102243151D01*
X103102233Y-102243154D01*
X103097251Y-102245477D01*
X102992389Y-102318902D01*
X102914211Y-102373643D01*
X102914208Y-102373645D01*
X102909700Y-102376802D01*
X102747802Y-102538700D01*
X102616477Y-102726251D01*
X102614154Y-102731233D01*
X102614151Y-102731238D01*
X102602858Y-102755457D01*
X102519716Y-102933757D01*
X102518294Y-102939065D01*
X102518293Y-102939067D01*
X102461881Y-103149598D01*
X102460457Y-103154913D01*
X102440502Y-103383000D01*
X102460457Y-103611087D01*
X102461881Y-103616400D01*
X102461881Y-103616402D01*
X102515614Y-103816933D01*
X102519716Y-103832243D01*
X102522039Y-103837224D01*
X102522039Y-103837225D01*
X102614151Y-104034762D01*
X102614154Y-104034767D01*
X102616477Y-104039749D01*
X102650148Y-104087836D01*
X102743529Y-104221197D01*
X102747802Y-104227300D01*
X102909700Y-104389198D01*
X102914208Y-104392355D01*
X102914211Y-104392357D01*
X102953268Y-104419705D01*
X103097251Y-104520523D01*
X103102236Y-104522847D01*
X103102242Y-104522851D01*
X103131095Y-104536305D01*
X103184381Y-104583222D01*
X103203842Y-104651499D01*
X103183300Y-104719459D01*
X103129278Y-104765525D01*
X103077846Y-104776500D01*
X96810154Y-104776500D01*
X96742033Y-104756498D01*
X96695540Y-104702842D01*
X96685436Y-104632568D01*
X96714930Y-104567988D01*
X96756905Y-104536305D01*
X96785758Y-104522851D01*
X96785764Y-104522847D01*
X96790749Y-104520523D01*
X96934732Y-104419705D01*
X96973789Y-104392357D01*
X96973792Y-104392355D01*
X96978300Y-104389198D01*
X97140198Y-104227300D01*
X97144472Y-104221197D01*
X97237852Y-104087836D01*
X97271523Y-104039749D01*
X97273846Y-104034767D01*
X97273849Y-104034762D01*
X97365961Y-103837225D01*
X97365961Y-103837224D01*
X97368284Y-103832243D01*
X97372387Y-103816933D01*
X97426119Y-103616402D01*
X97426119Y-103616400D01*
X97427543Y-103611087D01*
X97447498Y-103383000D01*
X97427543Y-103154913D01*
X97426119Y-103149598D01*
X97369707Y-102939067D01*
X97369706Y-102939065D01*
X97368284Y-102933757D01*
X97285142Y-102755457D01*
X97273849Y-102731238D01*
X97273846Y-102731233D01*
X97271523Y-102726251D01*
X97140198Y-102538700D01*
X97054405Y-102452907D01*
X97020379Y-102390595D01*
X97017500Y-102363812D01*
X97017500Y-100843000D01*
X108790502Y-100843000D01*
X108810457Y-101071087D01*
X108811881Y-101076400D01*
X108811881Y-101076402D01*
X108849025Y-101215022D01*
X108869716Y-101292243D01*
X108872039Y-101297224D01*
X108872039Y-101297225D01*
X108964151Y-101494762D01*
X108964154Y-101494767D01*
X108966477Y-101499749D01*
X109097802Y-101687300D01*
X109259700Y-101849198D01*
X109264208Y-101852355D01*
X109264211Y-101852357D01*
X109342389Y-101907098D01*
X109447251Y-101980523D01*
X109452233Y-101982846D01*
X109452238Y-101982849D01*
X109648765Y-102074490D01*
X109654757Y-102077284D01*
X109660065Y-102078706D01*
X109660067Y-102078707D01*
X109870598Y-102135119D01*
X109870600Y-102135119D01*
X109875913Y-102136543D01*
X110104000Y-102156498D01*
X110332087Y-102136543D01*
X110337400Y-102135119D01*
X110337402Y-102135119D01*
X110547933Y-102078707D01*
X110547935Y-102078706D01*
X110553243Y-102077284D01*
X110559235Y-102074490D01*
X110755762Y-101982849D01*
X110755767Y-101982846D01*
X110760749Y-101980523D01*
X110834243Y-101929062D01*
X114382493Y-101929062D01*
X114391789Y-101941077D01*
X114442994Y-101976931D01*
X114452489Y-101982414D01*
X114649947Y-102074490D01*
X114660239Y-102078236D01*
X114870688Y-102134625D01*
X114881481Y-102136528D01*
X115098525Y-102155517D01*
X115109475Y-102155517D01*
X115326519Y-102136528D01*
X115337312Y-102134625D01*
X115547761Y-102078236D01*
X115558053Y-102074490D01*
X115755511Y-101982414D01*
X115765006Y-101976931D01*
X115817048Y-101940491D01*
X115825424Y-101930012D01*
X115818356Y-101916566D01*
X115116812Y-101215022D01*
X115102868Y-101207408D01*
X115101035Y-101207539D01*
X115094420Y-101211790D01*
X114388923Y-101917287D01*
X114382493Y-101929062D01*
X110834243Y-101929062D01*
X110865611Y-101907098D01*
X110943789Y-101852357D01*
X110943792Y-101852355D01*
X110948300Y-101849198D01*
X111110198Y-101687300D01*
X111241523Y-101499749D01*
X111243846Y-101494767D01*
X111243849Y-101494762D01*
X111335961Y-101297225D01*
X111335961Y-101297224D01*
X111338284Y-101292243D01*
X111358976Y-101215022D01*
X111396119Y-101076402D01*
X111396119Y-101076400D01*
X111397543Y-101071087D01*
X111417019Y-100848475D01*
X113791483Y-100848475D01*
X113810472Y-101065519D01*
X113812375Y-101076312D01*
X113868764Y-101286761D01*
X113872510Y-101297053D01*
X113964586Y-101494511D01*
X113970069Y-101504006D01*
X114006509Y-101556048D01*
X114016988Y-101564424D01*
X114030434Y-101557356D01*
X114731978Y-100855812D01*
X114738356Y-100844132D01*
X115468408Y-100844132D01*
X115468539Y-100845965D01*
X115472790Y-100852580D01*
X116178287Y-101558077D01*
X116190062Y-101564507D01*
X116202077Y-101555211D01*
X116237931Y-101504006D01*
X116243414Y-101494511D01*
X116335490Y-101297053D01*
X116339236Y-101286761D01*
X116395625Y-101076312D01*
X116397528Y-101065519D01*
X116416517Y-100848475D01*
X116416517Y-100837525D01*
X116397528Y-100620481D01*
X116395625Y-100609688D01*
X116339236Y-100399239D01*
X116335490Y-100388947D01*
X116243414Y-100191489D01*
X116237931Y-100181994D01*
X116201491Y-100129952D01*
X116191012Y-100121576D01*
X116177566Y-100128644D01*
X115476022Y-100830188D01*
X115468408Y-100844132D01*
X114738356Y-100844132D01*
X114739592Y-100841868D01*
X114739461Y-100840035D01*
X114735210Y-100833420D01*
X114029713Y-100127923D01*
X114017938Y-100121493D01*
X114005923Y-100130789D01*
X113970069Y-100181994D01*
X113964586Y-100191489D01*
X113872510Y-100388947D01*
X113868764Y-100399239D01*
X113812375Y-100609688D01*
X113810472Y-100620481D01*
X113791483Y-100837525D01*
X113791483Y-100848475D01*
X111417019Y-100848475D01*
X111417498Y-100843000D01*
X111397543Y-100614913D01*
X111390657Y-100589215D01*
X111339707Y-100399067D01*
X111339706Y-100399065D01*
X111338284Y-100393757D01*
X111243966Y-100191489D01*
X111243849Y-100191238D01*
X111243846Y-100191233D01*
X111241523Y-100186251D01*
X111110198Y-99998700D01*
X110948300Y-99836802D01*
X110943792Y-99833645D01*
X110943789Y-99833643D01*
X110832886Y-99755988D01*
X114382576Y-99755988D01*
X114389644Y-99769434D01*
X115091188Y-100470978D01*
X115105132Y-100478592D01*
X115106965Y-100478461D01*
X115113580Y-100474210D01*
X115819077Y-99768713D01*
X115825507Y-99756938D01*
X115816211Y-99744923D01*
X115765006Y-99709069D01*
X115755511Y-99703586D01*
X115558053Y-99611510D01*
X115547761Y-99607764D01*
X115337312Y-99551375D01*
X115326519Y-99549472D01*
X115109475Y-99530483D01*
X115098525Y-99530483D01*
X114881481Y-99549472D01*
X114870688Y-99551375D01*
X114660239Y-99607764D01*
X114649947Y-99611510D01*
X114452489Y-99703586D01*
X114442994Y-99709069D01*
X114390952Y-99745509D01*
X114382576Y-99755988D01*
X110832886Y-99755988D01*
X110817920Y-99745509D01*
X110760749Y-99705477D01*
X110755767Y-99703154D01*
X110755762Y-99703151D01*
X110558225Y-99611039D01*
X110558224Y-99611039D01*
X110553243Y-99608716D01*
X110547935Y-99607294D01*
X110547933Y-99607293D01*
X110337402Y-99550881D01*
X110337400Y-99550881D01*
X110332087Y-99549457D01*
X110104000Y-99529502D01*
X109875913Y-99549457D01*
X109870600Y-99550881D01*
X109870598Y-99550881D01*
X109660067Y-99607293D01*
X109660065Y-99607294D01*
X109654757Y-99608716D01*
X109649776Y-99611039D01*
X109649775Y-99611039D01*
X109452238Y-99703151D01*
X109452233Y-99703154D01*
X109447251Y-99705477D01*
X109390080Y-99745509D01*
X109264211Y-99833643D01*
X109264208Y-99833645D01*
X109259700Y-99836802D01*
X109097802Y-99998700D01*
X108966477Y-100186251D01*
X108964154Y-100191233D01*
X108964151Y-100191238D01*
X108964034Y-100191489D01*
X108869716Y-100393757D01*
X108868294Y-100399065D01*
X108868293Y-100399067D01*
X108817343Y-100589215D01*
X108810457Y-100614913D01*
X108790502Y-100843000D01*
X97017500Y-100843000D01*
X97017500Y-98850874D01*
X97037502Y-98782753D01*
X97091158Y-98736260D01*
X97099271Y-98732892D01*
X97182295Y-98701768D01*
X97182296Y-98701767D01*
X97190705Y-98698615D01*
X97307261Y-98611261D01*
X97394615Y-98494705D01*
X97445745Y-98358316D01*
X97446999Y-98346771D01*
X97448113Y-98344090D01*
X97448425Y-98342778D01*
X97448637Y-98342828D01*
X97474238Y-98281210D01*
X97532599Y-98240782D01*
X97603553Y-98238323D01*
X97664572Y-98274616D01*
X97673147Y-98285225D01*
X97682084Y-98295875D01*
X97836125Y-98449916D01*
X97844533Y-98456972D01*
X98022993Y-98581931D01*
X98032489Y-98587414D01*
X98229947Y-98679490D01*
X98240239Y-98683236D01*
X98412503Y-98729394D01*
X98426599Y-98729058D01*
X98430000Y-98721116D01*
X98430000Y-95380033D01*
X98426027Y-95366502D01*
X98417478Y-95365273D01*
X98240239Y-95412764D01*
X98229947Y-95416510D01*
X98032489Y-95508586D01*
X98022993Y-95514069D01*
X97844533Y-95639028D01*
X97836125Y-95646084D01*
X97682084Y-95800125D01*
X97671493Y-95812746D01*
X97670475Y-95811892D01*
X97620016Y-95852224D01*
X97549397Y-95859532D01*
X97486037Y-95827500D01*
X97450053Y-95766298D01*
X97447000Y-95749238D01*
X97445745Y-95737684D01*
X97394615Y-95601295D01*
X97307261Y-95484739D01*
X97190705Y-95397385D01*
X97130684Y-95374884D01*
X97109270Y-95366856D01*
X97052506Y-95324214D01*
X97027806Y-95257652D01*
X97027500Y-95248874D01*
X97027500Y-95037445D01*
X97027673Y-95030850D01*
X97030805Y-94971098D01*
X97030805Y-94971094D01*
X97031150Y-94964507D01*
X97029051Y-94951253D01*
X97027500Y-94931544D01*
X97027500Y-94901147D01*
X97047502Y-94833026D01*
X97064405Y-94812052D01*
X97142563Y-94733894D01*
X97142566Y-94733892D01*
X97733053Y-94143405D01*
X97795365Y-94109379D01*
X97822148Y-94106500D01*
X102952905Y-94106500D01*
X103021026Y-94126502D01*
G37*
%TD.AperFunction*%
%TA.AperFunction,Conductor*%
G36*
X132317257Y-76220002D02*
G01*
X132363750Y-76273658D01*
X132373854Y-76343932D01*
X132344360Y-76408512D01*
X132301887Y-76440426D01*
X132152454Y-76509316D01*
X132144299Y-76513836D01*
X131984136Y-76618844D01*
X131974999Y-76629585D01*
X131979572Y-76639361D01*
X132951190Y-77610980D01*
X132965131Y-77618592D01*
X132966966Y-77618461D01*
X132973580Y-77614210D01*
X133944929Y-76642860D01*
X133951313Y-76631169D01*
X133941903Y-76619061D01*
X133821873Y-76535793D01*
X133813846Y-76531065D01*
X133627168Y-76439006D01*
X133574919Y-76390938D01*
X133556952Y-76322252D01*
X133578971Y-76254757D01*
X133633986Y-76209880D01*
X133682896Y-76200000D01*
X147649136Y-76200000D01*
X147717257Y-76220002D01*
X147763750Y-76273658D01*
X147773854Y-76343932D01*
X147744360Y-76408512D01*
X147701887Y-76440426D01*
X147552454Y-76509316D01*
X147544299Y-76513836D01*
X147384136Y-76618844D01*
X147374999Y-76629585D01*
X147379572Y-76639361D01*
X148351190Y-77610980D01*
X148365131Y-77618592D01*
X148366966Y-77618461D01*
X148373580Y-77614210D01*
X149344929Y-76642860D01*
X149351313Y-76631169D01*
X149341903Y-76619061D01*
X149221873Y-76535793D01*
X149213846Y-76531065D01*
X149027168Y-76439006D01*
X148974919Y-76390938D01*
X148956952Y-76322252D01*
X148978971Y-76254757D01*
X149033986Y-76209880D01*
X149082896Y-76200000D01*
X152647941Y-76200000D01*
X152716062Y-76220002D01*
X152762555Y-76273658D01*
X152772659Y-76343932D01*
X152743165Y-76408512D01*
X152700692Y-76440426D01*
X152547965Y-76510834D01*
X152544056Y-76513397D01*
X152343242Y-76645056D01*
X152343237Y-76645060D01*
X152339329Y-76647622D01*
X152292993Y-76688978D01*
X152223460Y-76751039D01*
X152153202Y-76813746D01*
X151993675Y-77005557D01*
X151864252Y-77218840D01*
X151862443Y-77223154D01*
X151862442Y-77223156D01*
X151815069Y-77336127D01*
X151770280Y-77391213D01*
X151760269Y-77396754D01*
X151760404Y-77396983D01*
X151742968Y-77407294D01*
X151725218Y-77415990D01*
X151713756Y-77420528D01*
X151713751Y-77420531D01*
X151706383Y-77423448D01*
X151699968Y-77428109D01*
X151670625Y-77449427D01*
X151660707Y-77455943D01*
X151642019Y-77466995D01*
X151622637Y-77478458D01*
X151608313Y-77492782D01*
X151593281Y-77505621D01*
X151576893Y-77517528D01*
X151548712Y-77551593D01*
X151540722Y-77560373D01*
X144001747Y-85099348D01*
X143993461Y-85106888D01*
X143986982Y-85111000D01*
X143981557Y-85116777D01*
X143940357Y-85160651D01*
X143937602Y-85163493D01*
X143917865Y-85183230D01*
X143915385Y-85186427D01*
X143907682Y-85195447D01*
X143877414Y-85227679D01*
X143873595Y-85234625D01*
X143873593Y-85234628D01*
X143867652Y-85245434D01*
X143856801Y-85261953D01*
X143844386Y-85277959D01*
X143841241Y-85285228D01*
X143841238Y-85285232D01*
X143826826Y-85318537D01*
X143821609Y-85329187D01*
X143800305Y-85367940D01*
X143798334Y-85375615D01*
X143798334Y-85375616D01*
X143795267Y-85387562D01*
X143788863Y-85406266D01*
X143780819Y-85424855D01*
X143779580Y-85432678D01*
X143779577Y-85432688D01*
X143773901Y-85468524D01*
X143771495Y-85480144D01*
X143763564Y-85511036D01*
X143760500Y-85522970D01*
X143760500Y-85543224D01*
X143758949Y-85562934D01*
X143755780Y-85582943D01*
X143756526Y-85590835D01*
X143759941Y-85626961D01*
X143760500Y-85638819D01*
X143760500Y-86913606D01*
X143740498Y-86981727D01*
X143706771Y-87016819D01*
X143554211Y-87123643D01*
X143554208Y-87123645D01*
X143549700Y-87126802D01*
X143387802Y-87288700D01*
X143384645Y-87293208D01*
X143384643Y-87293211D01*
X143376610Y-87304684D01*
X143256477Y-87476251D01*
X143254154Y-87481233D01*
X143254151Y-87481238D01*
X143238195Y-87515457D01*
X143191278Y-87568742D01*
X143123001Y-87588203D01*
X143055041Y-87567661D01*
X143009805Y-87515457D01*
X142993849Y-87481238D01*
X142993846Y-87481233D01*
X142991523Y-87476251D01*
X142871390Y-87304684D01*
X142863357Y-87293211D01*
X142863355Y-87293208D01*
X142860198Y-87288700D01*
X142698300Y-87126802D01*
X142693792Y-87123645D01*
X142693789Y-87123643D01*
X142541229Y-87016819D01*
X142496901Y-86961362D01*
X142487500Y-86913606D01*
X142487500Y-85681768D01*
X142488027Y-85670585D01*
X142489702Y-85663092D01*
X142488567Y-85626961D01*
X142487562Y-85595002D01*
X142487500Y-85591044D01*
X142487500Y-85563144D01*
X142486996Y-85559153D01*
X142486063Y-85547311D01*
X142485548Y-85530899D01*
X142484674Y-85503111D01*
X142479021Y-85483652D01*
X142475012Y-85464293D01*
X142473752Y-85454320D01*
X142472474Y-85444203D01*
X142469558Y-85436837D01*
X142469556Y-85436831D01*
X142456200Y-85403098D01*
X142452355Y-85391868D01*
X142442230Y-85357017D01*
X142442230Y-85357016D01*
X142440019Y-85349407D01*
X142429705Y-85331966D01*
X142421008Y-85314213D01*
X142416472Y-85302758D01*
X142413552Y-85295383D01*
X142387563Y-85259612D01*
X142381047Y-85249692D01*
X142372138Y-85234628D01*
X142358542Y-85211638D01*
X142344221Y-85197317D01*
X142331380Y-85182283D01*
X142324132Y-85172307D01*
X142319472Y-85165893D01*
X142285407Y-85137712D01*
X142276626Y-85129722D01*
X141722647Y-84575742D01*
X141715113Y-84567463D01*
X141711000Y-84560982D01*
X141661348Y-84514356D01*
X141658507Y-84511602D01*
X141638770Y-84491865D01*
X141635573Y-84489385D01*
X141626551Y-84481680D01*
X141600100Y-84456841D01*
X141594321Y-84451414D01*
X141587375Y-84447595D01*
X141587372Y-84447593D01*
X141576566Y-84441652D01*
X141560047Y-84430801D01*
X141559583Y-84430441D01*
X141544041Y-84418386D01*
X141536772Y-84415241D01*
X141536768Y-84415238D01*
X141503463Y-84400826D01*
X141492813Y-84395609D01*
X141454060Y-84374305D01*
X141434437Y-84369267D01*
X141415734Y-84362863D01*
X141404420Y-84357967D01*
X141404419Y-84357967D01*
X141397145Y-84354819D01*
X141389322Y-84353580D01*
X141389312Y-84353577D01*
X141353476Y-84347901D01*
X141341856Y-84345495D01*
X141306711Y-84336472D01*
X141306710Y-84336472D01*
X141299030Y-84334500D01*
X141278776Y-84334500D01*
X141259065Y-84332949D01*
X141246886Y-84331020D01*
X141239057Y-84329780D01*
X141231165Y-84330526D01*
X141195039Y-84333941D01*
X141183181Y-84334500D01*
X135263594Y-84334500D01*
X135195473Y-84314498D01*
X135174499Y-84297595D01*
X130211800Y-79334895D01*
X131976851Y-79334895D01*
X131985563Y-79346415D01*
X132068529Y-79407249D01*
X132076444Y-79412194D01*
X132288873Y-79523959D01*
X132297447Y-79527687D01*
X132524067Y-79606826D01*
X132533077Y-79609240D01*
X132768923Y-79654017D01*
X132778180Y-79655071D01*
X133018058Y-79664497D01*
X133027372Y-79664171D01*
X133265996Y-79638038D01*
X133275173Y-79636337D01*
X133507312Y-79575220D01*
X133516132Y-79572183D01*
X133736693Y-79477423D01*
X133744965Y-79473116D01*
X133948026Y-79347458D01*
X133954751Y-79337253D01*
X133953370Y-79334895D01*
X147376851Y-79334895D01*
X147385563Y-79346415D01*
X147468529Y-79407249D01*
X147476444Y-79412194D01*
X147688873Y-79523959D01*
X147697447Y-79527687D01*
X147924067Y-79606826D01*
X147933077Y-79609240D01*
X148168923Y-79654017D01*
X148178180Y-79655071D01*
X148418058Y-79664497D01*
X148427372Y-79664171D01*
X148665996Y-79638038D01*
X148675173Y-79636337D01*
X148907312Y-79575220D01*
X148916132Y-79572183D01*
X149136693Y-79477423D01*
X149144965Y-79473116D01*
X149348026Y-79347458D01*
X149354751Y-79337253D01*
X149348688Y-79326899D01*
X148376810Y-78355020D01*
X148362869Y-78347408D01*
X148361034Y-78347539D01*
X148354420Y-78351790D01*
X147383509Y-79322702D01*
X147376851Y-79334895D01*
X133953370Y-79334895D01*
X133948688Y-79326899D01*
X132976810Y-78355020D01*
X132962869Y-78347408D01*
X132961034Y-78347539D01*
X132954420Y-78351790D01*
X131983509Y-79322702D01*
X131976851Y-79334895D01*
X130211800Y-79334895D01*
X129572807Y-78695902D01*
X129538781Y-78633590D01*
X129543500Y-78563715D01*
X129543779Y-78562950D01*
X129545697Y-78558691D01*
X129579958Y-78437213D01*
X129612146Y-78323082D01*
X129612147Y-78323079D01*
X129613416Y-78318578D01*
X129626414Y-78216402D01*
X129644502Y-78074222D01*
X129644502Y-78074218D01*
X129644900Y-78071092D01*
X129644984Y-78067909D01*
X129646676Y-78003278D01*
X129647207Y-77983000D01*
X129644281Y-77943624D01*
X131282096Y-77943624D01*
X131293614Y-78183398D01*
X131294751Y-78192658D01*
X131341581Y-78428095D01*
X131344075Y-78437088D01*
X131425189Y-78663009D01*
X131428989Y-78671544D01*
X131542607Y-78882996D01*
X131547618Y-78890863D01*
X131600609Y-78961826D01*
X131611867Y-78970275D01*
X131624286Y-78963503D01*
X132591980Y-77995810D01*
X132598357Y-77984131D01*
X133328408Y-77984131D01*
X133328539Y-77985966D01*
X133332790Y-77992580D01*
X134306024Y-78965813D01*
X134318404Y-78972573D01*
X134326745Y-78966330D01*
X134440265Y-78789843D01*
X134444708Y-78781659D01*
X134543304Y-78562783D01*
X134546494Y-78554018D01*
X134611654Y-78322981D01*
X134613514Y-78313839D01*
X134644001Y-78074196D01*
X134644482Y-78067909D01*
X134646622Y-77986160D01*
X134646471Y-77979851D01*
X134643779Y-77943624D01*
X146682096Y-77943624D01*
X146693614Y-78183398D01*
X146694751Y-78192658D01*
X146741581Y-78428095D01*
X146744075Y-78437088D01*
X146825189Y-78663009D01*
X146828989Y-78671544D01*
X146942607Y-78882996D01*
X146947618Y-78890863D01*
X147000609Y-78961826D01*
X147011867Y-78970275D01*
X147024286Y-78963503D01*
X147991980Y-77995810D01*
X147998357Y-77984131D01*
X148728408Y-77984131D01*
X148728539Y-77985966D01*
X148732790Y-77992580D01*
X149706024Y-78965813D01*
X149718404Y-78972573D01*
X149726745Y-78966330D01*
X149840265Y-78789843D01*
X149844708Y-78781659D01*
X149943304Y-78562783D01*
X149946494Y-78554018D01*
X150011654Y-78322981D01*
X150013514Y-78313839D01*
X150044001Y-78074196D01*
X150044482Y-78067909D01*
X150046622Y-77986160D01*
X150046471Y-77979851D01*
X150028568Y-77738932D01*
X150027191Y-77729726D01*
X149974210Y-77495582D01*
X149971486Y-77486671D01*
X149884478Y-77262930D01*
X149880467Y-77254521D01*
X149761347Y-77046105D01*
X149756130Y-77038370D01*
X149728425Y-77003227D01*
X149716501Y-76994758D01*
X149704965Y-77001246D01*
X148736020Y-77970190D01*
X148728408Y-77984131D01*
X147998357Y-77984131D01*
X147999592Y-77981869D01*
X147999461Y-77980034D01*
X147995210Y-77973420D01*
X147022131Y-77000342D01*
X147008823Y-76993075D01*
X146998786Y-77000195D01*
X146997076Y-77002251D01*
X146991655Y-77009851D01*
X146867127Y-77215067D01*
X146862889Y-77223384D01*
X146770060Y-77444755D01*
X146767099Y-77453605D01*
X146708011Y-77686264D01*
X146706390Y-77695458D01*
X146682341Y-77934297D01*
X146682096Y-77943624D01*
X134643779Y-77943624D01*
X134628568Y-77738932D01*
X134627191Y-77729726D01*
X134574210Y-77495582D01*
X134571486Y-77486671D01*
X134484478Y-77262930D01*
X134480467Y-77254521D01*
X134361347Y-77046105D01*
X134356130Y-77038370D01*
X134328425Y-77003227D01*
X134316501Y-76994758D01*
X134304965Y-77001246D01*
X133336020Y-77970190D01*
X133328408Y-77984131D01*
X132598357Y-77984131D01*
X132599592Y-77981869D01*
X132599461Y-77980034D01*
X132595210Y-77973420D01*
X131622131Y-77000342D01*
X131608823Y-76993075D01*
X131598786Y-77000195D01*
X131597076Y-77002251D01*
X131591655Y-77009851D01*
X131467127Y-77215067D01*
X131462889Y-77223384D01*
X131370060Y-77444755D01*
X131367099Y-77453605D01*
X131308011Y-77686264D01*
X131306390Y-77695458D01*
X131282341Y-77934297D01*
X131282096Y-77943624D01*
X129644281Y-77943624D01*
X129628718Y-77734206D01*
X129573659Y-77490878D01*
X129559164Y-77453605D01*
X129484931Y-77262714D01*
X129484930Y-77262712D01*
X129483238Y-77258361D01*
X129458494Y-77215067D01*
X129419020Y-77146003D01*
X129359442Y-77041763D01*
X129204990Y-76845842D01*
X129023276Y-76674902D01*
X128822751Y-76535793D01*
X128822130Y-76535362D01*
X128822125Y-76535359D01*
X128818292Y-76532700D01*
X128814110Y-76530637D01*
X128814102Y-76530633D01*
X128628299Y-76439006D01*
X128576050Y-76390938D01*
X128558083Y-76322252D01*
X128580102Y-76254757D01*
X128635117Y-76209880D01*
X128684027Y-76200000D01*
X132249136Y-76200000D01*
X132317257Y-76220002D01*
G37*
%TD.AperFunction*%
%TD*%
M02*
