M48
; DRILL file {KiCad (6.0.1)} date Thu Jul 14 17:02:33 2022
; FORMAT={-:-/ absolute / inch / decimal}
; #@! TF.CreationDate,2022-07-14T17:02:33-04:00
; #@! TF.GenerationSoftware,Kicad,Pcbnew,(6.0.1)
; #@! TF.FileFunction,Plated,1,2,PTH
FMAT,2
INCH
; #@! TA.AperFunction,Plated,PTH,ViaDrill
T1C0.0157
; #@! TA.AperFunction,Plated,PTH,ComponentDrill
T2C0.0315
; #@! TA.AperFunction,Plated,PTH,ComponentDrill
T3C0.0394
; #@! TA.AperFunction,Plated,PTH,ComponentDrill
T4C0.0512
%
G90
G05
T1
X4.9348Y-3.3202
X4.935Y-3.25
X5.8848Y-3.3202
T2
X3.7848Y-3.0702
X3.7848Y-3.2702
X3.7848Y-4.0702
X3.7852Y-3.5208
X3.7852Y-3.8208
X3.8852Y-3.5208
X3.8852Y-3.8208
X3.9852Y-3.5208
X3.9852Y-3.8208
X4.0848Y-3.0702
X4.0848Y-3.2702
X4.0848Y-4.0702
X4.0852Y-3.5208
X4.0852Y-3.8208
X4.3348Y-3.2702
X4.3348Y-3.9702
X4.338Y-3.5702
X4.338Y-3.7702
X4.5317Y-3.2702
X4.5317Y-3.9702
X4.5348Y-3.5702
X4.5348Y-3.7702
T3
X3.5748Y-3.08
X3.5748Y-3.18
X3.575Y-3.475
X3.575Y-3.575
X3.575Y-3.675
X3.575Y-3.9202
X3.575Y-4.0202
X4.8848Y-3.4698
X4.8848Y-4.0698
X4.9848Y-3.4698
X4.9848Y-4.0698
X5.0848Y-3.4698
X5.0848Y-4.0698
X5.1848Y-3.4698
X5.1848Y-4.0698
X5.2848Y-3.4698
X5.2848Y-4.0698
X5.3848Y-3.4698
X5.3848Y-4.0698
X5.4848Y-3.4698
X5.4848Y-4.0698
X5.5848Y-3.4698
X5.5848Y-4.0698
X5.6848Y-3.4698
X5.6848Y-4.0698
X5.7848Y-3.4698
X5.7848Y-4.0698
X5.8848Y-3.4698
X5.8848Y-4.0698
X5.9848Y-3.4698
X5.9848Y-4.0698
X6.0848Y-3.4698
X6.0848Y-4.0698
X6.1848Y-3.4698
X6.1848Y-4.0698
X6.2848Y-3.4698
X6.2848Y-4.0698
T4
X4.8411Y-3.0702
X5.038Y-3.0702
X5.2348Y-3.0702
X5.8411Y-3.0702
X6.038Y-3.0702
X6.2348Y-3.0702
T0
M30
