%TF.GenerationSoftware,KiCad,Pcbnew,(6.0.1)*%
%TF.CreationDate,2022-07-14T17:05:26-04:00*%
%TF.ProjectId,Adafruit_NeoPixel_bar,41646166-7275-4697-945f-4e656f506978,rev?*%
%TF.SameCoordinates,Original*%
%TF.FileFunction,Legend,Bot*%
%TF.FilePolarity,Positive*%
%FSLAX46Y46*%
G04 Gerber Fmt 4.6, Leading zero omitted, Abs format (unit mm)*
G04 Created by KiCad (PCBNEW (6.0.1)) date 2022-07-14 17:05:26*
%MOMM*%
%LPD*%
G01*
G04 APERTURE LIST*
%ADD10C,0.150000*%
G04 APERTURE END LIST*
D10*
X107630476Y-91918761D02*
X107630476Y-89918761D01*
X106487619Y-91918761D01*
X106487619Y-89918761D01*
X104773333Y-91823523D02*
X104963809Y-91918761D01*
X105344761Y-91918761D01*
X105535238Y-91823523D01*
X105630476Y-91633047D01*
X105630476Y-90871142D01*
X105535238Y-90680666D01*
X105344761Y-90585428D01*
X104963809Y-90585428D01*
X104773333Y-90680666D01*
X104678095Y-90871142D01*
X104678095Y-91061619D01*
X105630476Y-91252095D01*
X103535238Y-91918761D02*
X103725714Y-91823523D01*
X103820952Y-91728285D01*
X103916190Y-91537809D01*
X103916190Y-90966380D01*
X103820952Y-90775904D01*
X103725714Y-90680666D01*
X103535238Y-90585428D01*
X103249523Y-90585428D01*
X103059047Y-90680666D01*
X102963809Y-90775904D01*
X102868571Y-90966380D01*
X102868571Y-91537809D01*
X102963809Y-91728285D01*
X103059047Y-91823523D01*
X103249523Y-91918761D01*
X103535238Y-91918761D01*
X102011428Y-91918761D02*
X102011428Y-89918761D01*
X101249523Y-89918761D01*
X101059047Y-90014000D01*
X100963809Y-90109238D01*
X100868571Y-90299714D01*
X100868571Y-90585428D01*
X100963809Y-90775904D01*
X101059047Y-90871142D01*
X101249523Y-90966380D01*
X102011428Y-90966380D01*
X100011428Y-91918761D02*
X100011428Y-90585428D01*
X100011428Y-89918761D02*
X100106666Y-90014000D01*
X100011428Y-90109238D01*
X99916190Y-90014000D01*
X100011428Y-89918761D01*
X100011428Y-90109238D01*
X99249523Y-91918761D02*
X98201904Y-90585428D01*
X99249523Y-90585428D02*
X98201904Y-91918761D01*
X96678095Y-91823523D02*
X96868571Y-91918761D01*
X97249523Y-91918761D01*
X97440000Y-91823523D01*
X97535238Y-91633047D01*
X97535238Y-90871142D01*
X97440000Y-90680666D01*
X97249523Y-90585428D01*
X96868571Y-90585428D01*
X96678095Y-90680666D01*
X96582857Y-90871142D01*
X96582857Y-91061619D01*
X97535238Y-91252095D01*
X95440000Y-91918761D02*
X95630476Y-91823523D01*
X95725714Y-91633047D01*
X95725714Y-89918761D01*
X93249523Y-91823523D02*
X92963809Y-91918761D01*
X92487619Y-91918761D01*
X92297142Y-91823523D01*
X92201904Y-91728285D01*
X92106666Y-91537809D01*
X92106666Y-91347333D01*
X92201904Y-91156857D01*
X92297142Y-91061619D01*
X92487619Y-90966380D01*
X92868571Y-90871142D01*
X93059047Y-90775904D01*
X93154285Y-90680666D01*
X93249523Y-90490190D01*
X93249523Y-90299714D01*
X93154285Y-90109238D01*
X93059047Y-90014000D01*
X92868571Y-89918761D01*
X92392380Y-89918761D01*
X92106666Y-90014000D01*
X91535238Y-90585428D02*
X90773333Y-90585428D01*
X91249523Y-89918761D02*
X91249523Y-91633047D01*
X91154285Y-91823523D01*
X90963809Y-91918761D01*
X90773333Y-91918761D01*
X90106666Y-91918761D02*
X90106666Y-90585428D01*
X90106666Y-89918761D02*
X90201904Y-90014000D01*
X90106666Y-90109238D01*
X90011428Y-90014000D01*
X90106666Y-89918761D01*
X90106666Y-90109238D01*
X88297142Y-91823523D02*
X88487619Y-91918761D01*
X88868571Y-91918761D01*
X89059047Y-91823523D01*
X89154285Y-91728285D01*
X89249523Y-91537809D01*
X89249523Y-90966380D01*
X89154285Y-90775904D01*
X89059047Y-90680666D01*
X88868571Y-90585428D01*
X88487619Y-90585428D01*
X88297142Y-90680666D01*
X87440000Y-91918761D02*
X87440000Y-89918761D01*
X87249523Y-91156857D02*
X86678095Y-91918761D01*
X86678095Y-90585428D02*
X87440000Y-91347333D01*
X85916190Y-91823523D02*
X85725714Y-91918761D01*
X85344761Y-91918761D01*
X85154285Y-91823523D01*
X85059047Y-91633047D01*
X85059047Y-91537809D01*
X85154285Y-91347333D01*
X85344761Y-91252095D01*
X85630476Y-91252095D01*
X85820952Y-91156857D01*
X85916190Y-90966380D01*
X85916190Y-90871142D01*
X85820952Y-90680666D01*
X85630476Y-90585428D01*
X85344761Y-90585428D01*
X85154285Y-90680666D01*
X82678095Y-91918761D02*
X82678095Y-89918761D01*
X81916190Y-89918761D01*
X81725714Y-90014000D01*
X81630476Y-90109238D01*
X81535238Y-90299714D01*
X81535238Y-90585428D01*
X81630476Y-90775904D01*
X81725714Y-90871142D01*
X81916190Y-90966380D01*
X82678095Y-90966380D01*
X79820952Y-91918761D02*
X79820952Y-90871142D01*
X79916190Y-90680666D01*
X80106666Y-90585428D01*
X80487619Y-90585428D01*
X80678095Y-90680666D01*
X79820952Y-91823523D02*
X80011428Y-91918761D01*
X80487619Y-91918761D01*
X80678095Y-91823523D01*
X80773333Y-91633047D01*
X80773333Y-91442571D01*
X80678095Y-91252095D01*
X80487619Y-91156857D01*
X80011428Y-91156857D01*
X79820952Y-91061619D01*
X78868571Y-90585428D02*
X78868571Y-91918761D01*
X78868571Y-90775904D02*
X78773333Y-90680666D01*
X78582857Y-90585428D01*
X78297142Y-90585428D01*
X78106666Y-90680666D01*
X78011428Y-90871142D01*
X78011428Y-91918761D01*
X76297142Y-91823523D02*
X76487619Y-91918761D01*
X76868571Y-91918761D01*
X77059047Y-91823523D01*
X77154285Y-91633047D01*
X77154285Y-90871142D01*
X77059047Y-90680666D01*
X76868571Y-90585428D01*
X76487619Y-90585428D01*
X76297142Y-90680666D01*
X76201904Y-90871142D01*
X76201904Y-91061619D01*
X77154285Y-91252095D01*
X75059047Y-91918761D02*
X75249523Y-91823523D01*
X75344761Y-91633047D01*
X75344761Y-89918761D01*
X110011428Y-93138761D02*
X110011428Y-94567333D01*
X110106666Y-94853047D01*
X110297142Y-95043523D01*
X110582857Y-95138761D01*
X110773333Y-95138761D01*
X108201904Y-95138761D02*
X108201904Y-94091142D01*
X108297142Y-93900666D01*
X108487619Y-93805428D01*
X108868571Y-93805428D01*
X109059047Y-93900666D01*
X108201904Y-95043523D02*
X108392380Y-95138761D01*
X108868571Y-95138761D01*
X109059047Y-95043523D01*
X109154285Y-94853047D01*
X109154285Y-94662571D01*
X109059047Y-94472095D01*
X108868571Y-94376857D01*
X108392380Y-94376857D01*
X108201904Y-94281619D01*
X106392380Y-95043523D02*
X106582857Y-95138761D01*
X106963809Y-95138761D01*
X107154285Y-95043523D01*
X107249523Y-94948285D01*
X107344761Y-94757809D01*
X107344761Y-94186380D01*
X107249523Y-93995904D01*
X107154285Y-93900666D01*
X106963809Y-93805428D01*
X106582857Y-93805428D01*
X106392380Y-93900666D01*
X105535238Y-95138761D02*
X105535238Y-93138761D01*
X105344761Y-94376857D02*
X104773333Y-95138761D01*
X104773333Y-93805428D02*
X105535238Y-94567333D01*
X104106666Y-93805428D02*
X103630476Y-95138761D01*
X103154285Y-93805428D02*
X103630476Y-95138761D01*
X103820952Y-95614952D01*
X103916190Y-95710190D01*
X104106666Y-95805428D01*
X101059047Y-93138761D02*
X100582857Y-95138761D01*
X100201904Y-93710190D01*
X99820952Y-95138761D01*
X99344761Y-93138761D01*
X97725714Y-95138761D02*
X97725714Y-94091142D01*
X97820952Y-93900666D01*
X98011428Y-93805428D01*
X98392380Y-93805428D01*
X98582857Y-93900666D01*
X97725714Y-95043523D02*
X97916190Y-95138761D01*
X98392380Y-95138761D01*
X98582857Y-95043523D01*
X98678095Y-94853047D01*
X98678095Y-94662571D01*
X98582857Y-94472095D01*
X98392380Y-94376857D01*
X97916190Y-94376857D01*
X97725714Y-94281619D01*
X96773333Y-93805428D02*
X96773333Y-95138761D01*
X96773333Y-93995904D02*
X96678095Y-93900666D01*
X96487619Y-93805428D01*
X96201904Y-93805428D01*
X96011428Y-93900666D01*
X95916190Y-94091142D01*
X95916190Y-95138761D01*
X94106666Y-93805428D02*
X94106666Y-95424476D01*
X94201904Y-95614952D01*
X94297142Y-95710190D01*
X94487619Y-95805428D01*
X94773333Y-95805428D01*
X94963809Y-95710190D01*
X94106666Y-95043523D02*
X94297142Y-95138761D01*
X94678095Y-95138761D01*
X94868571Y-95043523D01*
X94963809Y-94948285D01*
X95059047Y-94757809D01*
X95059047Y-94186380D01*
X94963809Y-93995904D01*
X94868571Y-93900666D01*
X94678095Y-93805428D01*
X94297142Y-93805428D01*
X94106666Y-93900666D01*
X90011428Y-95138761D02*
X90106666Y-95138761D01*
X90297142Y-95043523D01*
X90582857Y-94757809D01*
X91059047Y-94186380D01*
X91249523Y-93900666D01*
X91344761Y-93614952D01*
X91344761Y-93424476D01*
X91249523Y-93234000D01*
X91059047Y-93138761D01*
X90963809Y-93138761D01*
X90773333Y-93234000D01*
X90678095Y-93424476D01*
X90678095Y-93519714D01*
X90773333Y-93710190D01*
X90868571Y-93805428D01*
X91440000Y-94186380D01*
X91535238Y-94281619D01*
X91630476Y-94472095D01*
X91630476Y-94757809D01*
X91535238Y-94948285D01*
X91440000Y-95043523D01*
X91249523Y-95138761D01*
X90963809Y-95138761D01*
X90773333Y-95043523D01*
X90678095Y-94948285D01*
X90392380Y-94567333D01*
X90297142Y-94281619D01*
X90297142Y-94091142D01*
X86487619Y-95138761D02*
X87154285Y-94186380D01*
X87630476Y-95138761D02*
X87630476Y-93138761D01*
X86868571Y-93138761D01*
X86678095Y-93234000D01*
X86582857Y-93329238D01*
X86487619Y-93519714D01*
X86487619Y-93805428D01*
X86582857Y-93995904D01*
X86678095Y-94091142D01*
X86868571Y-94186380D01*
X87630476Y-94186380D01*
X84773333Y-95138761D02*
X84773333Y-94091142D01*
X84868571Y-93900666D01*
X85059047Y-93805428D01*
X85440000Y-93805428D01*
X85630476Y-93900666D01*
X84773333Y-95043523D02*
X84963809Y-95138761D01*
X85440000Y-95138761D01*
X85630476Y-95043523D01*
X85725714Y-94853047D01*
X85725714Y-94662571D01*
X85630476Y-94472095D01*
X85440000Y-94376857D01*
X84963809Y-94376857D01*
X84773333Y-94281619D01*
X83820952Y-95138761D02*
X83820952Y-93805428D01*
X83820952Y-93995904D02*
X83725714Y-93900666D01*
X83535238Y-93805428D01*
X83249523Y-93805428D01*
X83059047Y-93900666D01*
X82963809Y-94091142D01*
X82963809Y-95138761D01*
X82963809Y-94091142D02*
X82868571Y-93900666D01*
X82678095Y-93805428D01*
X82392380Y-93805428D01*
X82201904Y-93900666D01*
X82106666Y-94091142D01*
X82106666Y-95138761D01*
X80868571Y-95138761D02*
X81059047Y-95043523D01*
X81154285Y-94948285D01*
X81249523Y-94757809D01*
X81249523Y-94186380D01*
X81154285Y-93995904D01*
X81059047Y-93900666D01*
X80868571Y-93805428D01*
X80582857Y-93805428D01*
X80392380Y-93900666D01*
X80297142Y-93995904D01*
X80201904Y-94186380D01*
X80201904Y-94757809D01*
X80297142Y-94948285D01*
X80392380Y-95043523D01*
X80582857Y-95138761D01*
X80868571Y-95138761D01*
X79344761Y-93805428D02*
X79344761Y-95138761D01*
X79344761Y-93995904D02*
X79249523Y-93900666D01*
X79059047Y-93805428D01*
X78773333Y-93805428D01*
X78582857Y-93900666D01*
X78487619Y-94091142D01*
X78487619Y-95138761D01*
X76678095Y-95138761D02*
X76678095Y-94091142D01*
X76773333Y-93900666D01*
X76963809Y-93805428D01*
X77344761Y-93805428D01*
X77535238Y-93900666D01*
X76678095Y-95043523D02*
X76868571Y-95138761D01*
X77344761Y-95138761D01*
X77535238Y-95043523D01*
X77630476Y-94853047D01*
X77630476Y-94662571D01*
X77535238Y-94472095D01*
X77344761Y-94376857D01*
X76868571Y-94376857D01*
X76678095Y-94281619D01*
X74392380Y-93138761D02*
X73059047Y-95138761D01*
X73059047Y-93138761D02*
X74392380Y-95138761D01*
X72297142Y-95138761D02*
X72297142Y-93805428D01*
X72297142Y-93138761D02*
X72392380Y-93234000D01*
X72297142Y-93329238D01*
X72201904Y-93234000D01*
X72297142Y-93138761D01*
X72297142Y-93329238D01*
X96297142Y-96549238D02*
X96201904Y-96454000D01*
X96011428Y-96358761D01*
X95535238Y-96358761D01*
X95344761Y-96454000D01*
X95249523Y-96549238D01*
X95154285Y-96739714D01*
X95154285Y-96930190D01*
X95249523Y-97215904D01*
X96392380Y-98358761D01*
X95154285Y-98358761D01*
X93916190Y-96358761D02*
X93725714Y-96358761D01*
X93535238Y-96454000D01*
X93440000Y-96549238D01*
X93344761Y-96739714D01*
X93249523Y-97120666D01*
X93249523Y-97596857D01*
X93344761Y-97977809D01*
X93440000Y-98168285D01*
X93535238Y-98263523D01*
X93725714Y-98358761D01*
X93916190Y-98358761D01*
X94106666Y-98263523D01*
X94201904Y-98168285D01*
X94297142Y-97977809D01*
X94392380Y-97596857D01*
X94392380Y-97120666D01*
X94297142Y-96739714D01*
X94201904Y-96549238D01*
X94106666Y-96454000D01*
X93916190Y-96358761D01*
X92487619Y-96549238D02*
X92392380Y-96454000D01*
X92201904Y-96358761D01*
X91725714Y-96358761D01*
X91535238Y-96454000D01*
X91440000Y-96549238D01*
X91344761Y-96739714D01*
X91344761Y-96930190D01*
X91440000Y-97215904D01*
X92582857Y-98358761D01*
X91344761Y-98358761D01*
X90582857Y-96549238D02*
X90487619Y-96454000D01*
X90297142Y-96358761D01*
X89820952Y-96358761D01*
X89630476Y-96454000D01*
X89535238Y-96549238D01*
X89440000Y-96739714D01*
X89440000Y-96930190D01*
X89535238Y-97215904D01*
X90678095Y-98358761D01*
X89440000Y-98358761D01*
X88582857Y-98168285D02*
X88487619Y-98263523D01*
X88582857Y-98358761D01*
X88678095Y-98263523D01*
X88582857Y-98168285D01*
X88582857Y-98358761D01*
X87820952Y-96358761D02*
X86487619Y-96358761D01*
X87344761Y-98358761D01*
X59880476Y-61555380D02*
X60356666Y-61555380D01*
X60404285Y-62031571D01*
X60356666Y-61983952D01*
X60261428Y-61936333D01*
X60023333Y-61936333D01*
X59928095Y-61983952D01*
X59880476Y-62031571D01*
X59832857Y-62126809D01*
X59832857Y-62364904D01*
X59880476Y-62460142D01*
X59928095Y-62507761D01*
X60023333Y-62555380D01*
X60261428Y-62555380D01*
X60356666Y-62507761D01*
X60404285Y-62460142D01*
X59547142Y-61555380D02*
X59213809Y-62555380D01*
X58880476Y-61555380D01*
X55371904Y-61603000D02*
X55467142Y-61555380D01*
X55610000Y-61555380D01*
X55752857Y-61603000D01*
X55848095Y-61698238D01*
X55895714Y-61793476D01*
X55943333Y-61983952D01*
X55943333Y-62126809D01*
X55895714Y-62317285D01*
X55848095Y-62412523D01*
X55752857Y-62507761D01*
X55610000Y-62555380D01*
X55514761Y-62555380D01*
X55371904Y-62507761D01*
X55324285Y-62460142D01*
X55324285Y-62126809D01*
X55514761Y-62126809D01*
X54895714Y-62555380D02*
X54895714Y-61555380D01*
X54324285Y-62555380D01*
X54324285Y-61555380D01*
X53848095Y-62555380D02*
X53848095Y-61555380D01*
X53610000Y-61555380D01*
X53467142Y-61603000D01*
X53371904Y-61698238D01*
X53324285Y-61793476D01*
X53276666Y-61983952D01*
X53276666Y-62126809D01*
X53324285Y-62317285D01*
X53371904Y-62412523D01*
X53467142Y-62507761D01*
X53610000Y-62555380D01*
X53848095Y-62555380D01*
X57411904Y-62555380D02*
X57411904Y-61555380D01*
X57173809Y-61555380D01*
X57030952Y-61603000D01*
X56935714Y-61698238D01*
X56888095Y-61793476D01*
X56840476Y-61983952D01*
X56840476Y-62126809D01*
X56888095Y-62317285D01*
X56935714Y-62412523D01*
X57030952Y-62507761D01*
X57173809Y-62555380D01*
X57411904Y-62555380D01*
M02*
