M48
; DRILL file {KiCad (6.0.1)} date Thu Jul 14 17:05:29 2022
; FORMAT={-:-/ absolute / inch / decimal}
; #@! TF.CreationDate,2022-07-14T17:05:29-04:00
; #@! TF.GenerationSoftware,Kicad,Pcbnew,(6.0.1)
; #@! TF.FileFunction,Plated,1,2,PTH
FMAT,2
INCH
; #@! TA.AperFunction,Plated,PTH,ComponentDrill
T1C0.0315
; #@! TA.AperFunction,Plated,PTH,ComponentDrill
T2C0.0394
%
G90
G05
T2
X2.1506Y-2.55
X2.2506Y-2.55
X2.3506Y-2.55
T1
G00X1.945Y-2.7382
M15
G01X1.945Y-2.7657
M16
G05
G00X1.945Y-4.6343
M15
G01X1.945Y-4.6618
M16
G05
G00X2.039Y-2.7382
M15
G01X2.039Y-2.7657
M16
G05
G00X2.039Y-4.6362
M15
G01X2.039Y-4.6638
M16
G05
G00X2.161Y-2.7382
M15
G01X2.161Y-2.7657
M16
G05
G00X2.161Y-4.6362
M15
G01X2.161Y-4.6638
M16
G05
G00X2.255Y-2.7382
M15
G01X2.255Y-2.7657
M16
G05
G00X2.2564Y-4.6362
M15
G01X2.2564Y-4.6638
M16
G05
G00X2.445Y-2.7382
M15
G01X2.445Y-2.7657
M16
G05
G00X2.445Y-4.6343
M15
G01X2.445Y-4.6618
M16
G05
G00X2.539Y-2.7382
M15
G01X2.539Y-2.7657
M16
G05
G00X2.539Y-4.6362
M15
G01X2.539Y-4.6638
M16
G05
G00X2.661Y-2.7382
M15
G01X2.661Y-2.7657
M16
G05
G00X2.661Y-4.6362
M15
G01X2.661Y-4.6638
M16
G05
G00X2.755Y-2.7382
M15
G01X2.755Y-2.7657
M16
G05
G00X2.7564Y-4.6362
M15
G01X2.7564Y-4.6638
M16
G05
G00X2.945Y-2.7382
M15
G01X2.945Y-2.7657
M16
G05
G00X2.945Y-4.6343
M15
G01X2.945Y-4.6618
M16
G05
G00X3.039Y-2.7382
M15
G01X3.039Y-2.7657
M16
G05
G00X3.039Y-4.6362
M15
G01X3.039Y-4.6638
M16
G05
G00X3.161Y-2.7382
M15
G01X3.161Y-2.7657
M16
G05
G00X3.161Y-4.6362
M15
G01X3.161Y-4.6638
M16
G05
G00X3.255Y-2.7382
M15
G01X3.255Y-2.7657
M16
G05
G00X3.2564Y-4.6362
M15
G01X3.2564Y-4.6638
M16
G05
G00X3.445Y-2.7382
M15
G01X3.445Y-2.7657
M16
G05
G00X3.445Y-4.6343
M15
G01X3.445Y-4.6618
M16
G05
G00X3.539Y-2.7382
M15
G01X3.539Y-2.7657
M16
G05
G00X3.539Y-4.6362
M15
G01X3.539Y-4.6638
M16
G05
G00X3.661Y-2.7382
M15
G01X3.661Y-2.7657
M16
G05
G00X3.661Y-4.6362
M15
G01X3.661Y-4.6638
M16
G05
G00X3.755Y-2.7382
M15
G01X3.755Y-2.7657
M16
G05
G00X3.7564Y-4.6362
M15
G01X3.7564Y-4.6638
M16
G05
G00X3.945Y-2.7382
M15
G01X3.945Y-2.7657
M16
G05
G00X3.945Y-4.6343
M15
G01X3.945Y-4.6618
M16
G05
G00X4.039Y-2.7382
M15
G01X4.039Y-2.7657
M16
G05
G00X4.039Y-4.6362
M15
G01X4.039Y-4.6638
M16
G05
G00X4.161Y-2.7382
M15
G01X4.161Y-2.7657
M16
G05
G00X4.161Y-4.6362
M15
G01X4.161Y-4.6638
M16
G05
G00X4.255Y-2.7382
M15
G01X4.255Y-2.7657
M16
G05
G00X4.2564Y-4.6362
M15
G01X4.2564Y-4.6638
M16
G05
G00X4.445Y-2.7382
M15
G01X4.445Y-2.7657
M16
G05
G00X4.445Y-4.6343
M15
G01X4.445Y-4.6618
M16
G05
G00X4.539Y-2.7382
M15
G01X4.539Y-2.7657
M16
G05
G00X4.539Y-4.6362
M15
G01X4.539Y-4.6638
M16
G05
G00X4.661Y-2.7382
M15
G01X4.661Y-2.7657
M16
G05
G00X4.661Y-4.6362
M15
G01X4.661Y-4.6638
M16
G05
G00X4.755Y-2.7382
M15
G01X4.755Y-2.7657
M16
G05
G00X4.7564Y-4.6362
M15
G01X4.7564Y-4.6638
M16
G05
G00X4.945Y-2.7382
M15
G01X4.945Y-2.7657
M16
G05
G00X4.945Y-4.6343
M15
G01X4.945Y-4.6618
M16
G05
G00X5.039Y-2.7382
M15
G01X5.039Y-2.7657
M16
G05
G00X5.039Y-4.6362
M15
G01X5.039Y-4.6638
M16
G05
G00X5.161Y-2.7382
M15
G01X5.161Y-2.7657
M16
G05
G00X5.161Y-4.6362
M15
G01X5.161Y-4.6638
M16
G05
G00X5.255Y-2.7382
M15
G01X5.255Y-2.7657
M16
G05
G00X5.2564Y-4.6362
M15
G01X5.2564Y-4.6638
M16
G05
T0
M30
