%TF.GenerationSoftware,KiCad,Pcbnew,(6.0.1)*%
%TF.CreationDate,2022-07-14T17:05:26-04:00*%
%TF.ProjectId,Adafruit_NeoPixel_bar,41646166-7275-4697-945f-4e656f506978,rev?*%
%TF.SameCoordinates,Original*%
%TF.FileFunction,Soldermask,Top*%
%TF.FilePolarity,Negative*%
%FSLAX46Y46*%
G04 Gerber Fmt 4.6, Leading zero omitted, Abs format (unit mm)*
G04 Created by KiCad (PCBNEW (6.0.1)) date 2022-07-14 17:05:26*
%MOMM*%
%LPD*%
G01*
G04 APERTURE LIST*
%ADD10R,1.270000X2.540000*%
%ADD11C,2.200000*%
%ADD12R,1.700000X1.700000*%
%ADD13O,1.700000X1.700000*%
G04 APERTURE END LIST*
D10*
%TO.C,U1*%
X54890000Y-118110000D03*
X54890000Y-69900000D03*
X51790000Y-69900000D03*
X51790000Y-118110000D03*
X49403000Y-69900000D03*
X49403000Y-118060000D03*
X57277000Y-69900000D03*
X57313000Y-118110000D03*
%TD*%
%TO.C,U2*%
X67590000Y-69900000D03*
X67590000Y-118110000D03*
X64490000Y-69900000D03*
X64490000Y-118110000D03*
X69977000Y-69900000D03*
X70013000Y-118110000D03*
X62103000Y-118060000D03*
X62103000Y-69900000D03*
%TD*%
D11*
%TO.C,H2*%
X137160000Y-121920000D03*
%TD*%
D10*
%TO.C,U7*%
X131090000Y-69900000D03*
X131090000Y-118110000D03*
X127990000Y-69900000D03*
X127990000Y-118110000D03*
X125603000Y-118060000D03*
X125603000Y-69900000D03*
X133513000Y-118110000D03*
X133477000Y-69900000D03*
%TD*%
D12*
%TO.C,J1*%
X54625000Y-64770000D03*
D13*
X57165000Y-64770000D03*
X59705000Y-64770000D03*
%TD*%
D11*
%TO.C,H3*%
X45720000Y-121920000D03*
%TD*%
%TO.C,H1*%
X137160000Y-66040000D03*
%TD*%
D10*
%TO.C,U6*%
X118390000Y-69900000D03*
X118390000Y-118110000D03*
X115290000Y-69900000D03*
X115290000Y-118110000D03*
X120777000Y-69900000D03*
X112903000Y-69900000D03*
X112903000Y-118060000D03*
X120813000Y-118110000D03*
%TD*%
%TO.C,U3*%
X80290000Y-69900000D03*
X80290000Y-118110000D03*
X77190000Y-69900000D03*
X77190000Y-118110000D03*
X82677000Y-69900000D03*
X74803000Y-118060000D03*
X74803000Y-69900000D03*
X82713000Y-118110000D03*
%TD*%
%TO.C,U4*%
X92990000Y-69900000D03*
X92990000Y-118110000D03*
X89890000Y-69900000D03*
X89890000Y-118110000D03*
X95413000Y-118110000D03*
X95377000Y-69900000D03*
X87503000Y-69900000D03*
X87503000Y-118060000D03*
%TD*%
%TO.C,U5*%
X105690000Y-69900000D03*
X105690000Y-118110000D03*
X102590000Y-69900000D03*
X102590000Y-118110000D03*
X100203000Y-69900000D03*
X108113000Y-118110000D03*
X108077000Y-69900000D03*
X100203000Y-118060000D03*
%TD*%
D11*
%TO.C,H4*%
X45720000Y-66040000D03*
%TD*%
M02*
